<svg width="120" height="120" viewBox="0 0 120 120" fill="none" xmlns="http://www.w3.org/2000/svg">
<path fill-rule="evenodd" clip-rule="evenodd" d="M41.5279 60.5415C45.525 55.7556 48.268 48.3009 48.268 37.8519C48.268 28.3807 45.9738 21.3591 42.3061 16.7699C38.6999 12.2576 33.5524 9.81845 27.1146 9.81845C21.1403 9.81845 15.7067 12.3316 11.7119 17.167C7.6933 22.0313 5.0021 29.4197 5 39.2798C5.07852 49.2369 7.77227 56.3301 11.6444 60.8817C15.4919 65.4043 20.6826 67.642 26.3144 67.642C32.1772 67.642 37.5601 65.2924 41.5279 60.5415ZM2 39.2913C2.16099 60.2486 13.3593 70.642 26.3144 70.642C39.7524 70.642 51.268 59.7656 51.268 37.8519C51.268 18.0168 41.6701 6.81845 27.1146 6.81845C13.3594 6.81845 2 18.495 2 39.2913ZM13.1984 38.8131C13.1984 25.6923 17.8387 15.2989 26.6364 15.2989C36.3953 15.2989 40.0744 25.8533 40.0744 38.4911C40.0744 52.2464 35.9123 62.1663 26.6364 62.1663C17.8387 62.1663 12.8764 52.0901 13.1984 38.8131ZM13.8693 56.9152C11.2377 52.1342 10.0343 45.7357 10.1984 38.7768C10.2026 31.9379 11.4054 25.5363 13.971 20.7243C16.5804 15.8302 20.8067 12.2989 26.6364 12.2989C32.8885 12.2989 37.1595 15.8089 39.6905 20.7987C42.1366 25.6212 43.0744 31.962 43.0744 38.4911C43.0744 45.5939 42.012 52.0675 39.4913 56.8791C36.8865 61.8511 32.6145 65.1663 26.6364 65.1663C20.8689 65.1663 16.5494 61.7843 13.8693 56.9152ZM109.208 103.574C113.189 98.7857 115.932 91.3278 115.932 80.8791C115.932 71.397 113.673 64.3745 110.042 59.7874C106.476 55.2829 101.373 52.8452 94.9373 52.841C88.9621 52.8415 83.5313 55.3538 79.5383 60.2054C75.5197 65.088 72.8267 72.5173 72.8246 82.4634C72.9032 92.3346 75.594 99.3883 79.4656 103.923C83.3139 108.43 88.5067 110.669 94.139 110.669C99.9109 110.669 105.255 108.328 109.208 103.574ZM69.8246 82.4748C69.9856 103.271 81.184 113.669 94.139 113.669C107.416 113.669 118.932 102.793 118.932 80.8791C118.932 61.0441 109.495 49.8504 94.9393 49.841C81.1793 49.841 69.8246 61.5176 69.8246 82.4748ZM80.862 81.8403C80.862 68.7243 85.6586 58.3262 94.461 58.3262C104.22 58.3262 107.899 68.8806 107.899 81.5184C107.899 95.2736 103.737 105.194 94.461 105.194C85.8196 105.194 80.701 95.1174 80.862 81.8403ZM81.743 99.9615C79.0714 95.19 77.7799 88.7938 77.862 81.8222C77.8642 74.9646 79.1105 68.5515 81.7236 63.7343C84.3753 58.8459 88.6398 55.3262 94.461 55.3262C100.713 55.3262 104.984 58.8361 107.515 63.826C109.961 68.6484 110.899 74.9892 110.899 81.5184C110.899 88.6211 109.837 95.0948 107.316 99.9064C104.711 104.878 100.439 108.194 94.461 108.194C88.7598 108.194 84.4517 104.799 81.743 99.9615Z" fill="#DEDEDE"/>
<path fill-rule="evenodd" clip-rule="evenodd" d="M39.6781 99.8804L69.158 45.6303L35.5617 97.4327L28.2758 93.1014L27.9939 114.843L46.9644 104.216L39.6781 99.8804ZM52.9629 104.294L24.9268 120L25.3434 87.868L34.6146 93.3796L95.1757 0L96.833 0.984887L43.6917 98.7776L52.9629 104.294Z" fill="#DA0917"/>
</svg>
