<svg width="120" height="120" viewBox="0 0 120 120" fill="none" xmlns="http://www.w3.org/2000/svg">
<path d="M18.352 3.35196H91.5363V59.4972H94.8883V0H15V107.263H70.0279V103.911H18.352V3.35196Z" fill="#DEDEDE"/>
<path d="M82.8775 17.5978H28.4082V20.9497H82.8775V17.5978Z" fill="#DEDEDE"/>
<path d="M82.8775 29.8883H28.4082V33.2402H82.8775V29.8883Z" fill="#DEDEDE"/>
<path d="M82.8775 42.1788H28.4082V45.5307H82.8775V42.1788Z" fill="#DEDEDE"/>
<path d="M82.8775 54.7486H28.4082V58.1005H82.8775V54.7486Z" fill="#DEDEDE"/>
<path d="M68.911 67.8771H28.4082V71.229H68.911V67.8771Z" fill="#DEDEDE"/>
<path d="M104.973 79.9162C104.973 70.5028 97.291 62.8212 87.8776 62.8212C78.4642 62.8212 70.8105 70.4749 70.8105 79.9162C70.8105 83.8827 72.2631 87.5698 74.4977 90.4748V120L87.9055 105.642L101.313 120V90.4748C103.548 87.5698 104.973 83.9106 104.973 79.9162ZM87.8776 66.2011C95.4474 66.2011 101.621 72.3743 101.621 79.9441C101.621 87.514 95.4474 93.6871 87.8776 93.6871C80.3077 93.6871 74.1346 87.514 74.1346 79.9441C74.1346 72.3464 80.3077 66.2011 87.8776 66.2011ZM87.9055 100.726L77.8497 111.508V93.7151C80.6429 95.7821 84.1346 97.0112 87.9055 97.0112C91.6765 97.0112 95.1681 95.7821 97.9614 93.7151V111.508L87.9055 100.726Z" fill="#DA0917"/>
</svg>
