<svg width="78" height="78" viewBox="0 0 78 78" fill="none" xmlns="http://www.w3.org/2000/svg">
<g clip-path="url(#clip0)">
<path d="M63.3002 67.9354L60.3878 59.1969C59.3701 56.1461 56.7734 53.8941 53.6081 53.318L45.2005 51.7881V51.1365C46.6636 50.2873 47.9368 49.1512 48.9508 47.8064H51.4908C53.5716 47.8064 55.265 46.113 55.265 44.0322V28.9354C55.265 19.9176 47.928 12.5806 38.9101 12.5806C29.8923 12.5806 22.5553 19.9176 22.5553 28.9354V37.7419C22.5553 40.1674 24.2801 42.1967 26.5673 42.6697C27.2731 46.2854 29.5325 49.345 32.6198 51.1365V51.7881L24.2109 53.318C21.0469 53.8941 18.449 56.1461 17.4325 59.1969L16.9292 60.7078L12.6443 56.4229C12.1536 55.9322 12.1536 55.1333 12.6443 54.6427L17.6136 49.6746L8.28634 40.3473L2.67034 45.9633C1.00718 47.6265 0.0913086 49.8381 0.0913086 52.1907C0.0913086 54.5433 1.00718 56.7537 2.67034 58.4169L19.6731 75.4196C21.3362 77.0828 23.5479 77.9999 25.9005 77.9999C28.2531 77.9999 30.4635 77.0828 32.0877 75.4574L38.2157 69.8426L36.3047 67.9354H63.3002ZM52.7489 44.0322C52.7489 44.7266 52.184 45.2902 51.4908 45.2902H50.4328C50.7976 44.4587 51.0744 43.5818 51.253 42.6697C51.7915 42.5577 52.2872 42.3439 52.7489 42.0746V44.0322ZM51.4908 39.9082V35.5755C52.2393 36.012 52.7489 36.8147 52.7489 37.7419C52.7489 38.6691 52.2393 39.4717 51.4908 39.9082ZM26.3295 39.9082C25.581 39.4717 25.0714 38.6691 25.0714 37.7419C25.0714 36.8147 25.581 36.012 26.3295 35.5755V39.9082ZM26.3295 31.4515V32.8882C25.8816 33.0052 25.4614 33.1814 25.0714 33.4091V28.9354C25.0714 21.3052 31.28 15.0967 38.9101 15.0967C46.5403 15.0967 52.7489 21.3052 52.7489 28.9354V33.4091C52.3589 33.1814 51.9387 33.004 51.4908 32.8882V31.4515H50.2327C46.5126 31.4515 43.0152 30.0022 40.3833 27.3716L38.9101 25.8984L37.437 27.3716C34.8051 30.0022 31.3077 31.4515 27.5876 31.4515H26.3295ZM28.8456 40.258V33.9199C32.6236 33.6355 36.1462 32.0768 38.9101 29.4487C41.6741 32.0768 45.1967 33.6368 48.9747 33.9199V40.258C48.9747 42.0922 48.474 43.8082 47.6134 45.2902H38.9101V47.8064H45.5452C43.7713 49.3676 41.4527 50.3225 38.9101 50.3225C33.3608 50.3225 28.8456 45.8073 28.8456 40.258ZM42.6843 52.2587V52.3178L38.9101 56.092L35.136 52.3178V52.2587C36.3286 52.6336 37.5955 52.8386 38.9101 52.8386C40.2248 52.8386 41.4917 52.6336 42.6843 52.2587ZM19.8178 59.992C20.5437 57.813 22.3993 56.204 24.66 55.7913L33.4539 54.1936L38.9101 59.6498L44.3651 54.1948L53.1577 55.7926C55.4185 56.2052 57.2741 57.813 58 59.9932L59.8104 65.4193H33.7886L28.8884 60.5191L23.4435 65.4444C22.9692 65.9212 22.1401 65.9212 21.6646 65.4444L18.917 62.6968L19.8178 59.992ZM8.28508 43.9051L14.0546 49.6746L12.6883 51.0409L6.91882 45.2714L8.28508 43.9051ZM30.3452 73.6432C29.1576 74.8283 27.5775 75.4838 25.898 75.4838C24.2185 75.4838 22.6383 74.8283 21.4495 73.6407L4.44673 56.6392C3.25911 55.4516 2.60492 53.8715 2.60492 52.192C2.60492 50.5112 3.25911 48.9311 4.44673 47.7435L5.13866 47.0515L10.9081 52.821L10.8629 52.8663C9.39218 54.3382 9.39218 56.7323 10.8629 58.2043L19.8844 67.2259C20.5978 67.9379 21.5451 68.3317 22.5541 68.3317C23.563 68.3317 24.5103 67.9392 25.1771 67.2699L25.2715 67.1856L31.0674 72.9815L30.3452 73.6432ZM32.9243 71.2781L27.141 65.4948L28.8029 63.9926L34.5761 69.7659L32.9243 71.2781Z" fill="#C90000"/>
<path d="M74.1361 0H56.5232C54.4424 0 52.749 1.69335 52.749 3.77419V13.8387C52.749 15.9195 54.4424 17.6129 56.5232 17.6129H59.8835L58.5827 25.2003L70.723 17.6129H74.1361C76.217 17.6129 77.9103 15.9195 77.9103 13.8387V3.77419C77.9103 1.69335 76.217 0 74.1361 0ZM75.3942 13.8387C75.3942 14.5319 74.8293 15.0968 74.1361 15.0968H70.0009L62.0109 20.09L62.8676 15.0968H56.5232C55.83 15.0968 55.2652 14.5319 55.2652 13.8387V3.77419C55.2652 3.081 55.83 2.51613 56.5232 2.51613H74.1361C74.8293 2.51613 75.3942 3.081 75.3942 3.77419V13.8387Z" fill="#C90000"/>
<path d="M72.8776 5.03223H57.7808V7.54835H72.8776V5.03223Z" fill="#C90000"/>
<path d="M67.8453 10.0645H57.7808V12.5806H67.8453V10.0645Z" fill="#C90000"/>
<path d="M72.8779 10.0645H70.3618V12.5806H72.8779V10.0645Z" fill="#C90000"/>
<path d="M38.9104 3.77417C22.4726 3.77417 8.31304 15.1446 4.63194 31.005L2.24791 27.0307L0.090332 28.3253L4.51243 35.6938L11.8809 31.2717L10.5864 29.1141L7.17701 31.1597C10.7424 16.6505 23.7897 6.2903 38.9104 6.2903C42.2154 6.2903 45.4763 6.78094 48.6026 7.74965L49.3473 5.34675C45.9795 4.30256 42.4682 3.77417 38.9104 3.77417Z" fill="#C90000"/>
<path d="M77.2986 27.8562L69.9302 23.4341L65.5093 30.8038L67.6669 32.0984L69.8685 28.4286C71.0272 31.8191 71.6197 35.3656 71.6197 39.0001C71.6197 46.4818 69.0281 53.7962 64.3242 59.5946L66.278 61.1798C71.3455 54.9348 74.1359 47.0568 74.1359 39.0001C74.1359 35.1517 73.5156 31.3939 72.3066 27.7958L76.0041 30.0138L77.2986 27.8562Z" fill="#C90000"/>
</g>
<defs>
<clipPath id="clip0">
<rect width="78" height="78" fill="white"/>
</clipPath>
</defs>
</svg>
