<svg width="15" height="16" viewBox="0 0 15 16" fill="none" xmlns="http://www.w3.org/2000/svg">
<g clip-path="url(#clip0)">
<path d="M7.25619 4.40623C5.26869 4.40623 3.66557 6.00935 3.66557 7.99685C3.66557 9.98435 5.26869 11.5875 7.25619 11.5875C9.24368 11.5875 10.8468 9.98435 10.8468 7.99685C10.8468 6.00935 9.24368 4.40623 7.25619 4.40623ZM7.25619 10.3312C5.97181 10.3312 4.92182 9.28435 4.92182 7.99685C4.92182 6.70935 5.96869 5.66248 7.25619 5.66248C8.54368 5.66248 9.59056 6.70935 9.59056 7.99685C9.59056 9.28435 8.54056 10.3312 7.25619 10.3312ZM11.8312 4.25935C11.8312 4.72498 11.4562 5.09685 10.9937 5.09685C10.5281 5.09685 10.1562 4.72185 10.1562 4.25935C10.1562 3.79685 10.5312 3.42185 10.9937 3.42185C11.4562 3.42185 11.8312 3.79685 11.8312 4.25935ZM14.2093 5.10935C14.1562 3.98748 13.8999 2.99373 13.078 2.17498C12.2593 1.35623 11.2656 1.09998 10.1437 1.04373C8.98743 0.978101 5.52182 0.978101 4.36557 1.04373C3.24682 1.09685 2.25307 1.3531 1.4312 2.17185C0.609325 2.9906 0.356201 3.98435 0.299951 5.10623C0.234326 6.26248 0.234326 9.7281 0.299951 10.8843C0.353076 12.0062 0.609325 13 1.4312 13.8187C2.25307 14.6375 3.2437 14.8937 4.36557 14.95C5.52182 15.0156 8.98743 15.0156 10.1437 14.95C11.2656 14.8968 12.2593 14.6406 13.078 13.8187C13.8968 13 14.153 12.0062 14.2093 10.8843C14.2749 9.7281 14.2749 6.2656 14.2093 5.10935ZM12.7156 12.125C12.4718 12.7375 11.9999 13.2094 11.3843 13.4562C10.4624 13.8219 8.27493 13.7375 7.25619 13.7375C6.23744 13.7375 4.04682 13.8187 3.12807 13.4562C2.51557 13.2125 2.0437 12.7406 1.79682 12.125C1.4312 11.2031 1.51557 9.0156 1.51557 7.99685C1.51557 6.9781 1.43432 4.78748 1.79682 3.86873C2.04057 3.25623 2.51245 2.78435 3.12807 2.53748C4.04994 2.17185 6.23744 2.25623 7.25619 2.25623C8.27493 2.25623 10.4656 2.17498 11.3843 2.53748C11.9968 2.78123 12.4687 3.2531 12.7156 3.86873C13.0812 4.7906 12.9968 6.9781 12.9968 7.99685C12.9968 9.0156 13.0812 11.2062 12.7156 12.125Z" fill="#A3A3A3"/>
</g>
<defs>
<clipPath id="clip0">
<rect width="14" height="16" fill="white" transform="translate(0.253174)"/>
</clipPath>
</defs>
</svg>
