<svg width="15" height="16" viewBox="0 0 15 16" fill="none" xmlns="http://www.w3.org/2000/svg">
<g clip-path="url(#clip0)">
<path d="M3.38438 14H0.48125V4.65312H3.38438V14ZM1.93125 3.37812C1.00312 3.37812 0.25 2.60938 0.25 1.68125C0.25 0.753125 1.00312 0 1.93125 0C2.85938 0 3.6125 0.753125 3.6125 1.68125C3.6125 2.60938 2.85938 3.37812 1.93125 3.37812ZM14.25 14H11.3531V9.45C11.3531 8.36562 11.3313 6.975 9.84375 6.975C8.33438 6.975 8.10313 8.15312 8.10313 9.37187V14H5.20312V4.65312H7.9875V5.92812H8.02812C8.41562 5.19375 9.3625 4.41875 10.775 4.41875C13.7125 4.41875 14.2531 6.35313 14.2531 8.86563V14H14.25Z" fill="#A3A3A3"/>
</g>
<defs>
<clipPath id="clip0">
<rect width="14.0031" height="16" fill="white" transform="translate(0.25)"/>
</clipPath>
</defs>
</svg>
