<svg width="144" height="18" viewBox="0 0 144 18" fill="none" xmlns="http://www.w3.org/2000/svg">
<g clip-path="url(#clip0)">
<path d="M0.470215 3.28209V13.1679L8.4245 17.5967V7.43412L0.470215 3.28209Z" fill="#3E4042"/>
<path d="M16.1437 3.28209V13.1679L8.42456 17.5967V7.43412L16.1437 3.28209Z" fill="#ACADB0"/>
<path d="M0.470215 3.28208L8.30695 -0.276802L16.1437 3.28208L8.4245 7.43411L0.470215 3.28208Z" fill="#C90000"/>
<path d="M26.9192 2.53076L29.7796 11.5861L32.64 2.53076H36.7151V15.5009H33.6196V12.4561L33.9331 6.24782L30.8376 15.5009H28.8L25.6653 6.24782L25.9788 12.4561V15.5009H22.8833V2.53076H26.9192Z" fill="#0C0404"/>
<path d="M49.6064 9.29264C49.6064 10.558 49.3713 11.6652 48.9011 12.6538C48.4309 13.6424 47.7648 14.3937 46.9028 14.9078C46.0407 15.4218 45.0611 15.6986 43.964 15.6986C42.8668 15.6986 41.8872 15.4614 41.0644 14.9473C40.2023 14.4333 39.5362 13.7215 39.066 12.7724C38.5958 11.8234 38.3607 10.7557 38.3215 9.5299V8.77858C38.3215 7.5132 38.5566 6.36645 39.0268 5.41741C39.497 4.42883 40.1632 3.67751 41.0252 3.16345C41.8872 2.64939 42.8668 2.37259 43.964 2.37259C45.0611 2.37259 46.0407 2.64939 46.8636 3.16345C47.7256 3.67751 48.3917 4.42883 48.8619 5.41741C49.3321 6.36645 49.5672 7.47366 49.5672 8.73904V9.29264H49.6064ZM46.4717 8.73904C46.4717 7.43411 46.2758 6.48508 45.8448 5.81284C45.4138 5.14061 44.7868 4.82427 44.0032 4.82427C42.4358 4.82427 41.613 6.01056 41.5346 8.34361V9.29264C41.5346 10.558 41.7305 11.5466 42.1615 12.2188C42.5926 12.8911 43.2195 13.247 44.0423 13.247C44.826 13.247 45.4138 12.9306 45.8448 12.2584C46.2758 11.5861 46.4717 10.6371 46.4717 9.37173V8.73904Z" fill="#0C0404"/>
<path d="M51.2131 15.5405V2.53076H55.3666C56.5029 2.53076 57.5217 2.80756 58.4229 3.32162C59.3242 3.83569 60.0295 4.58701 60.5389 5.53604C61.0482 6.48508 61.3225 7.55274 61.3225 8.73904V9.33219C61.3225 10.5185 61.0874 11.5861 60.578 12.5352C60.0687 13.4842 59.3633 14.196 58.4621 14.7496C57.5609 15.2637 56.5421 15.5405 55.445 15.5405H51.2131ZM54.3086 4.94289V13.0888H55.4058C56.307 13.0888 56.9731 12.7724 57.4433 12.1398C57.9135 11.5071 58.1486 10.558 58.1486 9.29264V8.73904C58.1486 7.47366 57.9135 6.52462 57.4433 5.89193C56.9731 5.25924 56.2678 4.94289 55.3666 4.94289H54.3086Z" fill="#0C0404"/>
<path d="M72.9993 2.53076V11.0325C72.9993 11.9816 72.8034 12.812 72.3723 13.5238C71.9805 14.2355 71.3928 14.7496 70.6091 15.145C69.8646 15.5009 68.9634 15.6986 67.9054 15.6986C66.3381 15.6986 65.0842 15.3032 64.183 14.4728C63.2817 13.6424 62.8115 12.5352 62.8115 11.1116V2.53076H65.9462V11.1512C65.9854 12.5747 66.6515 13.2865 67.9054 13.2865C68.5323 13.2865 69.0417 13.0888 69.3552 12.7329C69.6687 12.377 69.8646 11.7839 69.8646 10.993V2.53076H72.9993Z" fill="#0C0404"/>
<path d="M78.0538 13.1283H83.4611V15.5405H74.9583V2.53076H78.0538V13.1283Z" fill="#0C0404"/>
<path d="M93.3355 2.53076L96.1959 11.5861L99.0563 2.53076H103.131V15.5009H100.036V12.4561L100.349 6.24782L97.2538 15.5009H95.2163L92.0816 6.24782L92.3951 12.4561V15.5009H89.2996V2.53076H93.3355Z" fill="#0C0404"/>
<path d="M113.123 10.0044H108.225V13.1283H114.024V15.5405H105.169V2.53076H114.024V4.94289H108.225V7.67137H113.123V10.0044Z" fill="#0C0404"/>
<path d="M115.278 15.5405V2.53076H119.432C120.568 2.53076 121.587 2.80756 122.488 3.32162C123.389 3.83569 124.095 4.58701 124.604 5.53604C125.113 6.48508 125.388 7.55274 125.388 8.73904V9.33219C125.388 10.5185 125.153 11.5861 124.643 12.5352C124.134 13.4842 123.429 14.196 122.527 14.7496C121.626 15.2637 120.607 15.5405 119.51 15.5405H115.278ZM118.374 4.94289V13.0888H119.471C120.372 13.0888 121.038 12.7724 121.509 12.1398C121.979 11.5071 122.214 10.558 122.214 9.29264V8.73904C122.214 7.47366 121.979 6.52462 121.509 5.89193C121.038 5.25924 120.333 4.94289 119.432 4.94289H118.374Z" fill="#0C0404"/>
<path d="M130.286 15.5405H127.19V2.53076H130.286V15.5405Z" fill="#0C0404"/>
<path d="M139.886 13.0888H135.615L134.87 15.5009H131.54L136.242 2.53076H139.141L143.882 15.5009H140.669L139.886 13.0888ZM136.398 10.6767H139.18L137.809 6.16873L136.398 10.6767Z" fill="#0C0404"/>
</g>
<defs>
<clipPath id="clip0">
<rect width="144" height="17.2408" fill="white"/>
</clipPath>
</defs>
</svg>
