<svg width="144" height="18" viewBox="0 0 144 18" fill="none" xmlns="http://www.w3.org/2000/svg">
<g clip-path="url(#clip0)">
<path d="M0.470215 3.28209V13.1679L8.4245 17.5967V7.43412L0.470215 3.28209Z" fill="#3E4042"/>
<path d="M16.1436 3.28209V13.1679L8.42444 17.5967V7.43412L16.1436 3.28209Z" fill="#ACADB0"/>
<path d="M0.470215 3.28208L8.30695 -0.276802L16.1437 3.28208L8.4245 7.43411L0.470215 3.28208Z" fill="#C90000"/>
<path d="M26.9192 2.53076L29.7796 11.5861L32.64 2.53076H36.7151V15.5009H33.6196V12.4561L33.9331 6.24782L30.8376 15.5009H28.8L25.6653 6.24782L25.9788 12.4561V15.5009H22.8833V2.53076H26.9192Z" fill="white"/>
<path d="M49.6066 9.29264C49.6066 10.558 49.3715 11.6652 48.9012 12.6538C48.431 13.6424 47.7649 14.3937 46.9029 14.9078C46.0408 15.4218 45.0612 15.6986 43.9641 15.6986C42.867 15.6986 41.8874 15.4614 41.0645 14.9473C40.2025 14.4333 39.5363 13.7215 39.0661 12.7724C38.5959 11.8234 38.3608 10.7557 38.3217 9.5299V8.77858C38.3217 7.5132 38.5568 6.36645 39.027 5.41741C39.4972 4.42883 40.1633 3.67751 41.0253 3.16345C41.8874 2.64939 42.867 2.37259 43.9641 2.37259C45.0612 2.37259 46.0408 2.64939 46.8637 3.16345C47.7257 3.67751 48.3919 4.42883 48.8621 5.41741C49.3323 6.36645 49.5674 7.47366 49.5674 8.73904V9.29264H49.6066ZM46.4719 8.73904C46.4719 7.43411 46.2759 6.48508 45.8449 5.81284C45.4139 5.14061 44.787 4.82427 44.0033 4.82427C42.4359 4.82427 41.6131 6.01056 41.5347 8.34361V9.29264C41.5347 10.558 41.7306 11.5466 42.1617 12.2188C42.5927 12.8911 43.2196 13.247 44.0425 13.247C44.8261 13.247 45.4139 12.9306 45.8449 12.2584C46.2759 11.5861 46.4719 10.6371 46.4719 9.37173V8.73904Z" fill="white"/>
<path d="M51.213 15.5405V2.53076H55.3665C56.5028 2.53076 57.5216 2.80756 58.4228 3.32162C59.324 3.83569 60.0293 4.58701 60.5387 5.53604C61.0481 6.48508 61.3224 7.55274 61.3224 8.73904V9.33219C61.3224 10.5185 61.0873 11.5861 60.5779 12.5352C60.0685 13.4842 59.3632 14.196 58.462 14.7496C57.5608 15.2637 56.542 15.5405 55.4449 15.5405H51.213ZM54.3085 4.94289V13.0888H55.4057C56.3069 13.0888 56.973 12.7724 57.4432 12.1398C57.9134 11.5071 58.1485 10.558 58.1485 9.29264V8.73904C58.1485 7.47366 57.9134 6.52462 57.4432 5.89193C56.973 5.25924 56.2677 4.94289 55.3665 4.94289H54.3085Z" fill="white"/>
<path d="M72.9992 2.53076V11.0325C72.9992 11.9816 72.8032 12.812 72.3722 13.5238C71.9804 14.2355 71.3926 14.7496 70.609 15.145C69.8645 15.5009 68.9632 15.6986 67.9053 15.6986C66.3379 15.6986 65.0841 15.3032 64.1828 14.4728C63.2816 13.6424 62.8114 12.5352 62.8114 11.1116V2.53076H65.9461V11.1512C65.9853 12.5747 66.6514 13.2865 67.9053 13.2865C68.5322 13.2865 69.0416 13.0888 69.3551 12.7329C69.6686 12.377 69.8645 11.7839 69.8645 10.993V2.53076H72.9992Z" fill="white"/>
<path d="M78.0539 13.1283H83.4612V15.5405H74.9584V2.53076H78.0539V13.1283Z" fill="white"/>
<path d="M93.3355 2.53076L96.1959 11.5861L99.0563 2.53076H103.131V15.5009H100.036V12.4561L100.349 6.24782L97.2538 15.5009H95.2163L92.0816 6.24782L92.3951 12.4561V15.5009H89.2996V2.53076H93.3355Z" fill="white"/>
<path d="M113.123 10.0044H108.225V13.1283H114.024V15.5405H105.169V2.53076H114.024V4.94289H108.225V7.67137H113.123V10.0044Z" fill="white"/>
<path d="M115.278 15.5405V2.53076H119.432C120.568 2.53076 121.587 2.80756 122.488 3.32162C123.389 3.83569 124.095 4.58701 124.604 5.53604C125.113 6.48508 125.388 7.55274 125.388 8.73904V9.33219C125.388 10.5185 125.153 11.5861 124.643 12.5352C124.134 13.4842 123.429 14.196 122.527 14.7496C121.626 15.2637 120.607 15.5405 119.51 15.5405H115.278ZM118.374 4.94289V13.0888H119.471C120.372 13.0888 121.038 12.7724 121.509 12.1398C121.979 11.5071 122.214 10.558 122.214 9.29264V8.73904C122.214 7.47366 121.979 6.52462 121.509 5.89193C121.038 5.25924 120.333 4.94289 119.432 4.94289H118.374Z" fill="white"/>
<path d="M130.286 15.5405H127.19V2.53076H130.286V15.5405Z" fill="white"/>
<path d="M139.886 13.0888H135.615L134.87 15.5009H131.54L136.242 2.53076H139.141L143.882 15.5009H140.669L139.886 13.0888ZM136.398 10.6767H139.18L137.809 6.16873L136.398 10.6767Z" fill="white"/>
</g>
<defs>
<clipPath id="clip0">
<rect width="144" height="17.2408" fill="white"/>
</clipPath>
</defs>
</svg>
