<svg width="82" height="82" viewBox="0 0 82 82" fill="none" xmlns="http://www.w3.org/2000/svg">
<g clip-path="url(#clip0)">
<path d="M41.0673 9.60449C29.3632 9.60449 19.8413 19.1266 19.8413 30.8305C19.8413 42.5344 29.3634 52.0565 41.0673 52.0565C52.7712 52.0565 62.2933 42.5345 62.2933 30.8305C62.2933 19.1264 52.7714 9.60449 41.0673 9.60449ZM41.0671 49.5425C30.7494 49.5425 22.3554 41.1484 22.3554 30.8308C22.3554 20.5132 30.7496 12.1188 41.0671 12.1188C51.3847 12.1188 59.779 20.5129 59.779 30.8305C59.779 41.1481 51.3849 49.5425 41.0671 49.5425Z" fill="#C90000"/>
<path d="M53.1048 27.8566L44.7871 26.6481L41.0673 19.1108L37.3475 26.6481L29.0298 27.8566L35.0485 33.7233L33.6277 42.0076L41.0673 38.0964L48.5069 42.0076L47.0861 33.7233L53.1048 27.8566ZM41.0673 35.2559L36.9671 37.4114L37.7501 32.8455L34.433 29.6121L39.0173 28.946L41.0674 24.7921L43.1176 28.946L47.7019 29.6121L44.3848 32.8455L45.1678 37.4114L41.0673 35.2559Z" fill="#C90000"/>
<path d="M12.1523 4.05894V2.12842H9.63805V4.05894H7.70752V6.57323H9.63805V8.50376H12.1523V6.57323H14.0829V4.05894H12.1523Z" fill="#C90000"/>
<path d="M4.44482 55.8126V53.8821H1.93053V55.8126H0V58.3271H1.93053V60.2574H4.44482V58.3271H6.37534V55.8126H4.44482Z" fill="#C90000"/>
<path d="M48.4728 76.1319V74.2014H45.9585V76.1319H44.0278V78.6462H45.9585V80.5768H48.4728V78.6462H50.4033V76.1319H48.4728Z" fill="#C90000"/>
<path d="M79.4543 26.003V23.4575H76.9401V26.003H74.3945V28.5173H76.9401V31.0629H79.4543V28.5173H81.9999V26.003H79.4543Z" fill="#C90000"/>
<path d="M41.067 14.2427C31.9205 14.2427 24.479 21.684 24.479 30.8307C24.479 39.9774 31.9205 47.4186 41.067 47.4186C50.2135 47.4186 57.655 39.9772 57.655 30.8305C57.655 21.6839 50.2139 14.2427 41.067 14.2427ZM41.067 44.9043C33.3068 44.9043 26.9933 38.5907 26.9933 30.8307C26.9933 23.0705 33.3068 16.757 41.067 16.757C48.8272 16.757 55.1407 23.0705 55.1407 30.8307C55.1407 38.5909 48.8274 44.9043 41.067 44.9043Z" fill="#C90000"/>
<path d="M61.3253 50.8746L66.81 49.5368L66.0209 38.9393L72.8862 30.8307L66.0209 22.722L66.81 12.1246L56.4847 9.60616L50.9017 0.560059L41.0668 4.5992L31.2319 0.560059L25.6492 9.60616L15.3239 12.1246L16.113 22.722L9.24776 30.8307L16.113 38.9393L15.3239 49.5368L20.8086 50.8746L3.32422 68.359L14.3889 70.3752L16.4051 81.4399L40.5846 57.2605L41.067 57.0624L41.5493 57.2605L65.7288 81.4399L67.745 70.3752L78.8097 68.359L61.3253 50.8746ZM15.0469 67.9394L8.4939 66.7454L23.6673 51.5719L25.6492 52.0553L27.6649 55.3213L19.3091 63.677L15.0469 67.9394ZM18.0187 76.2702L16.8247 69.7173L29.0219 57.5201L31.2322 61.1015L34.5505 59.7386L18.0187 76.2702ZM41.0668 54.3439L32.251 57.9649L30.849 55.6929L30.7758 55.574L29.4921 53.4941L27.2474 49.8569L22.8894 48.7938L17.9896 47.5987L18.6968 38.0997L12.5423 30.8307L18.6968 23.5615L17.9896 14.0627L27.2471 11.8046L32.2508 3.69656L41.067 7.31737L49.8831 3.69656L54.8868 11.8046L64.1444 14.0627L63.4371 23.5615L69.5916 30.8307L63.4371 38.0997L64.1444 47.5987L59.2447 48.7938L54.8867 49.8569L52.6419 53.4941L51.5969 55.1873L51.2848 55.693L49.8828 57.9649L41.0668 54.3439ZM64.115 76.2702L47.5831 59.7384L49.0724 60.3501L50.9018 61.1014L53.112 57.5201L65.3092 69.7173L64.115 76.2702ZM67.0869 67.9392L62.8247 63.677L54.4688 55.3213L56.4846 52.0553L58.4665 51.5721L73.6399 66.7454L67.0869 67.9392Z" fill="#C90000"/>
</g>
<defs>
<clipPath id="clip0">
<rect width="82" height="82" fill="white" transform="matrix(-1 0 0 1 82 0)"/>
</clipPath>
</defs>
</svg>
