<svg width="75" height="75" viewBox="0 0 75 75" fill="none" xmlns="http://www.w3.org/2000/svg">
<g clip-path="url(#clip0)">
<path d="M70 15C67.2424 15 65 17.2425 65 20C65 22.7574 67.2425 24.9999 70 24.9999C72.7574 24.9999 74.9999 22.7575 74.9999 20C74.9999 17.2425 72.7574 15 70 15ZM70 22.5C68.6212 22.5 67.4999 21.3788 67.4999 20C67.4999 18.6212 68.6211 17.4999 70 17.4999C71.3788 17.4999 72.5 18.6211 72.5 20C72.4999 21.3788 71.3787 22.5 70 22.5Z" fill="#C90000"/>
<path d="M4.99995 56.25C2.24253 56.25 0 58.4925 0 61.25C0 64.0074 2.24253 66.2499 4.99995 66.2499C7.75752 66.2499 9.9999 64.0074 9.9999 61.25C9.9999 58.4925 7.75752 56.25 4.99995 56.25ZM4.99995 63.75C3.62124 63.75 2.4999 62.6288 2.4999 61.25C2.4999 59.8711 3.62109 58.7499 4.99995 58.7499C6.37866 58.7499 7.5 59.8711 7.5 61.25C7.5 62.6288 6.37881 63.75 4.99995 63.75Z" fill="#C90000"/>
<path d="M67.5764 16.58L56.7927 11.3738C56.1701 11.0725 55.4239 11.335 55.1239 11.9563C54.8239 12.5776 55.0851 13.3251 55.7065 13.6251L66.4902 18.8313C66.6653 18.9163 66.8503 18.9563 67.0327 18.9563C67.4976 18.9563 67.944 18.6962 68.1588 18.2487C68.4588 17.6275 68.1977 16.88 67.5764 16.58Z" fill="#C90000"/>
<path d="M56.25 65C53.4924 65 51.25 67.2425 51.25 69.9999C51.25 72.7574 53.4924 75 56.25 75C59.0075 75 61.2499 72.7575 61.2499 70.0001C61.2499 67.2427 59.0075 65 56.25 65ZM56.25 72.5C54.8712 72.5 53.7499 71.3788 53.7499 69.9999C53.7499 68.6211 54.8712 67.5 56.25 67.5C57.6287 67.5 58.75 68.6212 58.75 70.0001C58.75 71.379 57.6287 72.5 56.25 72.5Z" fill="#C90000"/>
<path d="M53.8264 66.5802L43.0427 61.374C42.4201 61.0727 41.6739 61.334 41.3739 61.9565C41.0739 62.5778 41.3351 63.3253 41.9565 63.6253L52.7402 68.8315C52.9153 68.9165 53.1003 68.9564 53.2827 68.9564C53.7476 68.9564 54.194 68.6964 54.409 68.2489C54.7089 67.6275 54.4477 66.8802 53.8264 66.5802Z" fill="#C90000"/>
<path d="M37.5 33.75C34.7424 33.75 32.5 35.9925 32.5 38.7499C32.5 41.5075 34.7425 43.7499 37.5 43.7499C40.2575 43.7499 42.4999 41.5074 42.4999 38.7499C42.4999 35.9925 40.2575 33.75 37.5 33.75ZM37.5 41.25C36.1212 41.25 34.9999 40.1288 34.9999 38.7499C34.9999 37.3712 36.1211 36.2499 37.5 36.2499C38.8787 36.2499 40 37.3711 40 38.7499C40 40.1288 38.8787 41.25 37.5 41.25Z" fill="#C90000"/>
<path d="M35.3023 35.47L27.0186 29.0137C26.4735 28.5924 25.6887 28.6862 25.2636 29.2312C24.8398 29.7763 24.936 30.5612 25.4811 30.9863L33.7648 37.4426C33.9936 37.6201 34.2636 37.7064 34.5324 37.7064C34.9049 37.7064 35.2724 37.5414 35.5198 37.2252C35.9436 36.68 35.8474 35.895 35.3023 35.47Z" fill="#C90000"/>
<path d="M60 32.5C52.4187 32.5 46.25 38.6687 46.25 46.25C46.25 53.8313 52.4187 60.0001 60 60.0001C67.5813 60.0001 73.7501 53.8313 73.7501 46.25C73.7501 38.6687 67.5813 32.5 60 32.5ZM60 57.4999C53.7963 57.4999 48.75 52.4537 48.75 46.2499C48.75 40.0461 53.7963 34.9999 60 34.9999C66.2038 34.9999 71.25 40.0461 71.25 46.2499C71.25 52.4537 66.2038 57.4999 60 57.4999Z" fill="#C90000"/>
<path d="M60 37.5C57.2424 37.5 55 39.7425 55 42.5C55 45.2575 57.2425 47.4999 60 47.4999C62.7575 47.4999 64.9999 45.2574 64.9999 42.5C64.9999 39.7425 62.7575 37.5 60 37.5ZM60 45C58.6212 45 57.4999 43.8788 57.4999 42.5C57.4999 41.1212 58.6211 39.9999 60 39.9999C61.3787 39.9999 62.5 41.1211 62.5 42.5C62.5 43.8788 61.3787 45 60 45Z" fill="#C90000"/>
<path d="M63.6262 50H56.3738C54.2376 50 52.5 51.6913 52.5 53.7687V57.0638C52.5 57.51 52.7375 57.9225 53.1237 58.1463C55.2187 59.3587 57.5962 60 60 60C62.4038 60 64.7812 59.3587 66.8763 58.1463C67.2625 57.9238 67.5 57.51 67.5 57.0651V53.7701C67.5 51.6913 65.7625 50 63.6262 50ZM64.9999 56.3187C61.8888 57.8687 58.1112 57.8687 54.9999 56.3187V53.7701C54.9999 53.07 55.6162 52.5 56.3736 52.5H63.6261C64.3835 52.5 64.9998 53.07 64.9998 53.7701V56.3187H64.9999Z" fill="#C90000"/>
<path d="M30 47.5C22.4187 47.5 16.25 53.6687 16.25 61.25C16.25 68.8313 22.4187 74.9999 30 74.9999C37.5813 74.9999 43.7501 68.8312 43.7501 61.2499C43.7501 53.6686 37.5813 47.5 30 47.5ZM30 72.4999C23.7963 72.4999 18.75 67.4537 18.75 61.2499C18.75 55.0461 23.7963 49.9999 30 49.9999C36.2038 49.9999 41.25 55.0461 41.25 61.2499C41.25 67.4537 36.2038 72.4999 30 72.4999Z" fill="#C90000"/>
<path d="M30 52.5C27.2424 52.5 25 54.7425 25 57.5C25 60.2575 27.2425 62.4999 30 62.4999C32.7574 62.4999 34.9999 60.2574 34.9999 57.5C34.9999 54.7425 32.7575 52.5 30 52.5ZM30 60C28.6212 60 27.4999 58.8788 27.4999 57.5C27.4999 56.1212 28.6211 54.9999 30 54.9999C31.3787 54.9999 32.5 56.1211 32.5 57.5C32.5 58.8788 31.3787 60 30 60Z" fill="#C90000"/>
<path d="M33.6262 65H26.3738C24.2376 65 22.5 66.6913 22.5 68.7687V72.0638C22.5 72.51 22.7375 72.9225 23.1237 73.1463C25.2187 74.3587 27.5962 75 30 75C32.4038 75 34.7812 74.3587 36.8763 73.1463C37.2625 72.9238 37.5 72.5101 37.5 72.0651V68.7701C37.5 66.6913 35.7625 65 33.6262 65ZM34.9999 71.3187C31.8886 72.8687 28.1112 72.8687 24.9999 71.3187V68.7701C24.9999 68.07 25.6162 67.5 26.3736 67.5H33.6261C34.3835 67.5 34.9998 68.07 34.9998 68.7701V71.3187H34.9999Z" fill="#C90000"/>
<path d="M13.75 16.25C6.16875 16.25 0 22.4188 0 30.0001C0 37.5814 6.16875 43.7501 13.75 43.7501C21.3314 43.7501 27.5001 37.5814 27.5001 30.0001C27.5 22.4188 21.3312 16.25 13.75 16.25ZM13.75 41.2501C7.54629 41.2501 2.50005 36.2038 2.50005 30.0001C2.50005 23.7963 7.54629 18.75 13.75 18.75C19.9538 18.75 25.0001 23.7963 25.0001 30.0001C25.0001 36.2038 19.9538 41.2501 13.75 41.2501Z" fill="#C90000"/>
<path d="M13.7499 21.25C10.9924 21.25 8.75 23.4925 8.75 26.2499C8.75 29.0074 10.9925 31.2499 13.7499 31.2499C16.5075 31.2499 18.7499 29.0074 18.7499 26.2499C18.7499 23.4925 16.5074 21.25 13.7499 21.25ZM13.7499 28.75C12.3712 28.75 11.2499 27.6288 11.2499 26.2499C11.2499 24.8711 12.3711 23.7499 13.7499 23.7499C15.1287 23.7499 16.25 24.8711 16.25 26.2499C16.25 27.6288 15.1287 28.75 13.7499 28.75Z" fill="#C90000"/>
<path d="M17.3762 33.75H10.1238C7.9876 33.75 6.25 35.4413 6.25 37.5187V40.8138C6.25 41.26 6.48745 41.6725 6.87373 41.8963C8.96875 43.1087 11.3462 43.75 13.75 43.75C16.1538 43.75 18.5312 43.1087 20.6263 41.8963C21.0125 41.6738 21.25 41.26 21.25 40.8151V37.5201C21.25 35.4413 19.5124 33.75 17.3762 33.75ZM18.7499 40.0688C15.6388 41.6187 11.8612 41.6187 8.7499 40.0688V37.5201C8.7499 36.82 9.36616 36.25 10.1236 36.25H17.3761C18.1335 36.25 18.7498 36.82 18.7498 37.5201V40.0688H18.7499Z" fill="#C90000"/>
<path d="M43.75 0C36.1687 0 30 6.16875 30 13.75C30 21.3313 36.1687 27.5001 43.75 27.5001C51.3313 27.5001 57.5001 21.3313 57.5001 13.75C57.4999 6.16875 51.3312 0 43.75 0ZM43.75 25C37.5463 25 32.5 19.9538 32.5 13.75C32.5 7.54629 37.5463 2.50005 43.75 2.50005C49.9538 2.50005 55 7.54629 55 13.75C55 19.9538 49.9538 25 43.75 25Z" fill="#C90000"/>
<path d="M43.75 5C40.9924 5 38.75 7.24253 38.75 9.99995C38.75 12.7574 40.9925 14.9999 43.75 14.9999C46.5074 14.9999 48.7499 12.7575 48.7499 10.0001C48.7499 7.24268 46.5074 5 43.75 5ZM43.75 12.5C42.3712 12.5 41.2499 11.3788 41.2499 9.99995C41.2499 8.62124 42.3711 7.4999 43.75 7.4999C45.1288 7.4999 46.25 8.62109 46.25 9.99995C46.2499 11.3788 45.1287 12.5 43.75 12.5Z" fill="#C90000"/>
<path d="M47.3762 17.5H40.1238C37.9876 17.5 36.25 19.1913 36.25 21.2687V24.5638C36.25 25.01 36.4875 25.4225 36.8737 25.6463C38.9688 26.8587 41.3462 27.5 43.75 27.5C46.1538 27.5 48.5312 26.8587 50.6263 25.6463C51.0125 25.4238 51.25 25.01 51.25 24.5651V21.2701C51.25 19.1912 49.5124 17.5 47.3762 17.5ZM48.7499 23.8187C45.6388 25.3687 41.8612 25.3687 38.7499 23.8187V21.2701C38.7499 20.57 39.3662 20 40.1236 20H47.3761C48.1335 20 48.7498 20.57 48.7498 21.2701V23.8187H48.7499Z" fill="#C90000"/>
<path d="M32.2011 12.9362C31.7524 12.4137 30.9636 12.3511 30.4386 12.7999L21.7761 20.2125C21.2511 20.6612 21.1899 21.45 21.6385 21.975C21.8861 22.2637 22.236 22.4125 22.5885 22.4125C22.876 22.4125 23.1648 22.3138 23.401 22.1112L32.0635 14.6987C32.5887 14.25 32.6499 13.4612 32.2011 12.9362Z" fill="#C90000"/>
<path d="M59.75 33.0013L52.25 23.0013C51.8362 22.4475 51.0525 22.3387 50.4999 22.7512C49.9474 23.165 49.8362 23.9487 50.2499 24.4999L57.7499 34.5C57.9961 34.8275 58.3711 34.9999 58.7511 34.9999C59.0111 34.9999 59.275 34.9186 59.5 34.7499C60.0525 34.3362 60.1638 33.5525 59.75 33.0013Z" fill="#C90000"/>
<path d="M49.4913 50.3837C49.0774 49.8312 48.2938 49.72 47.7412 50.1337L40.7587 55.3699C40.2062 55.7837 40.095 56.5674 40.5087 57.1186C40.7549 57.4462 41.1299 57.6186 41.5099 57.6186C41.7711 57.6186 42.0336 57.5361 42.2587 57.3685L49.2412 52.1323C49.7938 51.7188 49.9051 50.935 49.4913 50.3837Z" fill="#C90000"/>
<path d="M17.5 60H8.74995C8.06001 60 7.5 60.5587 7.5 61.2499C7.5 61.9412 8.06001 62.4999 8.74995 62.4999H17.4999C18.1898 62.4999 18.7499 61.9412 18.7499 61.2499C18.7499 60.5587 18.19 60 17.5 60Z" fill="#C90000"/>
<path d="M13.7501 0C10.9925 0 8.75 2.24253 8.75 4.99995C8.75 7.75752 10.9925 9.9999 13.7499 9.9999C16.5075 9.9999 18.7499 7.75737 18.7499 4.99995C18.75 2.24253 16.5075 0 13.7501 0ZM13.7501 7.5C12.3714 7.5 11.25 6.37881 11.25 4.99995C11.25 3.62124 12.3712 2.4999 13.7501 2.4999C15.1288 2.4999 16.2501 3.62109 16.2501 4.99995C16.25 6.37881 15.1288 7.5 13.7501 7.5Z" fill="#C90000"/>
<path d="M13.75 7.5C13.06 7.5 12.5 8.05869 12.5 8.74995V17.4999C12.5 18.1912 13.06 18.7499 13.75 18.7499C14.4399 18.7499 14.9999 18.1912 14.9999 17.4999V8.74995C14.9999 8.05869 14.4399 7.5 13.75 7.5Z" fill="#C90000"/>
</g>
<defs>
<clipPath id="clip0">
<rect width="75" height="75" fill="white"/>
</clipPath>
</defs>
</svg>
