<svg width="96" height="96" viewBox="0 0 96 96" fill="none" xmlns="http://www.w3.org/2000/svg">
<path d="M78.0387 15.7048L77.0309 8.50633C76.9801 8.14389 76.7864 7.81689 76.4928 7.59827C76.1994 7.37983 75.8307 7.28795 75.4687 7.34345L67.5382 8.55808C66.791 8.67245 66.2782 9.37089 66.3926 10.1179C66.5069 10.8651 67.2057 11.3783 67.9524 11.2635L72.5737 10.5557C66.3937 18.1961 59.747 24.7043 52.7853 29.9188C46.7276 34.4563 40.4195 38.0327 34.0364 40.549C23.1729 44.8313 15.7546 44.55 15.6817 44.5474C14.9253 44.5091 14.2872 45.0938 14.2507 45.8479C14.2139 46.6028 14.7961 47.2444 15.551 47.2811C15.5956 47.2832 15.7824 47.2913 16.1026 47.2913C18.0744 47.2913 25.0891 46.9886 34.8686 43.1623C41.5001 40.5677 48.0444 36.8756 54.32 32.1885C61.5316 26.8022 68.4054 20.0764 74.7815 12.1783L75.3282 16.0843C75.4241 16.7685 76.0102 17.2631 76.6818 17.2631C76.7448 17.2631 76.8089 17.2588 76.8732 17.2498C77.6217 17.145 78.1436 16.4533 78.0387 15.7048Z" fill="white"/>
<path d="M93.4749 81.1395H82.4164C83.3267 80.5343 84.1839 79.8349 84.9744 79.0442C88.0905 75.9281 89.8065 71.7851 89.8065 67.3785C89.8065 62.9717 88.0905 58.8287 84.9744 55.7128C83.8644 54.6028 82.6322 53.6889 81.3234 52.962V47.4375C81.3234 46.6817 80.7107 46.0691 79.9551 46.0691C79.1992 46.0691 78.5867 46.6819 78.5867 47.4375V51.7466C74.841 50.4786 70.7738 50.5993 67.1162 52.084V35.2749C67.1162 35.0979 67.2602 34.954 67.4372 34.954H78.2657C78.4427 34.954 78.5867 35.0979 78.5867 35.2749V38.6715C78.5867 39.4273 79.1994 40.0399 79.9551 40.0399C80.7109 40.0399 81.3234 39.4271 81.3234 38.6715V35.2749C81.3234 33.5888 79.9517 32.217 78.2655 32.217H67.437C65.7508 32.217 64.3791 33.5888 64.3791 35.2749V53.5078C63.4097 54.132 62.4906 54.8648 61.6431 55.7124C58.527 58.8285 56.811 62.9715 56.811 67.3781C56.811 71.7849 58.527 75.9279 61.6431 79.0438C62.4336 79.8343 63.2908 80.5339 64.2011 81.1391H55.5598V47.6918C55.5598 46.0056 54.1881 44.6338 52.5019 44.6338H41.6736C39.9874 44.6338 38.6156 46.0056 38.6156 47.6918V81.1395H29.7962V58.9487C29.7962 57.2625 28.4244 55.8908 26.7383 55.8908H15.9097C14.2236 55.8908 12.8518 57.2625 12.8518 58.9487V81.1395H7.215V10.764C7.215 9.37164 6.08231 8.23895 4.68994 8.23895H2.52506C1.13269 8.23895 0 9.37164 0 10.764V20.4791C0 21.235 0.61275 21.8475 1.36837 21.8475C2.124 21.8475 2.73675 21.2348 2.73675 20.4791V10.9759H4.47787V81.3514C4.47787 82.7438 5.61075 83.8764 7.00294 83.8764H93.2629V85.9358H2.73694V29.1266C2.73694 28.3708 2.12419 27.7583 1.36856 27.7583C0.612937 27.7583 0 28.3708 0 29.1266V86.1474C0 87.5398 1.13269 88.6725 2.52506 88.6725H93.4749C94.8673 88.6725 96 87.5398 96 86.1474V83.6644C96 82.2722 94.8673 81.1395 93.4749 81.1395ZM27.0592 81.1395H15.5887V58.9487C15.5887 58.7717 15.7327 58.6277 15.9097 58.6277H26.7383C26.9153 58.6277 27.0592 58.7717 27.0592 58.9487V81.1395ZM41.3524 81.1395V47.6918C41.3524 47.5148 41.4964 47.3708 41.6734 47.3708H52.5017C52.6787 47.3708 52.8227 47.5148 52.8227 47.6918V81.1395H41.3524ZM79.3539 79.7404C77.9679 80.4182 76.4619 80.8586 74.928 81.042C74.9021 81.045 74.8764 81.0486 74.8506 81.0516C74.7458 81.0636 74.6409 81.0737 74.5359 81.0833C74.3758 81.0973 74.2155 81.1101 74.0544 81.1185C74.0036 81.1213 73.9528 81.1228 73.902 81.1251C73.7049 81.1333 73.5073 81.1395 73.3088 81.1395C73.1096 81.1395 72.9116 81.1333 72.714 81.1251C72.6516 81.1224 72.5889 81.1194 72.5267 81.1159C72.3776 81.1076 72.2291 81.0962 72.0808 81.0833C71.9578 81.0722 71.835 81.0593 71.7124 81.0448C71.6246 81.0347 71.5371 81.0244 71.4499 81.0126C71.3252 80.9955 71.2009 80.9775 71.0768 80.9571C71.0606 80.9544 71.0445 80.9514 71.0284 80.9486C69.4138 80.6775 67.8546 80.1208 66.432 79.299C66.4245 79.2947 66.4166 79.2919 66.4091 79.2878C65.388 78.6939 64.4357 77.9665 63.5783 77.1088C60.9791 74.5097 59.5478 71.0541 59.5478 67.3783C59.5478 63.7026 60.9791 60.2469 63.5783 57.6478C64.5735 56.6526 65.685 55.8429 66.8689 55.2169C66.9023 55.1991 66.936 55.1822 66.9696 55.1648C68.9501 54.1384 71.1291 53.6239 73.3088 53.6239C75.0512 53.6239 76.7934 53.9531 78.4341 54.609C78.4626 54.6204 78.4912 54.6313 78.5196 54.6429C78.69 54.7123 78.8589 54.7864 79.0269 54.8629C79.0939 54.8934 79.1606 54.9253 79.2272 54.957C80.6064 55.6125 81.8992 56.5078 83.0391 57.6476C88.4044 63.0131 88.4044 71.7431 83.0391 77.1086C81.9604 78.1879 80.7322 79.062 79.4038 79.7198C79.3873 79.7271 79.3703 79.7323 79.3539 79.7404Z" fill="white"/>
<path d="M73.9448 66.0536V61.1796C75.6256 61.2996 76.2499 62.068 76.8261 62.068C77.5465 62.068 77.8827 61.1556 77.8827 60.6994C77.8827 59.5228 75.5777 59.0186 73.945 58.9706V58.3223C73.945 58.0341 73.585 57.7701 73.2248 57.7701C72.8166 57.7701 72.5284 58.0341 72.5284 58.3223V59.0186C70.2473 59.2588 67.9664 60.4594 67.9664 63.4847C67.9664 66.558 70.3675 67.4224 72.5284 68.1908V73.8332C70.0793 73.6412 69.4311 71.9605 68.6387 71.9605C68.0384 71.9605 67.5342 72.7526 67.5342 73.329C67.5342 74.5056 69.5511 76.1143 72.5284 76.1623H72.5282V76.9065C72.5282 77.1947 72.8164 77.4587 73.2246 77.4587C73.5846 77.4587 73.9448 77.1947 73.9448 76.9065V76.0901C76.5379 75.73 78.3147 74.0972 78.3147 71.1439C78.3147 67.8784 76.0337 66.822 73.9448 66.0536ZM72.6726 65.5975C71.3999 65.1173 70.3675 64.6131 70.3677 63.2445C70.3677 61.9958 71.3281 61.3956 72.6726 61.2276V65.5975ZM73.801 73.7852V68.719C74.9776 69.2231 75.9139 69.8953 75.9139 71.4081C75.9139 72.7768 75.0976 73.5452 73.801 73.7852Z" fill="#C90000"/>
</svg>
