<svg width="480" height="480" viewBox="0 0 480 480" fill="none" xmlns="http://www.w3.org/2000/svg">
<path d="M435 240H360V180C360 146.906 386.906 120 420 120H427.5C439.969 120 450 109.969 450 97.5V52.5C450 40.0312 439.969 30 427.5 30H420C337.125 30 270 97.125 270 180V405C270 429.844 290.156 450 315 450H435C459.844 450 480 429.844 480 405V285C480 260.156 459.844 240 435 240ZM165 240H90V180C90 146.906 116.906 120 150 120H157.5C169.969 120 180 109.969 180 97.5V52.5C180 40.0312 169.969 30 157.5 30H150C67.125 30 0 97.125 0 180V405C0 429.844 20.1562 450 45 450H165C189.844 450 210 429.844 210 405V285C210 260.156 189.844 240 165 240Z" fill="url(#paint0_linear)"/>
<defs>
<linearGradient id="paint0_linear" x1="240" y1="30" x2="240" y2="450" gradientUnits="userSpaceOnUse">
<stop stop-color="#DA0917" stop-opacity="0.15"/>
<stop offset="1" stop-color="#DA0917" stop-opacity="0.05"/>
</linearGradient>
</defs>
</svg>
