<svg width="71" height="71" viewBox="0 0 71 71" fill="none" xmlns="http://www.w3.org/2000/svg">
<path d="M64.9194 21.8904H61.9299V19.968L63.7951 17.9137C64.7635 16.8474 65.2967 15.4669 65.2967 14.0263V9.15465C65.2967 5.74817 62.5252 2.97681 59.1187 2.97681H56.277C52.8706 2.97681 50.0992 5.74831 50.0992 9.15465V14.0263C50.0992 15.4669 50.6325 16.8475 51.6006 17.9137L53.4662 19.9683V21.8904H50.4767C47.5723 21.8904 45.1382 23.9378 44.5386 26.6649C44.2334 26.6222 43.9222 26.5986 43.6055 26.5986H40.1037V24.247L42.2398 21.8947C43.3077 20.7185 43.896 19.1958 43.896 17.607V12.1199C43.896 8.35742 40.8351 5.29679 37.0728 5.29679C36.4831 5.29679 36.0054 5.77452 36.0054 6.36415C36.0054 6.95379 36.4831 7.43151 37.0728 7.43151C39.658 7.43151 41.7613 9.53461 41.7613 12.1199V17.6069C41.7613 18.664 41.3699 19.677 40.6595 20.4595L38.4599 22.8819C38.1648 23.0718 37.9693 23.4031 37.9693 23.7803V27.6661C37.9693 28.2558 38.447 28.7335 39.0366 28.7335H43.6057C46.1305 28.7335 48.1848 30.7876 48.1848 33.3126V40.0102H22.7603V33.3126C22.7603 31.344 24.0091 29.6619 25.7559 29.016C25.8379 28.9988 25.9162 28.9715 25.9901 28.9365C26.4168 28.8048 26.8699 28.7334 27.3392 28.7334H31.9083C32.4978 28.7334 32.9757 28.2556 32.9757 27.666V23.7801C32.9757 23.4031 32.7802 23.0716 32.4851 22.8818L30.2854 20.4593C29.5749 19.6768 29.1834 18.6637 29.1834 17.6067V12.1199C29.1834 9.53475 31.2865 7.43151 33.8719 7.43151C34.4614 7.43151 34.9393 6.95379 34.9393 6.36415C34.9393 5.77452 34.4614 5.29679 33.8719 5.29679C30.1095 5.29679 27.0487 8.35756 27.0487 12.1199V17.6069C27.0487 19.1955 27.6369 20.7182 28.7049 21.8946L30.8407 24.2468V26.5985H27.3389C27.0407 26.5985 26.7475 26.62 26.4595 26.658C25.8574 23.9343 23.4252 21.8904 20.5232 21.8904H17.5337V19.968L19.399 17.9137C20.3673 16.8474 20.9005 15.4669 20.9005 14.0263V9.15465C20.9005 5.74817 18.129 2.97681 14.7225 2.97681H11.8812C8.47467 2.97681 5.70331 5.74831 5.70331 9.15465V14.0263C5.70331 15.4669 6.2365 16.8475 7.20485 17.9137L9.07027 19.9682V21.8904H6.08077C2.72782 21.8904 0 24.6183 0 27.9712V34.8654C0 35.4551 0.477864 35.9328 1.06736 35.9328H17.6745C18.264 35.9328 18.7418 35.4551 18.7418 34.8654C18.7418 34.2758 18.264 33.7981 17.6745 33.7981H2.13472V27.9712C2.13472 25.7954 3.90487 24.0252 6.08077 24.0252H10.1376C10.7271 24.0252 11.205 23.5474 11.205 22.9578V19.5076C11.205 19.1364 11.0154 18.8094 10.7278 18.6182L8.78516 16.4788C8.17431 15.8061 7.83789 14.9352 7.83789 14.0265V9.15465C7.83789 6.92522 9.65158 5.11153 11.881 5.11153H14.7227C16.9521 5.11153 18.7659 6.92522 18.7659 9.15465V14.0263C18.7659 14.9351 18.4295 15.8061 17.8187 16.4786L15.8759 18.6182C15.5884 18.8094 15.399 19.1364 15.399 19.5075V22.9577C15.399 23.5473 15.8769 24.025 16.4663 24.025H20.5232C22.4611 24.025 24.0761 25.4296 24.4063 27.2741C22.1699 28.3646 20.6254 30.661 20.6254 33.3122V41.0771C20.6254 41.6667 21.1033 42.1445 21.6928 42.1445H49.2519C49.8415 42.1445 50.3193 41.6667 50.3193 41.0771V33.3122C50.3193 30.6814 48.7976 28.4005 46.5888 27.3C46.9085 25.4429 48.5296 24.025 50.4767 24.025H54.5335C55.1231 24.025 55.6009 23.5473 55.6009 22.9577V19.5075C55.6009 19.1361 55.4113 18.8091 55.1236 18.6179L53.181 16.4786C52.5702 15.8061 52.2339 14.9351 52.2339 14.0263V9.15465C52.2339 6.92522 54.0476 5.11153 56.277 5.11153H59.1187C61.3481 5.11153 63.162 6.92522 63.162 9.15465V14.0263C63.162 14.9351 62.8256 15.8061 62.2147 16.4786L60.272 18.6182C59.9844 18.8094 59.795 19.1364 59.795 19.5075V22.9577C59.795 23.5473 60.2727 24.025 60.8624 24.025H64.9192C67.095 24.025 68.8653 25.7952 68.8653 27.9711V33.7979H53.5091C52.9195 33.7979 52.4418 34.2757 52.4418 34.8653C52.4418 35.4549 52.9195 35.9327 53.5091 35.9327H69.9326C70.5223 35.9327 71 35.4549 71 34.8653V27.9711C71.0001 24.6183 68.2723 21.8904 64.9194 21.8904Z" fill="#C90000"/>
<path d="M45.4318 55.6722C45.3087 55.2925 44.9838 55.0133 44.5897 54.9486L38.7591 53.9914L36.0471 48.7419C35.8639 48.3873 35.4981 48.1643 35.0988 48.1643C34.6996 48.1643 34.3338 48.387 34.1506 48.7419L31.4386 53.9914L25.608 54.9486C25.214 55.0133 24.8891 55.2923 24.7657 55.6722C24.6423 56.0518 24.7411 56.4685 25.0218 56.7525L29.1761 60.9539L28.2846 66.7948C28.2244 67.1894 28.3893 67.5848 28.7124 67.8193C28.8982 67.9543 29.1185 68.0233 29.3399 68.0233C29.5033 68.0233 29.6675 67.9857 29.8189 67.9096L35.0986 65.2568L40.3782 67.9096C40.735 68.0889 41.162 68.0542 41.4847 67.8193C41.8078 67.5848 41.9727 67.1894 41.9125 66.7948L41.0208 60.9539L45.1752 56.7525C45.4565 56.4685 45.5553 56.0518 45.4318 55.6722ZM39.1264 59.8341C38.8892 60.0742 38.7795 60.4122 38.8302 60.7456L39.491 65.0741L35.5782 63.1083C35.2766 62.9569 34.9213 62.9569 34.6199 63.1083L30.7071 65.0741L31.3677 60.7456C31.4186 60.412 31.3088 60.0739 31.0715 59.8341L27.9924 56.7204L32.3135 56.0112C32.6464 55.9564 32.934 55.7475 33.0888 55.4478L35.0987 51.5573L37.1085 55.4478C37.2634 55.7475 37.5508 55.9564 37.8838 56.0112L42.2048 56.7204L39.1264 59.8341Z" fill="#C90000"/>
<path d="M22.0676 47.8238C21.9442 47.4441 21.6196 47.1649 21.2257 47.1002L15.3951 46.1431L12.683 40.8935C12.4998 40.5389 12.134 40.3159 11.7347 40.3159C11.3354 40.3159 10.9697 40.5386 10.7865 40.8935L8.07448 46.1431L2.24373 47.1002C1.84977 47.1649 1.52486 47.4439 1.40144 47.8238C1.27802 48.2035 1.37676 48.6203 1.65757 48.9042L5.81205 53.1055L4.92038 58.9465C4.8602 59.3412 5.02508 59.7365 5.34819 59.971C5.67129 60.2057 6.09813 60.2408 6.45465 60.0613L11.7343 57.4085L17.014 60.0613C17.1654 60.1374 17.3296 60.175 17.493 60.175C17.7146 60.175 17.9348 60.1062 18.1205 59.971C18.4436 59.7365 18.6084 59.3412 18.5483 58.9465L17.6566 53.1055L21.8111 48.9042C22.0923 48.6203 22.191 48.2035 22.0676 47.8238ZM15.7622 51.9859C15.5249 52.2258 15.4152 52.564 15.466 52.8974L16.1268 57.226L12.214 55.2602C12.0631 55.1845 11.8991 55.1465 11.7347 55.1465C11.5704 55.1465 11.4062 55.1845 11.2555 55.2602L7.34271 57.226L8.00348 52.8974C8.05424 52.5637 7.94455 52.2256 7.70728 51.9859L4.62834 48.8723L8.94937 48.1631C9.28246 48.1083 9.56992 47.8993 9.72468 47.5997L11.7345 43.7092L13.7444 47.5997C13.8993 47.8993 14.1867 48.1083 14.5197 48.1631L18.8406 48.8723L15.7622 51.9859Z" fill="#C90000"/>
<path d="M68.7967 47.8239C68.6734 47.4441 68.3484 47.1649 67.9544 47.1002L62.1238 46.1431L59.4118 40.8935C59.2285 40.5389 58.8628 40.3159 58.4634 40.3159C58.0641 40.3159 57.6984 40.5386 57.5151 40.8935L54.8033 46.1432L48.9727 47.1003C48.5787 47.1651 48.2538 47.4441 48.1304 47.8239C48.007 48.2036 48.1059 48.6204 48.3865 48.9043L52.541 53.1056L51.6495 58.9467C51.5893 59.3413 51.7542 59.7367 52.0773 59.9712C52.4003 60.2058 52.8271 60.2409 53.1838 60.0614L58.4634 57.4086L63.743 60.0614C63.8944 60.1376 64.0586 60.1751 64.2219 60.1751C64.4434 60.1751 64.6637 60.1064 64.8494 59.9712C65.1725 59.7367 65.3374 59.3413 65.2772 58.9467L64.3857 53.1056L68.54 48.9043C68.8211 48.6203 68.9201 48.2036 68.7967 47.8239ZM62.491 51.9859C62.2538 52.2258 62.1439 52.564 62.1948 52.8974L62.8555 57.226L58.9428 55.2602C58.7921 55.1843 58.6279 55.1465 58.4636 55.1465C58.2992 55.1465 58.1351 55.1845 57.9843 55.2602L54.0715 57.226L54.7323 52.8974C54.7832 52.5637 54.6734 52.2256 54.4361 51.9859L51.3576 48.8723L55.6786 48.1631C56.0116 48.1083 56.2992 47.8993 56.4541 47.5997L58.4639 43.7092L60.4736 47.5997C60.6285 47.8993 60.9161 48.1083 61.2491 48.1631L65.5701 48.8723L62.491 51.9859Z" fill="#C90000"/>
</svg>
