<svg width="14" height="16" viewBox="0 0 14 16" fill="none" xmlns="http://www.w3.org/2000/svg">
<path d="M13.2719 9.36875C13.3625 8.93125 13.4187 8.46562 13.4187 8C13.4187 4.45312 10.5469 1.58438 7.00313 1.58438C6.5375 1.58438 6.075 1.6375 5.63438 1.73125C5.04063 1.27188 4.30313 1 3.5 1C1.56875 1 0 2.56875 0 4.5C0 5.30313 0.271875 6.04062 0.728125 6.63125C0.6375 7.06875 0.58125 7.53438 0.58125 8C0.58125 11.5469 3.45312 14.4156 6.99687 14.4156C7.4625 14.4156 7.925 14.3625 8.36563 14.2688C8.95938 14.725 9.69687 14.9969 10.4969 14.9969C12.4281 14.9969 13.9969 13.4281 13.9969 11.4969C14 10.6969 13.7281 9.95937 13.2719 9.36875V9.36875ZM7.19063 12.2281C5.14063 12.2281 3.425 11.3156 3.425 10.1969C3.425 9.69687 3.70625 9.24063 4.34688 9.24063C5.32188 9.24063 5.4125 10.6438 7.1 10.6438C7.90312 10.6438 8.42188 10.2875 8.42188 9.82187C8.42188 9.2375 7.92188 9.14687 7.10938 8.94687C5.15625 8.46562 3.42812 8.25938 3.42812 6.22188C3.42812 4.37188 5.25938 3.6875 6.8375 3.6875C8.55938 3.6875 10.3 4.37187 10.3 5.41875C10.3 5.94687 9.94375 6.4125 9.35312 6.4125C8.46875 6.4125 8.44063 5.36562 7.00938 5.36562C6.20625 5.36562 5.69688 5.58437 5.69688 6.06875C5.69688 6.6875 6.34687 6.75 7.85625 7.1C9.15 7.39062 10.6906 7.9375 10.6906 9.525C10.6906 11.3719 8.90625 12.2281 7.19063 12.2281V12.2281Z" fill="#A3A3A3"/>
</svg>
