<svg width="89" height="89" viewBox="0 0 89 89" fill="none" xmlns="http://www.w3.org/2000/svg">
<path d="M60.9184 24.6701C60.9184 24.1283 60.416 23.7053 60.0196 23.7053C59.9271 23.7053 59.8345 23.7185 59.7684 23.7714L56.4112 25.9522C56.1072 26.1506 56.0015 26.4677 56.0015 26.6924C56.0015 26.9172 56.1072 27.2344 56.4112 27.4328L59.7684 29.6136C59.8345 29.6664 59.927 29.6797 60.0196 29.6797C60.416 29.6797 60.9184 29.2567 60.9184 28.7147C60.9184 28.4901 60.8259 28.2917 60.6805 28.1992L58.3541 26.6924L60.6805 25.1856C60.8257 25.0931 60.9184 24.8949 60.9184 24.6701Z" fill="#C90000"/>
<path d="M67.5668 20.1497C67.3289 20.1497 67.1174 20.2553 67.0117 20.48L62.3724 30.0097C62.3327 30.089 62.3062 30.1815 62.3062 30.2609C62.3062 30.5912 62.597 30.9614 63.0465 30.9614C63.2977 30.9614 63.5488 30.8291 63.6413 30.631L68.2939 21.1012C68.3334 21.0219 68.3467 20.9294 68.3467 20.8501C68.3466 20.4272 67.9369 20.1497 67.5668 20.1497Z" fill="#C90000"/>
<path d="M74.2421 25.9522L70.8849 23.7714C70.8189 23.7185 70.7264 23.7053 70.6338 23.7053C70.2372 23.7053 69.7349 24.1283 69.7349 24.6701C69.7349 24.8949 69.8273 25.0931 69.9729 25.1856L72.2991 26.6924L69.9729 28.1992C69.8273 28.2917 69.7349 28.4901 69.7349 28.7147C69.7349 29.2567 70.2372 29.6797 70.6338 29.6797C70.7262 29.6797 70.8189 29.6664 70.8849 29.6136L74.2421 27.4328C74.5462 27.2344 74.6518 26.9173 74.6518 26.6924C74.6518 26.4678 74.5462 26.1506 74.2421 25.9522Z" fill="#C90000"/>
<path d="M75.8897 13.289H52.8448C51.6542 10.1804 48.6392 7.96753 45.1168 7.96753H29.6601C25.0993 7.96753 21.3887 11.6781 21.3887 16.239V25.6309C20.4668 26.4254 20.0377 27.6682 20.2649 28.9189L20.8724 32.2627C21.0907 33.4106 21.7005 34.0009 22.1736 34.2937C22.7024 34.621 23.2894 34.7292 23.8282 34.7316L23.8284 35.3259C23.8284 38.3408 25.5872 41.6634 28.6539 44.4418C29.2313 44.9648 29.8317 45.447 30.4436 45.8832V47.6755C30.4436 48.2218 30.0537 48.6906 29.5166 48.7905C29.4918 48.795 29.4669 48.8006 29.4425 48.8069C29.4238 48.8117 27.5865 49.2907 25.1849 49.9718H17.3365C16.454 49.9718 15.603 50.3422 15.0015 50.988C14.4002 51.6337 14.0912 52.5091 14.154 53.3893L14.1756 53.6918C10.6649 55.4519 8.45653 58.608 8.24604 62.1953C8.24518 62.2103 8.24461 62.2253 8.24432 62.2402L8.0003 76.9732C7.98731 78.0535 8.3983 79.0718 9.15749 79.8403C9.91696 80.609 10.9302 81.0323 12.0107 81.0323H62.7663C63.8468 81.0323 64.86 80.609 65.6193 79.8404C66.3786 79.0718 66.7896 78.0536 66.7765 76.9685L66.5326 62.2402C66.5323 62.2253 66.5317 62.2103 66.5309 62.1953C66.3144 58.5045 63.983 55.27 60.2943 53.543C60.2263 53.5111 60.1557 53.4787 60.0826 53.4458L60.0866 53.3894C60.1493 52.5092 59.8403 51.6339 59.2391 50.9881C58.6376 50.3424 57.7865 49.9719 56.9042 49.9719H49.5921C47.1907 49.2908 45.3531 48.8119 45.3345 48.807C45.31 48.8008 45.2853 48.7952 45.2605 48.7906C44.7232 48.6909 44.3335 48.2221 44.3335 47.6757V45.8833C44.9454 45.4472 45.5457 44.965 46.1231 44.442C48.0722 42.6762 49.493 40.6906 50.2697 38.7038H57.2234L56.0089 43.6063C55.8064 44.4239 56.1309 45.2504 56.8358 45.7115C57.1668 45.9281 57.5379 46.0356 57.9077 46.0356C58.3257 46.0356 58.7418 45.8983 59.0961 45.6261L68.1076 38.7038H75.8896C78.7094 38.7038 81.0036 36.4097 81.0036 33.5899V18.4029C81.0037 15.5831 78.7096 13.289 75.8897 13.289ZM50.9508 27.4801C51.3598 27.3405 51.7473 27.2836 52 27.2605C52.3358 27.5586 52.4945 28.0501 52.4063 28.5361L51.8021 31.8627C51.7139 32.3271 51.5355 32.4374 51.4768 32.4736C51.3525 32.5505 51.1693 32.5902 50.9497 32.5925L50.9508 27.4801ZM23.5293 16.239C23.5293 12.8584 26.2796 10.1081 29.6601 10.1081H45.1169C48.4974 10.1081 51.2479 12.8583 51.2479 16.239V25.2062C50.7181 25.2999 50.0586 25.4794 49.4149 25.8227V19.3014C49.4149 16.9561 47.5069 15.0481 45.1616 15.0481H42.2692C41.2666 15.0481 40.2869 15.3976 39.5105 16.0322L39.2271 16.2641C38.7098 16.6871 38.0567 16.92 37.3883 16.92C36.72 16.92 36.067 16.6871 35.5499 16.2642L35.266 16.0321C34.4898 15.3976 33.5102 15.048 32.5075 15.048H29.6153C27.27 15.048 25.362 16.9559 25.362 19.3013V25.8226C24.7183 25.4792 24.0589 25.2996 23.529 25.2061V16.239H23.5293ZM23.3002 32.4738C23.2416 32.4375 23.0633 32.3272 22.9766 31.8714L22.3708 28.5364C22.2826 28.0506 22.4409 27.5597 22.7762 27.2613C23.0288 27.2842 23.4165 27.3404 23.8261 27.4798L23.8275 32.5926C23.608 32.5904 23.4247 32.5507 23.3002 32.4738ZM13.8304 78.1166C13.8304 78.3848 13.8669 78.6447 13.935 78.8917H12.0107C11.5068 78.8917 11.0345 78.6944 10.6804 78.3359C10.3264 77.9776 10.1347 77.5028 10.1407 77.0039L10.3843 62.2989C10.5423 59.7289 11.9666 57.5012 14.3432 56.0442L15.65 74.3777C15.674 74.7142 15.7504 75.0359 15.8709 75.3351C14.6894 75.7077 13.8304 76.8137 13.8304 78.1166ZM58.5907 74.3778L59.9185 55.7485C62.6038 57.1894 64.2236 59.5483 64.3927 62.2988L64.6362 76.9992C64.6422 77.5028 64.4505 77.9776 64.0966 78.3359C63.7426 78.6944 63.2701 78.8917 62.7663 78.8917H60.8421C60.9103 78.6449 60.9467 78.3848 60.9467 78.1166C60.9467 76.6377 59.84 75.4127 58.4114 75.2258C58.508 74.9581 58.5697 74.6737 58.5907 74.3778ZM58.8061 78.1166C58.8061 78.544 58.4584 78.8917 58.0311 78.8917H16.746C16.3186 78.8917 15.9709 78.544 15.9709 78.1166C15.9709 77.6893 16.3187 77.3415 16.746 77.3415H58.0313C58.4585 77.3417 58.8061 77.6893 58.8061 78.1166ZM57.6726 52.4468C57.8734 52.6626 57.9726 52.9432 57.9515 53.2372L56.4555 74.2257C56.4167 74.7726 55.9566 75.201 55.4082 75.201H18.8324C18.284 75.201 17.8241 74.7726 17.785 74.2256L16.289 53.2373C16.268 52.9432 16.3671 52.6626 16.568 52.447C16.7689 52.2312 17.0418 52.1125 17.3365 52.1125H56.9043C57.1987 52.1125 57.4719 52.2312 57.6726 52.4468ZM43.1332 49.9719H31.6437C32.2293 49.3763 32.584 48.5611 32.584 47.6757V47.1968C34.2718 48.0702 35.9486 48.5604 37.3885 48.5604C38.8284 48.5604 40.5051 48.0704 42.1929 47.1968V47.6757C42.1929 48.5611 42.5477 49.3763 43.1332 49.9719ZM44.686 42.8557C42.2961 45.0208 39.4317 46.4199 37.3885 46.4199C35.3454 46.4199 32.4809 45.0208 30.0911 42.8557C27.4713 40.4822 25.9688 37.7379 25.9688 35.3257L25.967 28.5825C25.9808 28.5829 25.9946 28.5831 26.0085 28.5831C26.202 28.5831 26.3974 28.5453 26.5839 28.4673C27.1421 28.2344 27.5027 27.6933 27.5027 27.089V19.3014C27.5027 18.1365 28.4504 17.1887 29.6155 17.1887H32.5077C33.0178 17.1887 33.5163 17.3665 33.911 17.6893L34.195 17.9215C35.0936 18.656 36.2277 19.0605 37.3883 19.0605C38.5489 19.0605 39.6832 18.656 40.5821 17.9213L40.8655 17.6894C41.2605 17.3665 41.7589 17.1887 42.2691 17.1887H45.1614C46.3263 17.1887 47.2742 18.1365 47.2742 19.3014V27.0891C47.2742 27.6934 47.6348 28.2346 48.1931 28.4675C48.3928 28.551 48.6029 28.5885 48.8098 28.5828L48.8081 35.326C48.8083 37.7377 47.3056 40.4822 44.686 42.8557ZM78.8631 33.5899C78.8631 35.2294 77.5293 36.5633 75.8897 36.5633H67.7442C67.5084 36.5633 67.2791 36.6412 67.0923 36.7847L58.2149 43.6039L59.6303 37.891C59.7095 37.5715 59.6371 37.2333 59.4342 36.974C59.2314 36.7148 58.9205 36.5633 58.5914 36.5633H50.8535C50.9166 36.1467 50.9488 35.7337 50.9488 35.3263L50.949 34.7318C51.4878 34.7294 52.0748 34.6212 52.6038 34.2938C53.0767 34.0009 53.6866 33.4108 53.9065 32.2541L54.5123 28.9189C54.7395 27.668 54.3101 26.4249 53.3885 25.6311V16.239C53.3885 15.966 53.3752 15.696 53.3491 15.4296H75.8897C77.5293 15.4296 78.8631 16.7634 78.8631 18.4029V33.5899Z" fill="#C90000"/>
<path d="M37.3868 68.5268C39.6055 68.5268 41.4104 66.7219 41.4104 64.5033C41.4104 62.2847 39.6055 60.4797 37.3868 60.4797C35.1682 60.4797 33.3633 62.2847 33.3633 64.5033C33.3633 66.7219 35.1682 68.5268 37.3868 68.5268ZM37.3868 62.6203C38.4252 62.6203 39.2698 63.465 39.2698 64.5033C39.2698 65.5416 38.4252 66.3863 37.3868 66.3863C36.3485 66.3863 35.5039 65.5416 35.5039 64.5033C35.5039 63.465 36.3485 62.6203 37.3868 62.6203Z" fill="#C90000"/>
</svg>
