<svg width="70" height="70" viewBox="0 0 70 70" fill="none" xmlns="http://www.w3.org/2000/svg">
<path d="M1.05857 57.1609C0.492697 57.1609 0.0341797 57.6195 0.0341797 58.1853V68.9072C0.0341797 70.2284 2.08296 70.2284 2.08296 68.9072V58.1853C2.08296 57.6195 1.62444 57.1609 1.05857 57.1609Z" fill="#C90000"/>
<path d="M68.9415 34.0582H60.8974V30.3646H63.3575C64.855 30.3646 66.0732 29.1464 66.0732 27.6488V2.71586C66.0732 1.21834 64.855 0 63.3575 0H25.1398C23.6423 0 22.4241 1.21834 22.4241 2.71586V6.39397C22.4241 7.71516 24.4729 7.71516 24.4729 6.39397V2.71586C24.4729 2.34804 24.772 2.04878 25.1398 2.04878H63.3576C63.7253 2.04878 64.0246 2.34804 64.0246 2.71586V22.5793H60.8976V11.6652C60.8976 11.3272 60.7308 11.011 60.4519 10.82C60.1731 10.6291 59.818 10.588 59.5028 10.7101C59.2348 10.814 53.5832 13.122 52.3804 22.5792H24.4729V11.7207C24.4729 10.3995 22.4241 10.3995 22.4241 11.7207V27.6488C22.4241 29.1464 23.6423 30.3646 25.1398 30.3646H38.9002V34.0582H15.6412C17.9102 31.7917 18.1317 28.2027 18.1317 25.1872C18.1317 24.6214 17.6732 24.1628 17.1074 24.1628H11.5756V22.2289C14.8619 22.9274 18.4442 20.2325 18.4004 16.8139C18.3945 16.3561 18.3377 15.8909 17.9147 15.6116C15.9689 14.3273 13.2891 14.8624 11.5756 16.2649V14.417C14.5031 12.3965 14.7205 7.6384 11.9074 5.41752C11.624 5.1938 11.3104 4.98086 10.974 4.84373C9.53014 4.25422 7.94302 6.82599 7.59896 7.81869C6.78614 10.1644 7.52138 12.8622 9.52673 14.3508V16.2535C8.21182 15.1836 6.49453 14.656 4.81685 14.992C4.12355 15.1309 2.90862 15.4447 2.75742 16.2851C2.10755 19.9013 6.20415 22.929 9.52686 22.2319V24.1628H3.5854C3.01953 24.1628 2.56101 24.6214 2.56101 25.1872C2.56101 28.1985 2.72436 31.792 4.99305 34.0582H1.05857C0.492697 34.0582 0.0341797 34.5169 0.0341797 35.0826V68.9073C0.0341797 70.2285 2.08296 70.2285 2.08296 68.9073V64.1268H20.5903V68.9073C20.5903 70.2285 22.6391 70.2285 22.6391 68.9073V42.8195H58.8635C58.8689 43.1764 58.903 45.0989 58.9073 45.675H41.5706C37.5207 45.675 34.5201 46.7291 32.6519 48.8081C30.4089 51.3041 30.7042 54.3297 30.7179 54.4571C30.7737 54.9777 31.2129 55.3724 31.7365 55.3724H44.9708V57.2163H40.9415C39.6203 57.2163 39.6203 59.2651 40.9415 59.2651H44.9708V67.8829H31.8586C30.5374 67.8829 30.5374 69.9317 31.8586 69.9317H45.6298C45.7434 69.9751 45.8662 70 45.9952 70C46.1241 70 46.2469 69.9751 46.3605 69.9317H60.1317C61.4529 69.9317 61.4529 67.8829 60.1317 67.8829H47.0195V55.3725H53.8633C56.215 55.3725 57.915 54.8056 59.0606 53.6393C61.0683 51.5953 61.0071 48.1728 60.9297 43.8397C60.9237 43.5045 60.9178 43.1636 60.9126 42.8194H67.9171V52.4488C67.9171 53.77 69.9659 53.77 69.9659 52.4488V35.0826C69.9659 34.5169 69.5074 34.0582 68.9415 34.0582ZM13.2865 17.5507C14.6048 16.7142 15.7517 16.9113 16.3489 17.1222C16.1686 19.2457 13.587 20.7909 11.6138 20.122C11.6965 19.4649 12.0301 18.3478 13.2865 17.5507ZM6.47746 19.6815C5.60714 19.1293 4.86684 18.1784 4.7711 17.1217C6.82261 16.4005 9.23512 17.9983 9.50241 20.122C8.50739 20.4594 7.34969 20.2348 6.47746 19.6815ZM10.6041 6.98894C12.3196 8.29387 12.2427 11.2721 10.5981 12.5963C10.0907 12.179 9.32526 11.3013 9.32526 9.80437C9.32513 8.2432 10.1061 7.38039 10.6041 6.98894ZM4.62427 26.2116H16.0675C15.8941 31.7453 14.2425 33.9286 10.3462 33.9286C6.3966 33.9288 4.79036 31.8157 4.62427 26.2116ZM57.599 52.2036C56.8586 52.9574 55.6367 53.3237 53.8633 53.3237H32.7823C32.8771 52.5059 33.1929 51.2714 34.1759 50.1775C35.639 48.5493 38.1269 47.7237 41.5707 47.7237H58.881C58.7963 49.7314 58.4929 51.2937 57.599 52.2036ZM64.0244 24.6281V27.649C64.0244 28.0168 63.7253 28.3159 63.3575 28.3159H60.8974V24.6281H64.0244ZM57.2465 15.2099C57.8043 14.473 58.3651 13.9246 58.8487 13.5269V39.1862C58.3668 38.7733 57.8101 38.2102 57.2562 37.4622C55.26 34.7662 54.2048 30.8994 54.2048 26.2797C54.2048 21.6668 55.2567 17.8389 57.2465 15.2099ZM52.4315 30.3647C52.6271 31.7435 52.9168 32.9703 53.2698 34.0584H49.597V30.3647H52.4315ZM24.4729 27.6488V24.628H52.1987C52.1347 25.8562 52.142 27.0886 52.2218 28.3158H25.1398C24.772 28.3159 24.4729 28.0167 24.4729 27.6488ZM40.949 30.3647H47.5483V34.0584H40.949V30.3647ZM54.0743 36.107C55.1417 38.388 56.4667 39.8615 57.5388 40.7707H2.08296V36.107H54.0743ZM2.08296 62.078V53.4732H20.5903V62.078H2.08296ZM20.5903 51.4244H2.08296V42.8195H20.5903V51.4244ZM60.8974 40.7707V36.107H67.9171V40.7707H60.8974Z" fill="#C90000"/>
<path d="M54.7365 48.1464H62.5219C63.8431 48.1464 63.8431 46.0977 62.5219 46.0977H54.7365C53.4153 46.0977 53.4153 48.1464 54.7365 48.1464Z" fill="#C90000"/>
<path d="M62.5219 56.7512H54.7365C53.4153 56.7512 53.4153 58.8 54.7365 58.8H62.5219C63.8431 58.8 63.8431 56.7512 62.5219 56.7512Z" fill="#C90000"/>
</svg>
