<svg width="283" height="356" viewBox="0 0 283 356" fill="none" xmlns="http://www.w3.org/2000/svg">
<g clip-path="url(#clip0)">
<path d="M257.2 233.6C256.4 233.6 255.6 233.4 254.9 233L241.3 224.9L242.1 223.5L255.7 231.6C256.6 232.1 257.7 232.1 258.6 231.6L280.7 218.7C281.1 218.5 281.3 218.1 281.3 217.7C281.3 217.3 281.1 216.9 280.7 216.7L251.2 201L252 199.6L281.5 215.4C282.4 215.9 282.9 216.7 282.9 217.7C282.9 218.7 282.4 219.6 281.6 220.1L259.4 233C258.7 233.4 257.9 233.6 257.2 233.6Z" fill="#B2D3EA"/>
<path d="M202.2 355.9C201.2 355.9 200.3 355.7 199.4 355.2L145.3 325C144.5 324.6 144 323.7 144 322.8C144 321.9 144.5 321.1 145.3 320.6L169.8 306.8C170.2 306.6 170.2 306.2 170.2 306.1C170.2 306 170.2 305.6 169.8 305.4L142.5 289.7C141.7 289.3 141.3 288.5 141.3 287.6C141.3 286.7 141.7 285.9 142.4 285.5L153.5 278.4L154.4 279.7L143.3 286.8C142.9 287 142.9 287.4 142.9 287.5C142.9 287.6 143 288 143.3 288.2L170.6 303.9C171.4 304.3 171.8 305.1 171.8 306C171.8 306.9 171.3 307.7 170.6 308.1L146 322C145.6 322.2 145.5 322.6 145.5 322.8C145.5 323 145.5 323.3 146 323.6L200.2 353.8C201.5 354.5 203.1 354.5 204.3 353.7L225 341C225.2 340.9 225.2 340.7 225.2 340.7C225.2 340.6 225.2 340.5 225 340.4L210.1 331.3L210.9 329.9L225.8 339C226.4 339.4 226.8 340 226.8 340.7C226.8 341.4 226.4 342 225.9 342.4L205.3 355.1C204.3 355.6 203.3 355.9 202.2 355.9Z" fill="#B2D3EA"/>
<path d="M225.7 234.4L199.6 219.3C198 218.4 198.2 216.8 200 215.7L225.2 201.1C227.1 200 229.9 199.9 231.5 200.8L257.6 215.9C259.2 216.8 259 218.4 257.2 219.5L232 234.1C230.1 235.2 227.3 235.3 225.7 234.4Z" fill="#B2D3EA"/>
<path d="M266.3 204.5V193.2H241L232.3 188.1C230.3 186.9 226.8 187.1 224.5 188.4L216.3 193.1H191V204.7C190.9 205.5 191.4 206.2 192.3 206.8L225 225.7C227 226.9 230.5 226.7 232.8 225.4L264.4 207.2C265.7 206.4 266.3 205.4 266.3 204.5Z" fill="#396CAA"/>
<path d="M228.6 187.4C227.1 187.4 225.6 187.8 224.4 188.5L216.2 193.2H190.9V204.8C190.8 205.6 191.3 206.3 192.2 206.9L224.9 225.8C225.9 226.4 227.2 226.6 228.5 226.6V187.4H228.6Z" fill="#396CAA"/>
<path d="M193.7 193.2H190.8V204.8C190.7 205.6 191.2 206.3 192.1 206.9L193.6 207.8V193.2H193.7Z" fill="#5793CE"/>
<path d="M225.4 226C227.1 226.7 229.6 226.7 231.7 225.9V212.7H225.4V226Z" fill="#5793CE"/>
<path d="M224.9 214.2L192.2 195.3C190.2 194.1 190.4 192.1 192.8 190.8L224.4 172.6C226.7 171.3 230.2 171.1 232.2 172.3L264.9 191.2C266.9 192.4 266.7 194.4 264.3 195.7L232.7 213.9C230.4 215.2 226.9 215.3 224.9 214.2Z" fill="#D4ECFF"/>
<path d="M225.5 210.8L198.1 195C196.4 194 196.6 192.3 198.6 191.2L225.1 175.9C227 174.8 230 174.7 231.7 175.6L259.1 191.4C260.8 192.4 260.6 194.1 258.6 195.2L232.1 210.5C230.1 211.6 227.2 211.8 225.5 210.8Z" fill="#5793CE"/>
<path d="M254.2 207.5C254.2 208.3 253.6 209.4 252.9 209.8C252.2 210.2 251.6 209.9 251.6 209C251.6 208.2 252.2 207.1 252.9 206.7C253.6 206.3 254.2 206.6 254.2 207.5Z" fill="#D4ECFF"/>
<path d="M258.5 205C258.5 205.8 257.9 206.9 257.2 207.3C256.5 207.7 255.9 207.4 255.9 206.5C255.9 205.7 256.5 204.6 257.2 204.2C257.9 203.8 258.5 204.2 258.5 205Z" fill="#D4ECFF"/>
<path d="M262.7 202.6C262.7 203.4 262.1 204.5 261.4 204.9C260.7 205.3 260.1 205 260.1 204.1C260.1 203.3 260.7 202.2 261.4 201.8C262.1 201.4 262.7 201.7 262.7 202.6Z" fill="#D4ECFF"/>
<path d="M266.3 186.4V175.1H241L232.3 170C230.3 168.8 226.8 169 224.5 170.3L216.3 175H191V186.6C190.9 187.4 191.4 188.1 192.3 188.7L225 207.6C227 208.8 230.5 208.6 232.8 207.3L264.4 189.1C265.7 188.4 266.3 187.4 266.3 186.4Z" fill="#396CAA"/>
<path d="M228.6 169.3C227.1 169.3 225.6 169.7 224.4 170.4L216.2 175.1H190.9V186.7C190.8 187.5 191.3 188.2 192.2 188.8L224.9 207.7C225.9 208.3 227.2 208.5 228.5 208.5V169.3H228.6Z" fill="#396CAA"/>
<path d="M193.7 175.1H190.8V186.7C190.7 187.5 191.2 188.2 192.1 188.8L193.6 189.7V175.1H193.7Z" fill="#5793CE"/>
<path d="M225.4 208C227.1 208.7 229.6 208.7 231.7 207.9V194.7H225.4V208Z" fill="#5793CE"/>
<path d="M224.9 196.1L192.2 177.2C190.2 176 190.4 174 192.8 172.7L224.4 154.5C226.7 153.2 230.2 153 232.2 154.2L264.9 173.1C266.9 174.3 266.7 176.3 264.3 177.6L232.7 195.8C230.4 197.2 226.9 197.3 224.9 196.1Z" fill="#D4ECFF"/>
<path d="M225.5 192.7L198.1 176.9C196.4 175.9 196.6 174.2 198.6 173.1L225.1 157.8C227 156.7 230 156.6 231.7 157.5L259.1 173.3C260.8 174.3 260.6 176 258.6 177.1L232.1 192.4C230.1 193.6 227.2 193.7 225.5 192.7Z" fill="#5793CE"/>
<path d="M254.2 189.4C254.2 190.2 253.6 191.3 252.9 191.7C252.2 192.1 251.6 191.8 251.6 190.9C251.6 190.1 252.2 189 252.9 188.6C253.6 188.2 254.2 188.6 254.2 189.4Z" fill="#D4ECFF"/>
<path d="M258.5 187C258.5 187.8 257.9 188.9 257.2 189.3C256.5 189.7 255.9 189.4 255.9 188.5C255.9 187.7 256.5 186.6 257.2 186.2C257.9 185.8 258.5 186.1 258.5 187Z" fill="#D4ECFF"/>
<path d="M262.7 184.5C262.7 185.3 262.1 186.4 261.4 186.8C260.7 187.2 260.1 186.9 260.1 186C260.1 185.2 260.7 184.1 261.4 183.7C262.1 183.3 262.7 183.7 262.7 184.5Z" fill="#D4ECFF"/>
<path d="M266.3 168.4V157.1H241L232.3 152C230.3 150.8 226.8 151 224.5 152.3L216.3 157H191V168.6C190.9 169.4 191.4 170.1 192.3 170.7L225 189.6C227 190.8 230.5 190.6 232.8 189.3L264.4 171.1C265.7 170.3 266.3 169.3 266.3 168.4Z" fill="#396CAA"/>
<path d="M228.6 151.3C227.1 151.3 225.6 151.7 224.4 152.4L216.2 157.1H190.9V168.7C190.8 169.5 191.3 170.2 192.2 170.8L224.9 189.7C225.9 190.3 227.2 190.5 228.5 190.5V151.3H228.6Z" fill="#396CAA"/>
<path d="M193.7 157.1H190.8V168.7C190.7 169.5 191.2 170.2 192.1 170.8L193.6 171.7V157.1H193.7Z" fill="#5793CE"/>
<path d="M225.4 189.9C227.1 190.6 229.6 190.6 231.7 189.8V176.6H225.4V189.9Z" fill="#5793CE"/>
<path d="M224.9 178.1L192.2 159.2C190.2 158 190.4 156 192.8 154.7L224.4 136.5C226.7 135.2 230.2 135 232.2 136.2L264.9 155.1C266.9 156.3 266.7 158.3 264.3 159.6L232.7 177.8C230.4 179.1 226.9 179.3 224.9 178.1Z" fill="#D4ECFF"/>
<path d="M264.3 157.3L232.7 175.5C230.4 176.8 226.9 177 224.9 175.8L192.2 157C191.8 156.7 191.4 156.4 191.2 156.1C190.5 157.2 190.8 158.4 192.2 159.2L224.9 178.1C226.9 179.3 230.4 179.1 232.7 177.8L264.3 159.6C266.1 158.6 266.6 157.1 265.9 156C265.6 156.4 265.1 156.9 264.3 157.3Z" fill="white"/>
<path d="M254.2 171.4C254.2 172.2 253.6 173.3 252.9 173.7C252.2 174.1 251.6 173.8 251.6 172.9C251.6 172.1 252.2 171 252.9 170.6C253.6 170.2 254.2 170.5 254.2 171.4Z" fill="#D4ECFF"/>
<path d="M258.5 168.9C258.5 169.7 257.9 170.8 257.2 171.2C256.5 171.6 255.9 171.3 255.9 170.4C255.9 169.6 256.5 168.5 257.2 168.1C257.9 167.7 258.5 168.1 258.5 168.9Z" fill="#D4ECFF"/>
<path d="M262.7 166.5C262.7 167.3 262.1 168.4 261.4 168.8C260.7 169.2 260.1 168.9 260.1 168C260.1 167.2 260.7 166.1 261.4 165.7C262.1 165.3 262.7 165.6 262.7 166.5Z" fill="#D4ECFF"/>
<path d="M226.9 166.4L211.6 157.6C210.7 157.1 210.8 156.1 211.9 155.5L226.7 147C227.8 146.4 229.4 146.3 230.4 146.8L245.7 155.6C246.6 156.1 246.5 157.1 245.4 157.7L230.6 166.2C229.4 166.9 227.8 166.9 226.9 166.4Z" fill="#4553C7"/>
<path d="M228.3 159L226.2 157.8C226.1 157.7 226.1 157.6 226.2 157.5L228.2 156.3C228.4 156.2 228.6 156.2 228.7 156.3L230.8 157.5C230.9 157.6 230.9 157.7 230.8 157.8L228.8 159C228.7 159.1 228.4 159.1 228.3 159Z" fill="#D4ECFF"/>
<path d="M211.5 157.6C211.6 157.6 211.7 157.5 211.8 157.5L226.6 149C227.7 148.4 229.3 148.3 230.3 148.8L245.6 157.6C246.5 157 246.5 156.1 245.6 155.6L230.3 146.8C229.4 146.3 227.7 146.3 226.6 147L211.8 155.5C210.7 156.1 210.6 157 211.5 157.6Z" fill="#396CAA"/>
<path d="M166.8 288.5L110.3 256.3C108.2 255.1 108.5 253 110.9 251.6L143.4 232.8C145.8 231.4 149.4 231.3 151.5 232.5L208 264.7C210.1 265.9 209.8 268 207.4 269.4L174.9 288.2C172.5 289.6 168.9 289.7 166.8 288.5Z" fill="#B2D3EA"/>
<path d="M213 254V122.1L160.6 108.4L150.9 102.8C148.7 101.5 144.8 101.7 142.3 103.2L133.3 108.4H105.3L113.6 235.7C113.5 236.6 114 237.4 115.1 238L167.4 277.5C169.6 278.8 173.5 278.6 176 277.1L210.9 257C212.3 256.1 213 255 213 254Z" fill="#4553C7"/>
<path d="M146.9 102C145.3 102 143.6 102.4 142.3 103.2L133.3 108.4H105.3V240.6C105.2 241.5 105.7 242.3 106.8 242.9L167.4 277.4C168.5 278 169.9 278.3 171.4 278.3L172 145.3L146.9 102Z" fill="#D4ECFF"/>
<path d="M167.9 277.7C169.8 278.5 172.6 278.5 174.8 277.6V143.7H167.9V277.7Z" fill="#5793CE"/>
<path d="M167.4 145.3L106.8 110.8C104.6 109.5 104.9 107.3 107.4 105.8L142.3 85.6999C144.9 84.1999 148.7 84.1 150.9 85.3L211.5 119.8C213.7 121.1 213.4 123.3 210.9 124.8L176 144.9C173.4 146.4 169.6 146.6 167.4 145.3Z" fill="#D4ECFF"/>
<path d="M210.9 122.4L176 142.5C173.4 144 169.6 144.1 167.4 142.9L106.8 108.4C106.3 108.1 105.9 107.8 105.7 107.4C104.9 108.6 105.3 110 106.8 110.8L167.4 145.3C169.6 146.6 173.5 146.4 176 144.9L210.9 124.8C212.9 123.7 213.5 122 212.6 120.8C212.2 121.4 211.7 121.9 210.9 122.4Z" fill="#FAFDFF"/>
<path d="M169.1 131.3L128.8 107.9C127.8 107.3 127.9 106.3 129.1 105.6L145.4 96.1999C146.6 95.4999 148.4 95.3999 149.4 95.9999L189.7 119.4C190.7 120 190.6 121 189.4 121.7L173.1 131.1C171.9 131.8 170.1 131.9 169.1 131.3Z" fill="#242993"/>
<path d="M147.3 109L145 107.7C144.9 107.6 144.9 107.5 145 107.4L147.3 106.1C147.5 106 147.7 106 147.9 106.1L150.2 107.4C150.3 107.5 150.3 107.6 150.2 107.7L147.9 109C147.7 109 147.4 109 147.3 109Z" fill="#242993"/>
<path d="M155.1 113.4L152.8 112.1C152.7 112 152.7 111.9 152.8 111.8L155.1 110.5C155.3 110.4 155.5 110.4 155.7 110.5L158 111.8C158.1 111.9 158.1 112 158 112.1L155.7 113.4C155.5 113.5 155.2 113.5 155.1 113.4Z" fill="#242993"/>
<path d="M162.9 117.9L160.6 116.6C160.5 116.5 160.5 116.4 160.6 116.3L162.9 115C163.1 114.9 163.3 114.9 163.5 115L165.8 116.3C165.9 116.4 165.9 116.5 165.8 116.6L163.5 117.9C163.3 118 163.1 118 162.9 117.9Z" fill="#242993"/>
<path d="M170.7 122.4L168.4 121.1C168.3 121 168.3 120.9 168.4 120.8L170.7 119.5C170.9 119.4 171.1 119.4 171.3 119.5L173.6 120.8C173.7 120.9 173.7 121 173.6 121.1L171.3 122.4C171.1 122.5 170.9 122.5 170.7 122.4Z" fill="#242993"/>
<path d="M128.7 107.9C128.8 107.9 128.9 107.8 129 107.8L145.3 98.3999C146.5 97.6999 148.3 97.5999 149.3 98.1999L189.6 121.6C190.6 120.9 190.6 120 189.6 119.4L149.4 95.9999C148.4 95.3999 146.6 95.4999 145.4 96.1999L129.1 105.6C127.8 106.3 127.7 107.3 128.7 107.9Z" fill="#242993"/>
<path d="M182.8 171.4L205.7 158.3C207 157.6 208 155.6 208 153.8V145.6C208 143.9 207 143.1 205.7 143.8L182.8 157C181.5 157.7 180.5 159.7 180.5 161.5V169.7C180.5 171.4 181.5 172.2 182.8 171.4Z" fill="#242993"/>
<path d="M206.9 143.6C207.3 143.9 207.5 144.5 207.5 145.3V153.5C207.5 155.2 206.5 157.2 205.2 158L182.3 171.1C181.9 171.3 181.5 171.4 181.2 171.3C181.6 171.7 182.2 171.8 183 171.4L205.9 158.3C207.2 157.6 208.2 155.6 208.2 153.8V145.6C208.1 144.4 207.6 143.7 206.9 143.6Z" fill="#242993"/>
<path d="M189.7 162.5L191.8 161.3C192.1 161.1 192.3 160.7 192.3 160.3V158.1C192.3 157.7 192.1 157.6 191.8 157.7L189.7 158.9C189.4 159.1 189.2 159.5 189.2 159.9V162.1C189.2 162.5 189.4 162.7 189.7 162.5Z" fill="#242993"/>
<path d="M196.7 158.4L198.8 157.2C199.1 157 199.3 156.6 199.3 156.2V154C199.3 153.6 199.1 153.5 198.8 153.6L196.7 154.8C196.4 155 196.2 155.4 196.2 155.8V158C196.2 158.4 196.5 158.6 196.7 158.4Z" fill="#242993"/>
<path d="M182.8 230.7L205.7 217.6C207 216.9 208 214.9 208 213.1V204.9C208 203.2 207 202.4 205.7 203.1L182.8 216.2C181.5 216.9 180.5 218.9 180.5 220.7V228.9C180.5 230.6 181.5 231.4 182.8 230.7Z" fill="#242993"/>
<path d="M206.9 202.9C207.3 203.2 207.5 203.8 207.5 204.6V212.8C207.5 214.5 206.5 216.5 205.2 217.3L182.3 230.4C181.9 230.6 181.5 230.7 181.2 230.6C181.6 231 182.2 231.1 183 230.7L205.9 217.6C207.2 216.9 208.2 214.9 208.2 213.1V204.9C208.1 203.7 207.6 203 206.9 202.9Z" fill="white"/>
<path d="M189.7 221.8L191.8 220.6C192.1 220.4 192.3 220 192.3 219.6V217.4C192.3 217 192.1 216.9 191.8 217L189.7 218.2C189.4 218.4 189.2 218.8 189.2 219.2V221.4C189.2 221.7 189.4 221.9 189.7 221.8Z" fill="#396CAA"/>
<path d="M196.7 217.7L198.8 216.5C199.1 216.3 199.3 215.9 199.3 215.5V213.3C199.3 212.9 199.1 212.8 198.8 212.9L196.7 214.1C196.4 214.3 196.2 214.7 196.2 215.1V217.3C196.2 217.7 196.5 217.9 196.7 217.7Z" fill="#396CAA"/>
<path d="M182.8 260.3L205.7 247.2C207 246.5 208 244.5 208 242.7V234.5C208 232.8 207 232 205.7 232.7L182.8 245.8C181.5 246.5 180.5 248.5 180.5 250.3V258.5C180.5 260.2 181.5 261 182.8 260.3Z" fill="#242993"/>
<path d="M206.9 232.5C207.3 232.8 207.5 233.4 207.5 234.2V242.4C207.5 244.1 206.5 246.1 205.2 246.9L182.2 260C181.8 260.2 181.4 260.3 181.1 260.2C181.5 260.6 182.1 260.7 182.9 260.3L205.8 247.2C207.1 246.5 208.1 244.5 208.1 242.7V234.5C208.1 233.3 207.6 232.6 206.9 232.5Z" fill="#242993"/>
<path d="M189.7 251.4L191.8 250.2C192.1 250 192.3 249.6 192.3 249.2V247C192.3 246.6 192.1 246.5 191.8 246.6L189.7 247.8C189.4 248 189.2 248.4 189.2 248.8V251C189.2 251.4 189.4 251.5 189.7 251.4Z" fill="#242993"/>
<path d="M196.7 247.3L198.8 246.1C199.1 245.9 199.3 245.5 199.3 245.1V242.9C199.3 242.5 199.1 242.4 198.8 242.5L196.7 243.7C196.4 243.9 196.2 244.3 196.2 244.7V246.9C196.2 247.3 196.5 247.5 196.7 247.3Z" fill="#242993"/>
<path d="M182.8 201L205.7 187.9C207 187.2 208 185.2 208 183.4V175.2C208 173.5 207 172.7 205.7 173.4L182.8 186.5C181.5 187.2 180.5 189.2 180.5 191V199.2C180.5 201 181.5 201.8 182.8 201Z" fill="#242993"/>
<path d="M206.9 173.2C207.3 173.5 207.5 174.1 207.5 174.9V183.1C207.5 184.8 206.5 186.8 205.2 187.6L182.3 200.7C181.9 200.9 181.5 201 181.2 200.9C181.6 201.3 182.2 201.4 183 201L205.9 187.9C207.2 187.2 208.2 185.2 208.2 183.4V175.2C208.1 174.1 207.6 173.3 206.9 173.2Z" fill="white"/>
<path d="M189.7 192.1L191.8 190.9C192.1 190.7 192.3 190.3 192.3 189.9V187.7C192.3 187.3 192.1 187.2 191.8 187.3L189.7 188.5C189.4 188.7 189.2 189.1 189.2 189.5V191.7C189.2 192.1 189.4 192.3 189.7 192.1Z" fill="white"/>
<path d="M196.7 188.1L198.8 186.9C199.1 186.7 199.3 186.3 199.3 185.9V183.7C199.3 183.3 199.1 183.2 198.8 183.3L196.7 184.5C196.4 184.7 196.2 185.1 196.2 185.5V187.7C196.2 188.1 196.5 188.2 196.7 188.1Z" fill="white"/>
<path d="M162.9 163L110 132.5C108.8 131.8 107.9 130 107.9 128.4V118.3C107.9 116.7 108.9 116 110 116.7L162.9 147.2C164.1 147.9 165 149.7 165 151.3V161.4C165.1 163 164.1 163.7 162.9 163Z" fill="#5793CE"/>
<path d="M161.4 159.5L111.5 130.7C110.9 130.4 110.4 129.4 110.4 128.6V121C110.4 120.2 110.9 119.8 111.5 120.2L161.4 149C162 149.3 162.5 150.3 162.5 151.1V158.7C162.5 159.5 162 159.8 161.4 159.5Z" fill="#4553C7"/>
<path d="M121.9 132.8L114.5 128.5C113.9 128.2 113.4 127.3 113.4 126.5C113.4 125.7 113.9 125.4 114.5 125.7L121.9 130C122.5 130.3 123 131.2 123 132C123 132.8 122.5 133.2 121.9 132.8Z" fill="#D4ECFF"/>
<path d="M128.3 135.1C128.3 135.9 127.8 136.2 127.1 135.8C126.4 135.4 125.9 134.5 125.9 133.7C125.9 132.9 126.4 132.6 127.1 133C127.7 133.4 128.3 134.3 128.3 135.1Z" fill="#173D7A"/>
<path d="M132.6 137.6C132.6 138.4 132.1 138.7 131.4 138.3C130.7 137.9 130.2 137 130.2 136.2C130.2 135.4 130.7 135.1 131.4 135.5C132 135.9 132.6 136.8 132.6 137.6Z" fill="#173D7A"/>
<path d="M136.9 140.1C136.9 140.9 136.4 141.2 135.7 140.8C135 140.4 134.5 139.5 134.5 138.7C134.5 137.9 135 137.6 135.7 138C136.3 138.3 136.9 139.3 136.9 140.1Z" fill="#D4ECFF"/>
<path d="M141.2 142.6C141.2 143.4 140.7 143.7 140 143.3C139.3 142.9 138.8 142 138.8 141.2C138.8 140.4 139.3 140.1 140 140.5C140.7 140.8 141.2 141.8 141.2 142.6Z" fill="#173D7A"/>
<path d="M159.3 155.2L156.8 153.8C156.4 153.6 156.1 153 156.1 152.5V149.8C156.1 149.3 156.4 149.1 156.8 149.3L159.3 150.7C159.7 150.9 160 151.5 160 152V154.7C160 155.2 159.7 155.5 159.3 155.2Z" fill="#173D7A"/>
<path d="M162.9 180.8L110 150.3C108.8 149.6 107.9 147.8 107.9 146.2V136.1C107.9 134.5 108.9 133.8 110 134.5L162.9 165C164.1 165.7 165 167.5 165 169.1V179.2C165.1 180.8 164.1 181.5 162.9 180.8Z" fill="#5793CE"/>
<path d="M161.4 177.3L111.5 148.5C110.9 148.2 110.4 147.2 110.4 146.4V138.8C110.4 138 110.9 137.6 111.5 138L161.4 166.8C162 167.1 162.5 168.1 162.5 168.9V176.5C162.5 177.2 162 177.6 161.4 177.3Z" fill="#4553C7"/>
<path d="M121.9 150.6L114.5 146.3C113.9 146 113.4 145.1 113.4 144.3C113.4 143.5 113.9 143.2 114.5 143.5L121.9 147.8C122.5 148.1 123 149 123 149.8C123 150.6 122.5 151 121.9 150.6Z" fill="#D4ECFF"/>
<path d="M128.3 152.9C128.3 153.7 127.8 154 127.1 153.6C126.4 153.2 125.9 152.3 125.9 151.5C125.9 150.7 126.4 150.4 127.1 150.8C127.7 151.2 128.3 152.1 128.3 152.9Z" fill="white"/>
<path d="M132.6 155.4C132.6 156.2 132.1 156.5 131.4 156.1C130.7 155.7 130.2 154.8 130.2 154C130.2 153.2 130.7 152.9 131.4 153.3C132 153.7 132.6 154.6 132.6 155.4Z" fill="#173D7A"/>
<path d="M136.9 157.9C136.9 158.7 136.4 159 135.7 158.6C135 158.2 134.5 157.3 134.5 156.5C134.5 155.7 135 155.4 135.7 155.8C136.3 156.1 136.9 157.1 136.9 157.9Z" fill="#D4ECFF"/>
<path d="M141.2 160.3C141.2 161.1 140.7 161.4 140 161C139.3 160.6 138.8 159.7 138.8 158.9C138.8 158.1 139.3 157.8 140 158.2C140.7 158.6 141.2 159.6 141.2 160.3Z" fill="#173D7A"/>
<path d="M159.3 173L156.8 171.6C156.4 171.4 156.1 170.8 156.1 170.3V167.6C156.1 167.1 156.4 166.9 156.8 167.1L159.3 168.5C159.7 168.7 160 169.3 160 169.8V172.5C160 173 159.7 173.3 159.3 173Z" fill="#173D7A"/>
<path d="M162.9 198.6L110 168C108.8 167.3 107.9 165.5 107.9 163.9V153.8C107.9 152.2 108.9 151.5 110 152.2L162.9 182.7C164.1 183.4 165 185.2 165 186.8V197C165.1 198.5 164.1 199.3 162.9 198.6Z" fill="#5793CE"/>
<path d="M161.4 195.1L111.5 166.3C110.9 166 110.4 165 110.4 164.2V156.6C110.4 155.8 110.9 155.4 111.5 155.8L161.4 184.6C162 184.9 162.5 185.9 162.5 186.7V194.3C162.5 195 162 195.4 161.4 195.1Z" fill="#4553C7"/>
<path d="M121.9 168.4L114.5 164.1C113.9 163.8 113.4 162.9 113.4 162.1C113.4 161.3 113.9 161 114.5 161.3L121.9 165.6C122.5 165.9 123 166.8 123 167.6C123 168.4 122.5 168.8 121.9 168.4Z" fill="#D4ECFF"/>
<path d="M128.3 170.7C128.3 171.5 127.8 171.8 127.1 171.4C126.4 171 125.9 170.1 125.9 169.3C125.9 168.5 126.4 168.2 127.1 168.6C127.7 169 128.3 169.9 128.3 170.7Z" fill="white"/>
<path d="M132.6 173.2C132.6 174 132.1 174.3 131.4 173.9C130.7 173.5 130.2 172.6 130.2 171.8C130.2 171 130.7 170.7 131.4 171.1C132 171.4 132.6 172.4 132.6 173.2Z" fill="#173D7A"/>
<path d="M136.9 175.6C136.9 176.4 136.4 176.7 135.7 176.3C135 175.9 134.5 175 134.5 174.2C134.5 173.4 135 173.1 135.7 173.5C136.3 173.9 136.9 174.9 136.9 175.6Z" fill="#D4ECFF"/>
<path d="M141.2 178.1C141.2 178.9 140.7 179.2 140 178.8C139.3 178.4 138.8 177.5 138.8 176.7C138.8 175.9 139.3 175.6 140 176C140.7 176.4 141.2 177.4 141.2 178.1Z" fill="#173D7A"/>
<path d="M159.3 190.8L156.8 189.4C156.4 189.2 156.1 188.6 156.1 188.1V185.4C156.1 184.9 156.4 184.7 156.8 184.9L159.3 186.3C159.7 186.5 160 187.1 160 187.6V190.3C160 190.8 159.7 191 159.3 190.8Z" fill="#173D7A"/>
<path d="M162.9 216.4L110 185.8C108.8 185.1 107.9 183.3 107.9 181.7V171.6C107.9 170 108.9 169.3 110 170L162.9 200.5C164.1 201.2 165 203 165 204.6V214.7C165.1 216.3 164.1 217.1 162.9 216.4Z" fill="#5793CE"/>
<path d="M161.4 212.8L111.5 184C110.9 183.7 110.4 182.7 110.4 181.9V174.3C110.4 173.5 110.9 173.1 111.5 173.5L161.4 202.3C162 202.6 162.5 203.6 162.5 204.4V212C162.5 212.8 162 213.2 161.4 212.8Z" fill="#4553C7"/>
<path d="M121.9 186.2L114.5 181.9C113.9 181.6 113.4 180.7 113.4 179.9C113.4 179.1 113.9 178.8 114.5 179.1L121.9 183.4C122.5 183.7 123 184.6 123 185.4C123 186.2 122.5 186.6 121.9 186.2Z" fill="#D4ECFF"/>
<path d="M128.3 188.5C128.3 189.3 127.8 189.6 127.1 189.2C126.4 188.8 125.9 187.9 125.9 187.1C125.9 186.3 126.4 186 127.1 186.4C127.7 186.7 128.3 187.7 128.3 188.5Z" fill="#173D7A"/>
<path d="M132.6 191C132.6 191.8 132.1 192.1 131.4 191.7C130.7 191.3 130.2 190.4 130.2 189.6C130.2 188.8 130.7 188.5 131.4 188.9C132 189.2 132.6 190.2 132.6 191Z" fill="#173D7A"/>
<path d="M136.9 193.4C136.9 194.2 136.4 194.5 135.7 194.1C135 193.7 134.5 192.8 134.5 192C134.5 191.2 135 190.9 135.7 191.3C136.3 191.7 136.9 192.7 136.9 193.4Z" fill="#D4ECFF"/>
<path d="M141.2 195.9C141.2 196.7 140.7 197 140 196.6C139.3 196.2 138.8 195.3 138.8 194.5C138.8 193.7 139.3 193.4 140 193.8C140.7 194.2 141.2 195.1 141.2 195.9Z" fill="#173D7A"/>
<path d="M159.3 208.6L156.8 207.2C156.4 207 156.1 206.4 156.1 205.9V203.2C156.1 202.7 156.4 202.5 156.8 202.7L159.3 204.1C159.7 204.3 160 204.9 160 205.4V208.1C160 208.6 159.7 208.8 159.3 208.6Z" fill="#D4ECFF"/>
<path d="M162.9 234.2L110 203.6C108.8 202.9 107.9 201.1 107.9 199.5V189.4C107.9 187.8 108.9 187.1 110 187.8L162.9 218.3C164.1 219 165 220.8 165 222.4V232.5C165.1 234.1 164.1 234.9 162.9 234.2Z" fill="#5793CE"/>
<path d="M161.4 230.6L111.5 201.8C110.9 201.5 110.4 200.5 110.4 199.7V192.1C110.4 191.3 110.9 190.9 111.5 191.3L161.4 220.1C162 220.4 162.5 221.4 162.5 222.2V229.8C162.5 230.6 162 231 161.4 230.6Z" fill="#4553C7"/>
<path d="M121.9 204L114.5 199.7C113.9 199.4 113.4 198.5 113.4 197.7C113.4 196.9 113.9 196.6 114.5 196.9L121.9 201.2C122.5 201.5 123 202.4 123 203.2C123 204 122.5 204.3 121.9 204Z" fill="#D4ECFF"/>
<path d="M128.3 206.3C128.3 207.1 127.8 207.4 127.1 207C126.4 206.6 125.9 205.7 125.9 204.9C125.9 204.1 126.4 203.8 127.1 204.2C127.7 204.5 128.3 205.5 128.3 206.3Z" fill="#173D7A"/>
<path d="M132.6 208.7C132.6 209.5 132.1 209.8 131.4 209.4C130.7 209 130.2 208.1 130.2 207.3C130.2 206.5 130.7 206.2 131.4 206.6C132 207 132.6 208 132.6 208.7Z" fill="white"/>
<path d="M136.9 211.2C136.9 212 136.4 212.3 135.7 211.9C135 211.5 134.5 210.6 134.5 209.8C134.5 209 135 208.7 135.7 209.1C136.3 209.5 136.9 210.5 136.9 211.2Z" fill="#D4ECFF"/>
<path d="M141.2 213.7C141.2 214.5 140.7 214.8 140 214.4C139.3 214 138.8 213.1 138.8 212.3C138.8 211.5 139.3 211.2 140 211.6C140.7 212 141.2 212.9 141.2 213.7Z" fill="white"/>
<path d="M159.3 226.4L156.8 225C156.4 224.8 156.1 224.2 156.1 223.7V221C156.1 220.5 156.4 220.3 156.8 220.5L159.3 221.9C159.7 222.1 160 222.7 160 223.2V225.9C160 226.4 159.7 226.6 159.3 226.4Z" fill="#D4ECFF"/>
<path d="M162.9 252L110 221.4C108.8 220.7 107.9 218.9 107.9 217.3V207.2C107.9 205.6 108.9 204.9 110 205.6L162.9 236.1C164.1 236.8 165 238.6 165 240.2V250.3C165.1 251.9 164.1 252.6 162.9 252Z" fill="#5793CE"/>
<path d="M161.4 248.4L111.5 219.6C110.9 219.3 110.4 218.3 110.4 217.5V210C110.4 209.2 110.9 208.8 111.5 209.2L161.4 238C162 238.3 162.5 239.3 162.5 240.1V247.7C162.5 248.4 162 248.8 161.4 248.4Z" fill="#4553C7"/>
<path d="M121.9 221.8L114.5 217.5C113.9 217.2 113.4 216.3 113.4 215.5C113.4 214.7 113.9 214.4 114.5 214.7L121.9 219C122.5 219.3 123 220.2 123 221C123 221.8 122.5 222.1 121.9 221.8Z" fill="#D4ECFF"/>
<path d="M128.3 224C128.3 224.8 127.8 225.1 127.1 224.7C126.4 224.3 125.9 223.4 125.9 222.6C125.9 221.8 126.4 221.5 127.1 221.9C127.7 222.3 128.3 223.3 128.3 224Z" fill="#173D7A"/>
<path d="M132.6 226.5C132.6 227.3 132.1 227.6 131.4 227.2C130.7 226.8 130.2 225.9 130.2 225.1C130.2 224.3 130.7 224 131.4 224.4C132 224.8 132.6 225.8 132.6 226.5Z" fill="#173D7A"/>
<path d="M136.9 229C136.9 229.8 136.4 230.1 135.7 229.7C135 229.3 134.5 228.4 134.5 227.6C134.5 226.8 135 226.5 135.7 226.9C136.3 227.3 136.9 228.2 136.9 229Z" fill="#D4ECFF"/>
<path d="M141.2 231.5C141.2 232.3 140.7 232.6 140 232.2C139.3 231.8 138.8 230.9 138.8 230.1C138.8 229.3 139.3 229 140 229.4C140.7 229.8 141.2 230.7 141.2 231.5Z" fill="#173D7A"/>
<path d="M159.3 244.2L156.8 242.8C156.4 242.6 156.1 242 156.1 241.5V238.8C156.1 238.3 156.4 238.1 156.8 238.3L159.3 239.7C159.7 239.9 160 240.5 160 241V243.7C160 244.2 159.7 244.4 159.3 244.2Z" fill="#173D7A"/>
<path d="M162.9 269.7L110 239.2C108.8 238.5 107.9 236.7 107.9 235.1V225C107.9 223.4 108.9 222.7 110 223.4L162.9 253.9C164.1 254.6 165 256.4 165 258V268.1C165.1 269.7 164.1 270.4 162.9 269.7Z" fill="#5793CE"/>
<path d="M161.4 266.2L111.5 237.4C110.9 237.1 110.4 236.1 110.4 235.3V227.7C110.4 226.9 110.9 226.5 111.5 226.9L161.4 255.7C162 256 162.5 257 162.5 257.8V265.4C162.5 266.2 162 266.6 161.4 266.2Z" fill="#4553C7"/>
<path d="M121.9 239.6L114.5 235.3C113.9 235 113.4 234.1 113.4 233.3C113.4 232.5 113.9 232.2 114.5 232.5L121.9 236.8C122.5 237.1 123 238 123 238.8C123 239.6 122.5 239.9 121.9 239.6Z" fill="#D4ECFF"/>
<path d="M128.3 241.8C128.3 242.6 127.8 242.9 127.1 242.5C126.4 242.1 125.9 241.2 125.9 240.4C125.9 239.6 126.4 239.3 127.1 239.7C127.7 240.1 128.3 241.1 128.3 241.8Z" fill="white"/>
<path d="M132.6 244.3C132.6 245.1 132.1 245.4 131.4 245C130.7 244.6 130.2 243.7 130.2 242.9C130.2 242.1 130.7 241.8 131.4 242.2C132 242.6 132.6 243.5 132.6 244.3Z" fill="#173D7A"/>
<path d="M136.9 246.8C136.9 247.6 136.4 247.9 135.7 247.5C135 247.1 134.5 246.2 134.5 245.4C134.5 244.6 135 244.3 135.7 244.7C136.3 245.1 136.9 246 136.9 246.8Z" fill="#D4ECFF"/>
<path d="M141.2 249.3C141.2 250.1 140.7 250.4 140 250C139.3 249.6 138.8 248.7 138.8 247.9C138.8 247.1 139.3 246.8 140 247.2C140.7 247.6 141.2 248.5 141.2 249.3Z" fill="#173D7A"/>
<path d="M159.3 262L156.8 260.6C156.4 260.4 156.1 259.8 156.1 259.3V256.6C156.1 256.1 156.4 255.9 156.8 256.1L159.3 257.5C159.7 257.7 160 258.3 160 258.8V261.5C160 262 159.7 262.2 159.3 262Z" fill="#D4ECFF"/>
<path d="M147.6 107.7C147.2 107.7 146.8 107.3 146.8 106.9V74.0001C146.8 73.6001 147.2 73.2001 147.6 73.2001C148 73.2001 148.4 73.6001 148.4 74.0001V106.9C148.4 107.3 148 107.7 147.6 107.7Z" fill="#5793CE"/>
<path d="M150.4 71.9H144.7V84.2H150.4V71.9Z" fill="#5793CE"/>
<path d="M149.6 85.4C148.5 86 146.7 86 145.6 85.4C144.5 84.8 144.5 83.7 145.6 83.1C146.7 82.5 148.5 82.5 149.6 83.1C150.7 83.8 150.7 84.8 149.6 85.4Z" fill="#5793CE"/>
<path d="M152.2 54.8H142.9V74.1H152.2V54.8Z" fill="#5793CE"/>
<path d="M144.7 74V78.2C146.4 79 148.7 79 150.4 78.2V74C148.7 73.2 146.4 73.2 144.7 74Z" fill="#396CAA"/>
<path d="M150.8 76.0001C149 77.0001 146.1 77.0001 144.3 76.0001C142.5 75.0001 142.5 73.3001 144.3 72.2001C146.1 71.2001 149 71.2001 150.8 72.2001C152.6 73.3001 152.6 74.9001 150.8 76.0001Z" fill="#5793CE"/>
<path d="M155.4 112.4C155 112.4 154.6 112 154.6 111.6V78.7C154.6 78.3 155 77.9 155.4 77.9C155.8 77.9 156.2 78.3 156.2 78.7V111.6C156.2 112 155.8 112.4 155.4 112.4Z" fill="#5793CE"/>
<path d="M158.2 76.6H152.5V88.9H158.2V76.6Z" fill="#5793CE"/>
<path d="M157.4 90.1C156.3 90.7 154.5 90.7 153.4 90.1C152.3 89.5 152.3 88.4 153.4 87.8C154.5 87.2 156.3 87.2 157.4 87.8C158.5 88.4 158.5 89.5 157.4 90.1Z" fill="#5793CE"/>
<path d="M160 59.4H150.7V78.7H160V59.4Z" fill="#5793CE"/>
<path d="M152.5 78.6001V82.8001C154.2 83.6001 156.5 83.6001 158.2 82.8001V78.6001C156.5 77.9001 154.2 77.9001 152.5 78.6001Z" fill="#396CAA"/>
<path d="M158.6 80.7C156.8 81.7 153.9 81.7 152.1 80.7C150.3 79.7 150.3 78 152.1 76.9C153.9 75.9 156.8 75.9 158.6 76.9C160.4 77.9 160.4 79.6 158.6 80.7Z" fill="#5793CE"/>
<path d="M163.2 117C162.8 117 162.4 116.6 162.4 116.2V83.3C162.4 82.9 162.8 82.5 163.2 82.5C163.6 82.5 164 82.9 164 83.3V116.2C164 116.7 163.6 117 163.2 117Z" fill="#5793CE"/>
<path d="M166 81.2999H160.3V93.5999H166V81.2999Z" fill="#5793CE"/>
<path d="M165.2 94.7999C164.1 95.3999 162.3 95.3999 161.2 94.7999C160.1 94.1999 160.1 93.0999 161.2 92.4999C162.3 91.8999 164.1 91.8999 165.2 92.4999C166.3 93.0999 166.3 94.0999 165.2 94.7999Z" fill="#5793CE"/>
<path d="M167.8 64.1H158.5V83.4H167.8V64.1Z" fill="#5793CE"/>
<path d="M160.3 83.3V87.4999C162 88.2999 164.3 88.2999 166 87.4999V83.3C164.3 82.5 162 82.5 160.3 83.3Z" fill="#396CAA"/>
<path d="M166.4 85.3C164.6 86.3 161.7 86.3 159.9 85.3C158.1 84.3 158.1 82.6 159.9 81.5C161.7 80.5 164.6 80.5 166.4 81.5C168.2 82.6 168.2 84.3 166.4 85.3Z" fill="#5793CE"/>
<path d="M171 121.7C170.6 121.7 170.2 121.3 170.2 120.9V88.0001C170.2 87.6001 170.6 87.2001 171 87.2001C171.4 87.2001 171.8 87.6001 171.8 88.0001V120.9C171.8 121.3 171.4 121.7 171 121.7Z" fill="#5793CE"/>
<path d="M173.8 85.9H168.1V98.2H173.8V85.9Z" fill="#5793CE"/>
<path d="M173 99.4C171.9 100 170.1 100 169 99.4C167.9 98.8 167.9 97.7 169 97.1C170.1 96.5 171.9 96.5 173 97.1C174.1 97.7 174.1 98.8 173 99.4Z" fill="#5793CE"/>
<path d="M175.6 68.8H166.3V88.1H175.6V68.8Z" fill="#5793CE"/>
<path d="M168.1 88V92.2C169.8 93 172.1 93 173.8 92.2V88C172.2 87.2 169.8 87.2 168.1 88Z" fill="#396CAA"/>
<path d="M174.3 90.0001C172.5 91.0001 169.6 91.0001 167.8 90.0001C166 89.0001 166 87.3001 167.8 86.2001C169.6 85.2001 172.5 85.2001 174.3 86.2001C176.1 87.2001 176.1 88.9001 174.3 90.0001Z" fill="#5793CE"/>
<path d="M207.3 104.1L219.7 96.8L207.9 82L204.7 87.1L207.3 104.1Z" fill="#5793CE"/>
<path d="M117.1 23.1001L136.9 11.7001L136.2 23.1001L124.8 26.6001L117.1 23.1001Z" fill="#5793CE"/>
<path d="M210.7 67C209.2 66.1 207.8 65.6 206.4 65.4C204.4 54.9 197.1 43.8 188.4 38.7C185.8 37.2 183.3 36.4 181 36.2C179.8 23.5 171 9.00001 160.2 2.80001C154.6 -0.399986 149.5 -0.799986 145.7 1.20001L145.5 1.30001C145.4 1.40001 145.3 1.40001 145.2 1.50001L133.5 8.40001L137.4 11.5C133.9 13 131.7 16.9 131.7 22.7C131.7 33.4 139.2 46.3 148.4 51.6L210.7 96C217.6 100 223.2 96.8 223.2 88.8C223.3 80.7 217.6 71 210.7 67Z" fill="#5793CE"/>
<path d="M132.4 18L159.2 2.3C154 -0.400002 149.3 -0.600001 145.8 1.2L145.6 1.3C145.5 1.4 145.4 1.4 145.3 1.5L133.6 8.4L137.5 11.5C135.1 12.5 133.3 14.7 132.4 18Z" fill="#5793CE"/>
<path d="M181.9 64.0001L201.5 52.5001C198.1 46.7001 193.5 41.6001 188.4 38.7001C187.7 38.3001 187.1 38.0001 186.4 37.7001L161.5 52.3001L181.9 64.0001Z" fill="#5793CE"/>
<path d="M139.2 9.69998L147.9 14.7L163.9 5.29998C162.7 4.39998 161.5 3.59998 160.3 2.89998C158.4 1.79998 156.5 0.999976 154.7 0.599976L139.2 9.69998Z" fill="#D4ECFF"/>
<path d="M199.4 49.2001L183.8 58.4001L189.2 64.5001L203.4 56.1001C202.2 53.7001 200.9 51.4001 199.4 49.2001Z" fill="#D4ECFF"/>
<path d="M198.4 74.2C196.9 73.3 195.5 72.8 194.1 72.6C192.1 62.1 184.8 51 176.1 45.9C173.5 44.4 171 43.6 168.7 43.4C167.5 30.7 158.7 16.2 147.9 9.99999C136.3 3.29999 127 8.69999 127 22.1C127 22.6 127 23 127 23.5C118.6 19.6 111.9 24 111.9 34C111.9 44.7 119.4 57.6 128.6 62.9L198.3 103.1C205.2 107.1 210.8 103.9 210.8 95.9C211 88 205.4 78.2 198.4 74.2Z" fill="#D4ECFF"/>
<path d="M127.1 23.5C127.1 23 127.1 22.6 127.1 22.1C127.1 22.1 127.1 22.1 127.1 22C122.4 20.2 118.4 21 115.9 23.9C118.6 21.7 122.6 21.4 127.1 23.5Z" fill="white"/>
<path d="M199.5 73.2001C198 72.3 196.6 71.8 195.2 71.6001C193.2 61.1001 185.9 50 177.2 44.9001C174.6 43.4001 172.1 42.6001 169.8 42.4001C168.6 29.7001 159.8 15.2001 149 9.00005C141.8 4.80005 135.5 5.40005 131.7 9.60005C135.5 6.30005 141.4 6.20005 148 10.0001C158.7 16.2001 167.6 30.7001 168.8 43.4001C171.1 43.6001 173.6 44.4001 176.2 45.9001C184.9 50.9001 192.2 62.1001 194.2 72.6001C195.5 72.8 197 73.3 198.5 74.2001C205.4 78.2001 211 88.0001 211 96.0001C211 98.9001 210.3 101.1 209 102.7C210.9 101.3 212 98.6001 212 95.0001C212 87.0001 206.4 77.2001 199.5 73.2001Z" fill="white"/>
<path d="M125.6 26.7L130.8 29.1L130.5 23.3C130.5 22.9 130.5 22.5 130.5 22.1C130.5 17 132.1 13.2 134.9 11.6C137.7 9.99995 141.7 10.5 146.2 13.1C155.8 18.6 164.2 32.1 165.2 43.8L165.5 46.7L168.4 46.9C170.2 47 172.2 47.7 174.3 48.9C181.9 53.3 188.8 63.5 190.6 73.2L191.1 75.6L193.5 76C194.5 76.2 195.5 76.5 196.6 77.2C202.5 80.6 207.4 89.1 207.4 95.9C207.4 98.4 206.7 100.3 205.5 101C204.3 101.7 202.3 101.4 200.1 100.1L130.4 59.9C122.3 55.2 115.4 43.4 115.4 34C115.4 30.3 116.5 27.5 118.4 26.3C119.2 25.8 120.1 25.6 121.2 25.6C122.6 25.6 124.1 26 125.6 26.7Z" fill="#4553C7"/>
<path d="M160.4 70.4L162.3 69.5L160.4 68.1V70.4Z" fill="#5793CE"/>
<path d="M154.9 45.5L156.7 44.6V45.6L154.9 45.5Z" fill="#5793CE"/>
<path d="M165.7 64.5999L167.5 63.5999L163.9 60.2L165.7 64.5999Z" fill="#5793CE"/>
<path d="M161.7 69.4L153 64.3C152.6 64 152.2 63.4 152.2 62.7999V52.7L162.5 58.7999V68.9C162.5 69.4 162.2 69.7 161.7 69.4Z" fill="#5793CE"/>
<path d="M156.7 44.6999L147.3 50.6999C146.9 50.9999 147.2 51.8999 147.8 52.2999L157.4 57.9999L167 63.6999C167.6 64.0999 167.9 63.4999 167.5 62.7999L158.2 45.6999C157.8 44.7999 157.1 44.3999 156.7 44.6999Z" fill="#5793CE"/>
<path d="M159.8 70.3L151.1 65.2C150.7 64.9 150.3 64.3 150.3 63.7V53.6L160.6 59.7V69.8C160.7 70.4 160.3 70.6 159.8 70.3Z" fill="#D4ECFF"/>
<path d="M154.8 45.6L145.4 51.6C145 51.9 145.3 52.8 145.9 53.2L155.5 58.9L165.1 64.6C165.7 65 166 64.4 165.6 63.7L156.3 46.6C155.9 45.8 155.2 45.3 154.8 45.6Z" fill="#D4ECFF"/>
<path d="M191.3 249H190.2V189.4L197.3 185.3V156H198.3V186L191.3 190V249Z" fill="white"/>
<path d="M22.2 261.8C21.6 261.8 21 261.6 20.4 261.3L1 250.3C0.4 250 0 249.4 0 248.7C0 248 0.3 247.4 0.9 247.1L49.4 219.1C52.2 217.5 55.6 217.5 58.4 219.1L113.8 251.1L113 252.5L57.6 220.5C55.3 219.2 52.5 219.2 50.2 220.5L1.7 248.5C1.6 248.6 1.6 248.7 1.6 248.7C1.6 248.8 1.6 248.9 1.7 248.9L21.1 259.9C21.8 260.3 22.6 260.3 23.2 259.8L31.4 254.5L32.3 255.8L24.1 261.1C23.6 261.6 22.9 261.8 22.2 261.8Z" fill="#B2D3EA"/>
<path d="M47.4999 266.1L21.3999 251C19.7999 250.1 19.9999 248.5 21.7999 247.4L46.9999 232.8C48.8999 231.7 51.6999 231.6 53.2999 232.5L79.3999 247.6C80.9999 248.5 80.7999 250.1 78.9999 251.2L53.7999 265.8C51.8999 266.9 49.0999 267 47.4999 266.1Z" fill="#B2D3EA"/>
<path d="M88.0997 236.2V224.9H62.7997L54.0997 219.8C52.0997 218.6 48.5997 218.8 46.2997 220.1L38.0997 224.8H12.7997V236.4C12.6997 237.2 13.1997 237.9 14.0997 238.5L46.7997 257.4C48.7997 258.6 52.2997 258.4 54.5997 257.1L86.1997 238.9C87.4997 238.1 88.1997 237.1 88.0997 236.2Z" fill="#396CAA"/>
<path d="M50.3996 219C48.8996 219 47.3996 219.4 46.1996 220.1L37.9996 224.8H12.6996V236.4C12.5996 237.2 13.0996 237.9 13.9996 238.5L46.6996 257.4C47.6996 258 48.9996 258.2 50.2996 258.2V219H50.3996Z" fill="#396CAA"/>
<path d="M15.5996 224.8H12.6996V236.4C12.5996 237.2 13.0996 237.9 13.9996 238.5L15.4996 239.4V224.8H15.5996Z" fill="#5793CE"/>
<path d="M47.2998 257.7C48.9998 258.4 51.4998 258.4 53.5998 257.6V244.4H47.2998V257.7Z" fill="#5793CE"/>
<path d="M46.7999 245.9L13.9999 227C11.9999 225.8 12.1999 223.8 14.5999 222.5L46.1999 204.3C48.4999 203 51.9999 202.8 53.9999 204L86.6999 222.9C88.6999 224.1 88.4999 226.1 86.0999 227.4L54.4999 245.6C52.2999 246.9 48.7999 247 46.7999 245.9Z" fill="#D4ECFF"/>
<path d="M47.4 242.5L20 226.7C18.3 225.7 18.5 224 20.5 222.9L47 207.6C48.9 206.5 51.9 206.4 53.6 207.3L81 223.1C82.7 224.1 82.5 225.8 80.5 226.9L54 242.2C52 243.3 49 243.4 47.4 242.5Z" fill="#5793CE"/>
<path d="M76.1 239.2C76.1 240 75.5 241.1 74.8 241.5C74.1 241.9 73.5 241.6 73.5 240.7C73.5 239.9 74.1 238.8 74.8 238.4C75.5 238 76.1 238.3 76.1 239.2Z" fill="#D4ECFF"/>
<path d="M80.3002 236.7C80.3002 237.5 79.7002 238.6 79.0002 239C78.3002 239.4 77.7002 239.1 77.7002 238.2C77.7002 237.4 78.3002 236.3 79.0002 235.9C79.7002 235.5 80.3002 235.9 80.3002 236.7Z" fill="#D4ECFF"/>
<path d="M84.6 234.2C84.6 235 84 236.1 83.3 236.5C82.6 236.9 82 236.6 82 235.7C82 234.9 82.6 233.8 83.3 233.4C84 233.1 84.6 233.4 84.6 234.2Z" fill="#D4ECFF"/>
<path d="M88.0997 218.1V206.8H62.7997L54.0997 201.7C52.0997 200.5 48.5997 200.7 46.2997 202L38.0997 206.7H12.7997V218.3C12.6997 219.1 13.1997 219.8 14.0997 220.4L46.7997 239.3C48.7997 240.5 52.2997 240.3 54.5997 239L86.1997 220.8C87.4997 220.1 88.1997 219.1 88.0997 218.1Z" fill="#396CAA"/>
<path d="M50.3996 201C48.8996 201 47.3996 201.4 46.1996 202.1L37.9996 206.8H12.6996V218.4C12.5996 219.2 13.0996 219.9 13.9996 220.5L46.6996 239.4C47.6996 240 48.9996 240.2 50.2996 240.2V201H50.3996Z" fill="#396CAA"/>
<path d="M15.5996 206.8H12.6996V218.4C12.5996 219.2 13.0996 219.9 13.9996 220.5L15.4996 221.4V206.8H15.5996Z" fill="#5793CE"/>
<path d="M47.2998 239.6C48.9998 240.3 51.4998 240.3 53.5998 239.5V226.3H47.2998V239.6Z" fill="#5793CE"/>
<path d="M46.7999 227.8L13.9999 208.9C11.9999 207.7 12.1999 205.7 14.5999 204.4L46.1999 186.2C48.4999 184.9 51.9999 184.7 53.9999 185.9L86.6999 204.8C88.6999 206 88.4999 208 86.0999 209.3L54.4999 227.5C52.2999 228.8 48.7999 229 46.7999 227.8Z" fill="#D4ECFF"/>
<path d="M47.4 224.4L20 208.6C18.3 207.6 18.5 205.9 20.5 204.8L47 189.5C48.9 188.4 51.9 188.3 53.6 189.2L81 205C82.7 206 82.5 207.7 80.5 208.8L54 224.1C52 225.3 49 225.4 47.4 224.4Z" fill="#5793CE"/>
<path d="M76.1 221.1C76.1 221.9 75.5 223 74.8 223.4C74.1 223.8 73.5 223.5 73.5 222.6C73.5 221.8 74.1 220.7 74.8 220.3C75.5 219.9 76.1 220.3 76.1 221.1Z" fill="#D4ECFF"/>
<path d="M80.3002 218.7C80.3002 219.5 79.7002 220.6 79.0002 221C78.3002 221.4 77.7002 221.1 77.7002 220.2C77.7002 219.4 78.3002 218.3 79.0002 217.9C79.7002 217.5 80.3002 217.8 80.3002 218.7Z" fill="#D4ECFF"/>
<path d="M84.6 216.2C84.6 217 84 218.1 83.3 218.5C82.6 218.9 82 218.6 82 217.7C82 216.9 82.6 215.8 83.3 215.4C84 215 84.6 215.4 84.6 216.2Z" fill="#D4ECFF"/>
<path d="M88.0997 200.1V188.8H62.7997L54.0997 183.7C52.0997 182.5 48.5997 182.7 46.2997 184L38.0997 188.7H12.7997V200.3C12.6997 201.1 13.1997 201.8 14.0997 202.4L46.7997 221.3C48.7997 222.5 52.2997 222.3 54.5997 221L86.1997 202.8C87.4997 202 88.1997 201 88.0997 200.1Z" fill="#396CAA"/>
<path d="M50.3996 183C48.8996 183 47.3996 183.4 46.1996 184.1L37.9996 188.8H12.6996V200.4C12.5996 201.2 13.0996 201.9 13.9996 202.5L46.6996 221.4C47.6996 222 48.9996 222.2 50.2996 222.2V183H50.3996Z" fill="#396CAA"/>
<path d="M15.5996 188.8H12.6996V200.4C12.5996 201.2 13.0996 201.9 13.9996 202.5L15.4996 203.4V188.8H15.5996Z" fill="#5793CE"/>
<path d="M47.2998 221.6C48.9998 222.3 51.4998 222.3 53.5998 221.5V208.3H47.2998V221.6Z" fill="#5793CE"/>
<path d="M46.7999 209.8L13.9999 190.9C11.9999 189.7 12.1999 187.7 14.5999 186.4L46.1999 168.2C48.4999 166.9 51.9999 166.7 53.9999 167.9L86.6999 186.8C88.6999 188 88.4999 190 86.0999 191.3L54.4999 209.5C52.2999 210.8 48.7999 210.9 46.7999 209.8Z" fill="url(#paint0_linear)"/>
<path d="M86.2 189L54.6 207.2C52.3 208.5 48.8 208.7 46.8 207.5L14 188.7C13.6 188.4 13.2 188.1 13 187.8C12.3 188.9 12.6 190.1 14 190.9L46.7 209.8C48.7 211 52.2 210.8 54.5 209.5L86.1 191.3C87.9 190.3 88.4 188.8 87.7 187.7C87.4 188.1 86.9 188.6 86.2 189Z" fill="white"/>
<path d="M76.1 203.1C76.1 203.9 75.5 205 74.8 205.4C74.1 205.8 73.5 205.5 73.5 204.6C73.5 203.8 74.1 202.7 74.8 202.3C75.5 201.9 76.1 202.2 76.1 203.1Z" fill="#D4ECFF"/>
<path d="M80.3002 200.6C80.3002 201.4 79.7002 202.5 79.0002 202.9C78.3002 203.3 77.7002 203 77.7002 202.1C77.7002 201.3 78.3002 200.2 79.0002 199.8C79.7002 199.4 80.3002 199.8 80.3002 200.6Z" fill="#D4ECFF"/>
<path d="M84.6 198.2C84.6 199 84 200.1 83.3 200.5C82.6 200.9 82 200.6 82 199.7C82 198.9 82.6 197.8 83.3 197.4C84 197 84.6 197.3 84.6 198.2Z" fill="#D4ECFF"/>
<path d="M48.7 198.1L33.4 189.3C32.5 188.8 32.6 187.8 33.7 187.2L48.5 178.7C49.6 178.1 51.2 178 52.2 178.5L67.5 187.3C68.4 187.8 68.3 188.8 67.2 189.4L52.4 197.9C51.3 198.6 49.6 198.6 48.7 198.1Z" fill="#4553C7"/>
<path d="M50.1999 190.7L48.0999 189.5C47.9999 189.4 47.9999 189.3 48.0999 189.2L50.0999 188C50.2999 187.9 50.4999 187.9 50.5999 188L52.6999 189.2C52.7999 189.3 52.7999 189.4 52.6999 189.5L50.6999 190.7C50.4999 190.7 50.2999 190.8 50.1999 190.7Z" fill="#D4ECFF"/>
<path d="M33.4001 189.2C33.5001 189.2 33.6001 189.1 33.7001 189.1L48.5001 180.6C49.6001 180 51.2001 179.9 52.2001 180.4L67.5001 189.2C68.4001 188.6 68.4001 187.7 67.5001 187.2L52.2001 178.4C51.3001 177.9 49.6001 177.9 48.5001 178.6L33.7001 187.1C32.6001 187.7 32.4001 188.7 33.4001 189.2Z" fill="#396CAA"/>
<path d="M44.6999 213.1C44.6999 213.7 44.2999 213.9 43.7999 213.6C43.2999 213.3 42.8999 212.6 42.8999 212.1C42.8999 211.5 43.2999 211.3 43.7999 211.6C44.2999 211.8 44.6999 212.5 44.6999 213.1Z" fill="#D4ECFF"/>
<path d="M41.9001 211.5C41.9001 212.1 41.5001 212.3 41.0001 212C40.5001 211.7 40.1001 211 40.1001 210.5C40.1001 209.9 40.5001 209.7 41.0001 210C41.5001 210.2 41.9001 210.9 41.9001 211.5Z" fill="#D4ECFF"/>
<path d="M44.6999 216.4C44.6999 217 44.2999 217.2 43.7999 216.9C43.2999 216.6 42.8999 215.9 42.8999 215.4C42.8999 214.8 43.2999 214.6 43.7999 214.9C44.2999 215.2 44.6999 215.9 44.6999 216.4Z" fill="#D4ECFF"/>
<path d="M41.9001 214.8C41.9001 215.4 41.5001 215.6 41.0001 215.3C40.5001 215 40.1001 214.3 40.1001 213.8C40.1001 213.2 40.5001 213 41.0001 213.3C41.5001 213.6 41.9001 214.3 41.9001 214.8Z" fill="#D4ECFF"/>
<path d="M44.6999 231C44.6999 231.6 44.2999 231.8 43.7999 231.5C43.2999 231.2 42.8999 230.5 42.8999 230C42.8999 229.4 43.2999 229.2 43.7999 229.5C44.2999 229.8 44.6999 230.5 44.6999 231Z" fill="#D4ECFF"/>
<path d="M41.9001 229.5C41.9001 230.1 41.5001 230.3 41.0001 230C40.5001 229.7 40.1001 229 40.1001 228.5C40.1001 227.9 40.5001 227.7 41.0001 228C41.5001 228.2 41.9001 228.9 41.9001 229.5Z" fill="#D4ECFF"/>
<path d="M44.6999 234.4C44.6999 235 44.2999 235.2 43.7999 234.9C43.2999 234.6 42.8999 233.9 42.8999 233.4C42.8999 232.8 43.2999 232.6 43.7999 232.9C44.2999 233.1 44.6999 233.8 44.6999 234.4Z" fill="#D4ECFF"/>
<path d="M41.9001 232.8C41.9001 233.4 41.5001 233.6 41.0001 233.3C40.5001 233 40.1001 232.3 40.1001 231.8C40.1001 231.2 40.5001 231 41.0001 231.3C41.5001 231.5 41.9001 232.2 41.9001 232.8Z" fill="#D4ECFF"/>
<path d="M44.6999 249C44.6999 249.6 44.2999 249.8 43.7999 249.5C43.2999 249.2 42.8999 248.5 42.8999 248C42.8999 247.4 43.2999 247.2 43.7999 247.5C44.2999 247.7 44.6999 248.4 44.6999 249Z" fill="#D4ECFF"/>
<path d="M41.9001 247.4C41.9001 248 41.5001 248.2 41.0001 247.9C40.5001 247.6 40.1001 246.9 40.1001 246.4C40.1001 245.8 40.5001 245.6 41.0001 245.9C41.5001 246.2 41.9001 246.8 41.9001 247.4Z" fill="#D4ECFF"/>
<path d="M44.6999 252.3C44.6999 252.9 44.2999 253.1 43.7999 252.8C43.2999 252.5 42.8999 251.8 42.8999 251.3C42.8999 250.7 43.2999 250.5 43.7999 250.8C44.2999 251.1 44.6999 251.8 44.6999 252.3Z" fill="#D4ECFF"/>
<path d="M41.9001 250.7C41.9001 251.3 41.5001 251.5 41.0001 251.2C40.5001 250.9 40.1001 250.2 40.1001 249.7C40.1001 249.1 40.5001 248.9 41.0001 249.2C41.5001 249.5 41.9001 250.2 41.9001 250.7Z" fill="#D4ECFF"/>
<path d="M50.8002 279.5C49.9002 279.5 48.9002 279.3 48.1002 278.8L31.6002 269.2C31.0002 268.9 30.7002 268.3 30.7002 267.6C30.7002 266.9 31.0002 266.4 31.6002 266L42.4002 259.7L43.2002 261.1L32.4002 267.4C32.3002 267.4 32.3002 267.5 32.3002 267.6C32.3002 267.7 32.3002 267.7 32.4002 267.8L48.9002 277.4C50.1002 278.1 51.5002 278.1 52.7002 277.4L85.0002 259C86.7002 258.1 88.7002 258.1 90.4002 259L117.5 274.6C118.7 275.3 120.1 275.3 121.3 274.6L134.3 267.1L135.1 268.5L122.1 276C120.4 277 118.4 277 116.7 276L89.7002 260.4C88.5002 259.7 87.1002 259.7 85.9002 260.4L53.6002 278.8C52.7002 279.3 51.7002 279.5 50.8002 279.5Z" fill="#B2D3EA"/>
<path d="M194 340.4L167.9 325.3C166.3 324.4 166.5 322.8 168.3 321.7L193.5 307.1C195.4 306 198.2 305.9 199.8 306.8L226 322C227.6 322.9 227.4 324.5 225.6 325.6L200.4 340.2C198.5 341.2 195.7 341.3 194 340.4Z" fill="#B2D3EA"/>
<path d="M234.7 310.5V299.2H209.4L200.7 294.1C198.7 292.9 195.2 293.1 192.9 294.4L184.7 299.1H159.4V310.7C159.3 311.5 159.8 312.2 160.7 312.8L193.4 331.7C195.4 332.9 198.9 332.7 201.2 331.4L232.8 313.2C234.1 312.4 234.7 311.4 234.7 310.5Z" fill="#396CAA"/>
<path d="M197 293.3C195.5 293.3 194 293.7 192.8 294.4L184.6 299.1H159.3V310.7C159.2 311.5 159.7 312.2 160.6 312.8L193.3 331.7C194.3 332.3 195.6 332.5 196.9 332.5V293.3H197Z" fill="#396CAA"/>
<path d="M162.1 299.1H159.2V310.7C159.1 311.5 159.6 312.2 160.5 312.8L162 313.7V299.1H162.1Z" fill="#5793CE"/>
<path d="M193.8 332C195.5 332.7 198 332.7 200.1 331.9V318.7H193.8V332Z" fill="#5793CE"/>
<path d="M193.3 320.2L160.6 301.3C158.6 300.1 158.8 298.1 161.2 296.8L192.8 278.6C195.1 277.3 198.6 277.1 200.6 278.3L233.3 297.2C235.3 298.4 235.1 300.4 232.7 301.7L201.1 319.9C198.8 321.2 195.3 321.3 193.3 320.2Z" fill="#D4ECFF"/>
<path d="M193.9 316.8L166.5 301C164.8 300 165 298.3 167 297.2L193.5 281.9C195.4 280.8 198.4 280.7 200.1 281.6L227.5 297.4C229.2 298.4 229 300.1 227 301.2L200.5 316.5C198.5 317.6 195.6 317.7 193.9 316.8Z" fill="#5793CE"/>
<path d="M222.6 313.4C222.6 314.2 222 315.3 221.3 315.7C220.6 316.1 220 315.8 220 314.9C220 314.1 220.6 313 221.3 312.6C222 312.3 222.6 312.6 222.6 313.4Z" fill="#D4ECFF"/>
<path d="M226.9 311C226.9 311.8 226.3 312.9 225.6 313.3C224.9 313.7 224.3 313.4 224.3 312.5C224.3 311.7 224.9 310.6 225.6 310.2C226.3 309.8 226.9 310.2 226.9 311Z" fill="#D4ECFF"/>
<path d="M231.1 308.5C231.1 309.3 230.5 310.4 229.8 310.8C229.1 311.2 228.5 310.9 228.5 310C228.5 309.2 229.1 308.1 229.8 307.7C230.5 307.4 231.1 307.7 231.1 308.5Z" fill="#D4ECFF"/>
<path d="M234.7 292.4V281.1H209.4L200.7 276C198.7 274.8 195.2 275 192.9 276.3L184.7 281H159.4V292.6C159.3 293.4 159.8 294.1 160.7 294.7L193.4 313.6C195.4 314.8 198.9 314.6 201.2 313.3L232.8 295.1C234.1 294.4 234.7 293.4 234.7 292.4Z" fill="#396CAA"/>
<path d="M197 275.3C195.5 275.3 194 275.7 192.8 276.4L184.6 281.1H159.3V292.7C159.2 293.5 159.7 294.2 160.6 294.8L193.3 313.7C194.3 314.3 195.6 314.5 196.9 314.5V275.3H197Z" fill="#396CAA"/>
<path d="M162.1 281.1H159.2V292.7C159.1 293.5 159.6 294.2 160.5 294.8L162 295.7V281.1H162.1Z" fill="#5793CE"/>
<path d="M193.8 313.9C195.5 314.6 198 314.6 200.1 313.8V300.6H193.8V313.9Z" fill="#5793CE"/>
<path d="M193.3 302.1L160.6 283.2C158.6 282 158.8 280 161.2 278.7L192.8 260.5C195.1 259.2 198.6 259 200.6 260.2L233.3 279.1C235.3 280.3 235.1 282.3 232.7 283.6L201.1 301.8C198.8 303.1 195.3 303.3 193.3 302.1Z" fill="#D4ECFF"/>
<path d="M193.9 298.7L166.5 282.9C164.8 281.9 165 280.2 167 279.1L193.5 263.8C195.4 262.7 198.4 262.6 200.1 263.5L227.5 279.3C229.2 280.3 229 282 227 283.1L200.5 298.4C198.5 299.6 195.6 299.7 193.9 298.7Z" fill="#5793CE"/>
<path d="M222.6 295.4C222.6 296.2 222 297.3 221.3 297.7C220.6 298.1 220 297.8 220 296.9C220 296.1 220.6 295 221.3 294.6C222 294.2 222.6 294.6 222.6 295.4Z" fill="#D4ECFF"/>
<path d="M226.9 293C226.9 293.8 226.3 294.9 225.6 295.3C224.9 295.7 224.3 295.4 224.3 294.5C224.3 293.7 224.9 292.6 225.6 292.2C226.3 291.8 226.9 292.1 226.9 293Z" fill="#D4ECFF"/>
<path d="M231.1 290.5C231.1 291.3 230.5 292.4 229.8 292.8C229.1 293.2 228.5 292.9 228.5 292C228.5 291.2 229.1 290.1 229.8 289.7C230.5 289.3 231.1 289.7 231.1 290.5Z" fill="#D4ECFF"/>
<path d="M234.7 274.4V263.1H209.4L200.7 258C198.7 256.8 195.2 257 192.9 258.3L184.7 263H159.4V274.6C159.3 275.4 159.8 276.1 160.7 276.7L193.4 295.6C195.4 296.8 198.9 296.6 201.2 295.3L232.8 277.1C234.1 276.3 234.7 275.3 234.7 274.4Z" fill="#396CAA"/>
<path d="M197 257.3C195.5 257.3 194 257.7 192.8 258.4L184.6 263.1H159.3V274.7C159.2 275.5 159.7 276.2 160.6 276.8L193.3 295.7C194.3 296.3 195.6 296.5 196.9 296.5V257.3H197Z" fill="#396CAA"/>
<path d="M162.1 263.1H159.2V274.7C159.1 275.5 159.6 276.2 160.5 276.8L162 277.7V263.1H162.1Z" fill="#5793CE"/>
<path d="M193.8 295.9C195.5 296.6 198 296.6 200.1 295.8V282.6H193.8V295.9Z" fill="#5793CE"/>
<path d="M193.3 284.1L160.6 265.2C158.6 264 158.8 262 161.2 260.7L192.8 242.5C195.1 241.2 198.6 241 200.6 242.2L233.3 261.1C235.3 262.3 235.1 264.3 232.7 265.6L201.1 283.8C198.8 285.1 195.3 285.2 193.3 284.1Z" fill="#D4ECFF"/>
<path d="M232.7 263.3L201.1 281.5C198.8 282.8 195.3 283 193.3 281.8L160.6 263C160.2 262.7 159.8 262.4 159.6 262.1C158.9 263.2 159.2 264.4 160.6 265.2L193.3 284.1C195.3 285.3 198.8 285.1 201.1 283.8L232.7 265.6C234.5 264.6 235 263.1 234.3 262C234 262.4 233.5 262.9 232.7 263.3Z" fill="white"/>
<path d="M222.6 277.4C222.6 278.2 222 279.3 221.3 279.7C220.6 280.1 220 279.8 220 278.9C220 278 220.6 277 221.3 276.6C222 276.2 222.6 276.5 222.6 277.4Z" fill="#D4ECFF"/>
<path d="M226.9 274.9C226.9 275.7 226.3 276.8 225.6 277.2C224.9 277.6 224.3 277.3 224.3 276.4C224.3 275.6 224.9 274.5 225.6 274.1C226.3 273.7 226.9 274.1 226.9 274.9Z" fill="#D4ECFF"/>
<path d="M231.1 272.5C231.1 273.3 230.5 274.4 229.8 274.8C229.1 275.2 228.5 274.9 228.5 274C228.5 273.2 229.1 272.1 229.8 271.7C230.5 271.3 231.1 271.6 231.1 272.5Z" fill="#D4ECFF"/>
<path d="M195.3 272.4L180 263.6C179.1 263.1 179.2 262.1 180.3 261.5L195.1 253C196.2 252.4 197.8 252.3 198.8 252.8L214.1 261.6C215 262.1 214.9 263.1 213.8 263.7L199 272.2C197.8 272.9 196.2 272.9 195.3 272.4Z" fill="#4553C7"/>
<path d="M196.7 265L194.6 263.8C194.5 263.7 194.5 263.6 194.6 263.5L196.6 262.3C196.8 262.2 197 262.2 197.1 262.3L199.2 263.5C199.3 263.6 199.3 263.7 199.2 263.8L197.2 265C197.1 265 196.8 265.1 196.7 265Z" fill="#D4ECFF"/>
<path d="M179.9 263.5C180 263.5 180.1 263.4 180.2 263.4L195 254.9C196.1 254.3 197.7 254.2 198.7 254.7L214 263.5C214.9 262.9 214.9 262 214 261.5L198.7 252.7C197.8 252.2 196.1 252.2 195 252.9L180.2 261.4C179.1 262 179 263 179.9 263.5Z" fill="#396CAA"/>
<path d="M146.7 82.1C146.7 82.7 146.3 82.9 145.8 82.6C145.3 82.3 144.9 81.6 144.9 81.1C144.9 80.5 145.3 80.3 145.8 80.6C146.3 80.9 146.7 81.6 146.7 82.1Z" fill="#D4ECFF"/>
<path d="M154.5 86.9C154.5 87.5 154.1 87.7 153.6 87.4C153.1 87.1 152.7 86.4 152.7 85.9C152.7 85.3 153.1 85.1 153.6 85.4C154.1 85.6 154.5 86.3 154.5 86.9Z" fill="#D4ECFF"/>
<path d="M162.3 91.6C162.3 92.2 161.9 92.4 161.4 92.1C160.9 91.8 160.5 91.1 160.5 90.6C160.5 90 160.9 89.8 161.4 90.1C161.9 90.4 162.3 91.1 162.3 91.6Z" fill="#D4ECFF"/>
<path d="M170.2 96.4C170.2 97 169.8 97.2 169.3 96.9C168.8 96.6 168.4 95.9 168.4 95.4C168.4 94.8 168.8 94.6 169.3 94.9C169.8 95.1 170.2 95.8 170.2 96.4Z" fill="#D4ECFF"/>
<path d="M152.1 91.6C152.1 92 151.7 92.4 151.3 92.4C150.9 92.4 150.5 92 150.5 91.6C150.5 91.2 150.9 90.8 151.3 90.8C151.8 90.8 152.1 91.2 152.1 91.6Z" fill="#D4ECFF"/>
<path d="M159.4 96C159.4 96.4 159 96.8 158.6 96.8C158.2 96.8 157.8 96.4 157.8 96C157.8 95.6 158.2 95.2 158.6 95.2C159.1 95.2 159.4 95.6 159.4 96Z" fill="#D4ECFF"/>
<path d="M165.9 101.2C166.342 101.2 166.7 100.842 166.7 100.4C166.7 99.9582 166.342 99.6 165.9 99.6C165.458 99.6 165.1 99.9582 165.1 100.4C165.1 100.842 165.458 101.2 165.9 101.2Z" fill="#D4ECFF"/>
<path d="M174 104.6C174 105 173.6 105.4 173.2 105.4C172.8 105.4 172.4 105 172.4 104.6C172.4 104.2 172.8 103.8 173.2 103.8C173.7 103.8 174 104.1 174 104.6Z" fill="#D4ECFF"/>
</g>
<defs>
<linearGradient id="paint0_linear" x1="12.689" y1="188.8" x2="88.1085" y2="188.8" gradientUnits="userSpaceOnUse">
<stop stop-color="#C0D6FF"/>
<stop offset="0.2978" stop-color="#C5DBFF"/>
<stop offset="0.6488" stop-color="#D3E9FF"/>
<stop offset="1" stop-color="#E9FFFF"/>
</linearGradient>
<clipPath id="clip0">
<rect width="282.8" height="355.9" fill="white"/>
</clipPath>
</defs>
</svg>
