<svg width="395" height="279" viewBox="0 0 395 279" fill="none" xmlns="http://www.w3.org/2000/svg">
<g clip-path="url(#clip0)">
<path d="M177.061 278.406C174.442 278.406 171.937 277.854 169.66 276.842L12.2974 203.398C11.1588 202.845 10.4756 201.925 10.4756 200.821C10.4756 199.716 11.1588 198.796 12.2974 198.244L110.791 152.318L111.588 152.686L275.555 229.167C276.693 229.72 277.377 230.64 277.377 231.744C277.377 232.849 276.693 233.769 275.555 234.321L184.462 276.75C182.185 277.854 179.566 278.406 177.061 278.406ZM110.791 155.171L13.8916 200.452C13.6638 200.544 13.55 200.729 13.55 200.913C13.55 201.005 13.55 201.189 13.8916 201.373L171.14 274.725C174.784 276.473 179.338 276.473 182.982 274.725L273.961 232.205C274.188 232.113 274.302 231.928 274.302 231.744C274.302 231.652 274.302 231.468 273.961 231.284L110.791 155.171Z" fill="url(#paint0_linear)"/>
<path d="M110.563 122.039L132.426 17.0265L130.718 16.3823L133.336 15.1858C133.906 14.9097 134.589 14.9097 135.386 15.2779L310.512 97.005C311.992 97.6492 313.017 99.3979 312.789 100.594L290.699 206.435C290.585 206.987 290.243 207.355 289.788 207.539L287.169 208.736L286.714 206.803H286.827L112.841 125.628C111.474 124.984 110.336 123.235 110.563 122.039Z" fill="url(#paint1_linear)"/>
<path d="M309.487 99.8581L312.333 98.8457C312.675 99.3979 312.789 100.042 312.675 100.594L290.585 206.435C290.471 206.987 290.129 207.355 289.674 207.539L287.055 208.736L286.6 206.803H286.713L277.946 202.661L309.487 99.8581Z" fill="url(#paint2_linear)"/>
<path d="M110.108 126.916L285.233 208.644C286.6 209.288 287.738 208.92 287.966 207.815L310.056 101.975C310.284 100.778 309.259 99.0298 307.779 98.3856L132.653 16.5664C131.287 15.9222 130.148 16.2903 129.92 17.3947L107.83 123.327C107.603 124.524 108.741 126.18 110.108 126.916Z" fill="#242993"/>
<g opacity="0.51">
<path opacity="0.51" d="M134.931 23.2849L303.793 102.067L282.842 201.741L114.207 123.051L134.931 23.2849Z" fill="#4553C7"/>
</g>
<path d="M0.11377 176.983L9.67849 181.033L105.44 136.304C107.034 135.568 109.88 135.66 111.702 136.488L276.921 213.613C278.515 212.877 285.689 210.116 285.689 210.116L282.159 217.479C282.045 217.847 281.704 218.123 281.134 218.399L180.249 265.521C178.655 266.257 175.809 266.165 173.987 265.337L5.00999 186.371C4.21293 186.003 3.75747 185.543 3.64361 185.175L0.11377 176.983Z" fill="url(#paint3_linear)"/>
<path d="M1.5939 178.272L174.897 259.171C176.833 260.091 179.68 260.183 181.274 259.355L284.664 211.128C286.258 210.392 286.144 209.012 284.208 208.183L110.905 127.284C108.969 126.364 106.123 126.272 104.528 127.1L1.13844 175.327C-0.569549 176.063 -0.341818 177.444 1.5939 178.272Z" fill="url(#paint4_linear)"/>
<path d="M227.162 241.684V240.119C227.162 239.935 227.048 239.935 226.934 239.935L220.216 243.065C220.102 243.157 219.988 243.341 219.988 243.433V244.997C219.988 245.181 220.102 245.181 220.216 245.181L226.934 242.052C227.048 241.96 227.162 241.776 227.162 241.684Z" fill="#2859CB"/>
<path d="M217.142 246.378V244.813C217.142 244.629 217.028 244.629 216.914 244.629L210.196 247.758C210.082 247.85 209.968 248.034 209.968 248.127V249.691C209.968 249.875 210.082 249.875 210.196 249.875L216.914 246.746C217.028 246.654 217.142 246.47 217.142 246.378Z" fill="#2859CB"/>
<path d="M257.678 206.619L113.638 139.433C112.727 138.973 111.474 138.973 110.563 139.433L59.3239 163.454C58.6407 163.822 58.6407 164.651 59.3239 165.019L203.25 232.204C204.161 232.665 205.414 232.665 206.324 232.204L257.678 208.275C258.475 207.815 258.475 206.895 257.678 206.619Z" fill="#ADC8FF"/>
<path d="M257.678 208.183L257.109 208.459L113.638 141.458C112.727 140.998 111.474 140.998 110.564 141.458L59.7795 165.203L59.2101 164.927C58.527 164.559 58.527 163.73 59.2101 163.362L110.45 139.341C111.361 138.881 112.613 138.881 113.524 139.341L257.564 206.527C258.475 206.895 258.475 207.815 257.678 208.183Z" fill="#91AFFF"/>
<path d="M106.692 145.507L231.83 203.858L237.41 201.281L112.271 142.838L106.692 145.507Z" fill="#242993"/>
<path d="M93.1421 151.858L210.424 206.619L216.003 203.95L98.7215 149.281L93.1421 151.858Z" fill="#242993"/>
<path d="M84.2607 155.999L222.38 220.424L227.959 217.847L89.8402 153.422L84.2607 155.999Z" fill="#242993"/>
<path d="M75.3789 160.141L213.498 224.566L219.077 221.989L80.9583 157.564L75.3789 160.141Z" fill="#242993"/>
<path d="M66.4976 164.283L204.617 228.707L210.196 226.13L72.077 161.706L66.4976 164.283Z" fill="#242993"/>
<path d="M239.346 207.355L244.925 209.932L250.505 207.355L244.925 204.778L239.346 207.355Z" fill="#242993"/>
<path d="M219.761 210.944L231.261 216.374L236.841 213.705L225.34 208.367L219.761 210.944Z" fill="#242993"/>
<path d="M108.172 222.817L69.3441 204.686C67.8638 203.95 67.8638 202.845 69.3441 202.109L95.8748 189.684C97.355 188.948 99.8601 188.948 101.34 189.684L140.169 207.815C141.649 208.551 141.649 209.656 140.169 210.392L113.638 222.817C112.158 223.553 109.653 223.553 108.172 222.817Z" fill="url(#paint5_linear)"/>
<path d="M140.168 208.92L101.34 190.789C99.8597 190.052 97.3547 190.052 95.8744 190.789L69.3437 203.213C68.8883 203.398 68.5467 203.674 68.4328 203.95C67.9773 203.305 68.3189 202.661 69.3437 202.109L95.8744 189.684C97.3547 188.948 99.8597 188.948 101.34 189.684L140.168 207.815C141.193 208.275 141.535 209.012 141.079 209.656C140.965 209.472 140.737 209.196 140.168 208.92Z" fill="#91AFFF"/>
<g opacity="0.11">
<g opacity="0.11">
<path opacity="0.11" d="M110.791 127.1L284.095 207.999C286.03 208.92 288.877 209.012 290.471 208.183L393.861 159.957C395.455 159.221 395.341 157.84 393.406 157.012L220.102 76.021C218.166 75.1007 215.32 75.0086 213.726 75.837L110.336 124.063C108.628 124.892 108.855 126.18 110.791 127.1Z" fill="url(#paint6_linear)"/>
<path opacity="0.11" d="M284.55 141.55L245.722 123.419C244.242 122.683 244.242 121.578 245.722 120.842L272.253 108.417C273.733 107.681 276.238 107.681 277.718 108.417L316.546 126.548C318.027 127.285 318.027 128.389 316.546 129.125L290.016 141.55C288.535 142.286 286.03 142.286 284.55 141.55Z" fill="url(#paint7_linear)"/>
<path opacity="0.11" d="M316.66 127.653L277.832 109.522C276.352 108.785 273.847 108.785 272.367 109.522L245.836 121.946C245.38 122.131 245.039 122.407 244.925 122.683C244.47 122.039 244.811 121.394 245.836 120.842L272.367 108.417C273.847 107.681 276.352 107.681 277.832 108.417L316.66 126.548C317.685 127.008 318.027 127.745 317.571 128.389C317.344 128.205 317.116 127.929 316.66 127.653Z" fill="#91AFFF"/>
<g opacity="0.11">
<path opacity="0.11" d="M333.626 169.897L189.586 102.711C188.675 102.251 187.423 102.251 186.512 102.711L135.272 126.732C134.589 127.101 134.589 127.929 135.272 128.297L279.198 195.483C280.109 195.943 281.362 195.943 282.273 195.483L333.626 171.553C334.423 171.093 334.423 170.265 333.626 169.897Z" fill="#ADC8FF"/>
<path opacity="0.11" d="M333.626 171.461L333.057 171.737L189.586 104.736C188.675 104.276 187.423 104.276 186.512 104.736L135.728 128.481L135.158 128.205C134.475 127.837 134.475 127.008 135.158 126.64L186.398 102.619C187.309 102.159 188.561 102.159 189.472 102.619L333.512 169.805C334.423 170.265 334.423 171.093 333.626 171.461Z" fill="#91AFFF"/>
<g opacity="0.11">
<path opacity="0.11" d="M148.708 125.076L274.188 183.61L269.178 185.911L143.698 127.377L148.708 125.076Z" fill="#242993"/>
<path opacity="0.11" d="M161.917 118.909L281.134 174.499L276.238 176.892L156.907 121.21L161.917 118.909Z" fill="#242993"/>
<path opacity="0.11" d="M290.13 178.64L301.175 183.886L296.278 186.187L285.12 181.033L290.13 178.64Z" fill="#242993"/>
<path opacity="0.11" d="M280.223 186.463L287.966 190.052L283.07 192.353L275.327 188.764L280.223 186.463Z" fill="#242993"/>
<path opacity="0.11" d="M170.229 115.044L309.487 180.021L304.476 182.322L165.219 117.345L170.229 115.044Z" fill="#242993"/>
<path opacity="0.11" d="M178.541 111.178L317.799 176.155L312.789 178.456L173.531 113.479L178.541 111.178Z" fill="#242993"/>
<path opacity="0.11" d="M186.739 107.313L326.111 172.29L321.101 174.591L181.843 109.614L186.739 107.313Z" fill="#242993"/>
</g>
</g>
</g>
</g>
<path d="M288.194 107.957L291.496 109.706L291.838 107.681L288.535 105.932L288.194 107.957Z" fill="#42FFFF"/>
<path d="M285.461 121.486L288.763 123.143L291.154 111.547L287.738 109.798L285.461 121.486Z" fill="#42FFFF"/>
<path d="M284.095 127.929L287.397 129.677L288.422 124.984L285.006 123.327L284.095 127.929Z" fill="#42FFFF"/>
<path d="M282.728 134.647L286.03 136.304L287.055 131.702L283.639 129.953L282.728 134.647Z" fill="#42FFFF"/>
<path d="M281.817 111.823L285.233 113.571L286.144 108.969L282.842 107.221L281.817 111.823Z" fill="#42FFFF"/>
<path d="M280.109 120.75L283.412 122.407L284.778 115.596L281.476 113.939L280.109 120.75Z" fill="#42FFFF"/>
<path d="M278.401 128.849L281.703 130.598L282.956 124.8L279.654 123.051L278.401 128.849Z" fill="#42FFFF"/>
<path d="M281.362 141.274L284.778 143.022L285.689 138.421L282.387 136.672L281.362 141.274Z" fill="#42FFFF"/>
<path d="M283.184 105.38L286.486 107.129L286.941 105.104L283.525 103.447L283.184 105.38Z" fill="#42FFFF"/>
<path d="M277.604 146.52L283.412 149.557L283.753 147.624L277.946 144.587L277.604 146.52Z" fill="#42FFFF"/>
<path opacity="0.5" d="M165.333 9.38757L150.872 2.57698V0L165.333 6.81059V9.38757Z" fill="#42FFFF"/>
<path opacity="0.5" d="M172.848 12.7929L167.61 10.4V7.823L172.848 10.2159V12.7929Z" fill="#42FFFF"/>
<path opacity="0.5" d="M178.541 15.5539L175.011 13.8973V11.3203L178.541 12.9769V15.5539Z" fill="#42FFFF"/>
<path opacity="0.5" d="M158.728 12.1486L150.872 8.46724V5.89026L158.728 9.57166V12.1486Z" fill="#42FFFF"/>
<path opacity="0.5" d="M170.684 17.7627L161.006 13.161V10.584L170.684 15.1857V17.7627Z" fill="#42FFFF"/>
<path opacity="0.5" d="M176.491 20.4317L172.848 18.7751V16.1981L176.491 17.8547V20.4317Z" fill="#42FFFF"/>
<path opacity="0.5" d="M181.957 23.0088L178.427 21.3521V18.7751L181.957 20.4318V23.0088Z" fill="#42FFFF"/>
<path d="M156.565 17.0265L150.872 14.3575V11.7805L156.565 14.4495V17.0265Z" fill="#42FFFF"/>
<path d="M160.778 18.9592L158.729 18.0389V15.4619L160.778 16.3823V18.9592Z" fill="#42FFFF"/>
<path opacity="0.5" d="M166.471 21.7203L162.941 20.0637V17.3947L166.471 19.1433V21.7203Z" fill="#42FFFF"/>
<path opacity="0.5" d="M171.937 30.0955L150.872 20.2478V17.6708L171.937 27.5185V30.0955Z" fill="#42FFFF"/>
<path opacity="0.5" d="M179.452 33.5928L174.214 31.1079V28.5309L179.452 31.0158V33.5928Z" fill="#42FFFF"/>
<path opacity="0.5" d="M156.565 28.8069L150.872 26.1379V23.5609L156.565 26.2299V28.8069Z" fill="#42FFFF"/>
<path opacity="0.5" d="M170.001 35.0653L158.729 29.8193V27.2423L170.001 32.4883V35.0653Z" fill="#42FFFF"/>
<path opacity="0.5" d="M175.808 37.8264L172.165 36.1697V33.5007L175.808 35.2494V37.8264Z" fill="#42FFFF"/>
<path opacity="0.5" d="M162.6 37.4582L150.872 32.0282V29.4512L162.6 34.8812V37.4582Z" fill="#42FFFF"/>
<path d="M173.189 42.5202L164.763 38.5627V35.9857L173.189 39.9432V42.5202Z" fill="#42FFFF"/>
<path opacity="0.5" d="M181.16 46.2016L175.467 43.5325V40.9556L181.16 43.6246V46.2016Z" fill="#42FFFF"/>
<path opacity="0.5" d="M154.743 39.7591L150.872 37.9184V35.3414L154.743 37.1821V39.7591Z" fill="#42FFFF"/>
<path opacity="0.5" d="M162.258 43.2565L157.021 40.7716V38.1946L162.258 40.6795V43.2565Z" fill="#42FFFF"/>
<path opacity="0.5" d="M172.847 48.2264L164.421 44.2689V41.6919L172.847 45.6494V48.2264Z" fill="#42FFFF"/>
<path opacity="0.5" d="M162.941 49.5148L150.872 43.8087V41.2317L162.941 46.9379V49.5148Z" fill="#42FFFF"/>
<path opacity="0.5" d="M176.491 55.7732L165.219 50.5272V47.9502L176.491 53.1962V55.7732Z" fill="#42FFFF"/>
<path d="M182.298 58.5343L178.769 56.8776V54.3007L182.298 55.9573V58.5343Z" fill="#42FFFF"/>
<path opacity="0.5" d="M187.878 61.1113L184.348 59.4547V56.8777L187.878 58.5343V61.1113Z" fill="#42FFFF"/>
<path opacity="0.5" d="M158.045 53.1042L150.872 49.6989V47.1219L158.045 50.5272V53.1042Z" fill="#42FFFF"/>
<path d="M188.447 20.1557L198.581 24.8495V22.2725L188.447 17.5787V20.1557Z" fill="#42FFFF"/>
<path opacity="0.5" d="M190.611 27.0583L198.581 30.7397V28.1627L190.611 24.4813V27.0583Z" fill="#42FFFF"/>
<path opacity="0.5" d="M192.774 33.9609L198.581 36.6299V34.0529L192.774 31.3839V33.9609Z" fill="#42FFFF"/>
<path opacity="0.5" d="M190.269 38.6547L198.581 42.5202V39.9432L190.269 36.0778V38.6547Z" fill="#42FFFF"/>
<path opacity="0.5" d="M192.774 45.7414L198.581 48.4104V45.8334L192.774 43.1644V45.7414Z" fill="#42FFFF"/>
<path opacity="0.5" d="M191.294 50.8953L198.581 54.3006V51.7237L191.294 48.3184V50.8953Z" fill="#42FFFF"/>
<path opacity="0.5" d="M194.596 58.3502L198.581 60.1909V57.6139L194.596 55.7732V58.3502Z" fill="#42FFFF"/>
<path opacity="0.5" d="M190.838 62.4918L198.581 66.0811V63.5042L190.838 59.9148V62.4918Z" fill="#42FFFF"/>
<path opacity="0.5" d="M191.294 68.5661L198.581 71.9714V69.3944L191.294 65.9891V68.5661Z" fill="#42FFFF"/>
<path opacity="0.5" d="M163.397 55.5892L160.322 54.1167V51.5397L163.397 53.0122V55.5892Z" fill="#42FFFF"/>
<path opacity="0.5" d="M172.62 59.8228L165.674 56.6015V54.0245L172.62 57.2458V59.8228Z" fill="#42FFFF"/>
<path opacity="0.5" d="M221.696 35.5255L207.121 28.807V26.23L221.696 32.9485V35.5255Z" fill="#42FFFF"/>
<path opacity="0.5" d="M229.097 39.0229L223.859 36.63V33.9609L229.097 36.4459V39.0229Z" fill="#42FFFF"/>
<path d="M234.904 41.6919L231.375 40.0352V37.4583L234.904 39.1149V41.6919Z" fill="#42FFFF"/>
<path opacity="0.5" d="M215.092 38.3786L207.121 34.6972V32.1202L215.092 35.8016V38.3786Z" fill="#42FFFF"/>
<path opacity="0.5" d="M227.048 43.9007L217.255 39.3909V36.814L227.048 41.3237V43.9007Z" fill="#42FFFF"/>
<path d="M232.741 46.5698L229.211 44.9132V42.3362L232.741 43.9928V46.5698Z" fill="#42FFFF"/>
<path opacity="0.5" d="M238.32 49.1467L234.677 47.4901V44.9131L238.32 46.5697V49.1467Z" fill="#42FFFF"/>
<path opacity="0.5" d="M212.928 43.2565L207.121 40.5875V38.0105L212.928 40.6795V43.2565Z" fill="#42FFFF"/>
<path opacity="0.5" d="M217.028 45.1892L215.092 44.2689V41.6919L217.028 42.6122V45.1892Z" fill="#42FFFF"/>
<path opacity="0.5" d="M222.835 47.8582L219.305 46.2016V43.6246L222.835 45.2813V47.8582Z" fill="#42FFFF"/>
<path opacity="0.5" d="M228.3 56.3255L207.121 46.4777V43.9008L228.3 53.7485V56.3255Z" fill="#42FFFF"/>
<path opacity="0.5" d="M235.702 59.8228L230.578 57.3378V54.7609L235.702 57.2458V59.8228Z" fill="#42FFFF"/>
<path opacity="0.5" d="M212.928 55.037L207.121 52.368V49.791L212.928 52.46V55.037Z" fill="#42FFFF"/>
<path opacity="0.5" d="M226.364 61.2953L215.092 56.0493V53.4723L226.364 58.7183V61.2953Z" fill="#42FFFF"/>
<path opacity="0.5" d="M232.058 63.9643L228.528 62.3077V59.7307L232.058 61.3873V63.9643Z" fill="#42FFFF"/>
<path d="M218.849 63.6882L207.121 58.2581V55.6812L218.849 61.1112V63.6882Z" fill="#42FFFF"/>
<path opacity="0.5" d="M229.553 68.6581L221.127 64.7006V62.1237L229.553 66.0812V68.6581Z" fill="#42FFFF"/>
<path opacity="0.5" d="M237.523 72.4315L231.83 69.7625V67.0935L237.523 69.8546V72.4315Z" fill="#42FFFF"/>
<path opacity="0.5" d="M211.106 65.9891L207.121 64.1484V61.5714L211.106 63.4121V65.9891Z" fill="#42FFFF"/>
<path opacity="0.5" d="M218.622 69.3944L213.384 67.0015V64.4246L218.622 66.8175V69.3944Z" fill="#42FFFF"/>
<path d="M229.211 74.3643L220.785 70.4989V67.9219L229.211 71.7873V74.3643Z" fill="#42FFFF"/>
<path opacity="0.5" d="M219.305 75.6528L207.121 70.0386V67.4617L219.305 73.0758V75.6528Z" fill="#42FFFF"/>
<path opacity="0.5" d="M232.855 82.0033L221.468 76.6652V74.0883L232.855 79.4263V82.0033Z" fill="#42FFFF"/>
<path opacity="0.5" d="M238.662 84.6722L235.132 83.0156V80.4386L238.662 82.0952V84.6722Z" fill="#42FFFF"/>
<path opacity="0.5" d="M244.241 87.2492L240.598 85.5926V83.0156L244.241 84.6723V87.2492Z" fill="#42FFFF"/>
<path opacity="0.5" d="M214.408 79.2422L207.121 75.9289V73.3519L214.408 76.6652V79.2422Z" fill="#42FFFF"/>
<path d="M244.811 46.2937L254.831 51.0795V48.5025L244.811 43.7167V46.2937Z" fill="#42FFFF"/>
<path opacity="0.5" d="M246.974 53.1962L254.831 56.9697V54.3927L246.974 50.6193V53.1962Z" fill="#42FFFF"/>
<path opacity="0.5" d="M249.138 60.1909L254.831 62.8599V60.2829L249.138 57.5219V60.1909Z" fill="#42FFFF"/>
<path opacity="0.5" d="M246.519 64.7927L254.831 68.7502V66.1732L246.519 62.2157V64.7927Z" fill="#42FFFF"/>
<path opacity="0.5" d="M249.138 71.9714L254.831 74.6404V72.0634L249.138 69.3944V71.9714Z" fill="#42FFFF"/>
<path opacity="0.5" d="M247.657 77.1253L254.831 80.5306V77.9536L247.657 74.5483V77.1253Z" fill="#42FFFF"/>
<path opacity="0.5" d="M250.959 84.5802L254.831 86.4209V83.8439L250.959 81.9111V84.5802Z" fill="#42FFFF"/>
<path opacity="0.5" d="M247.202 88.7218L254.831 92.3111V89.7341L247.202 86.1448V88.7218Z" fill="#42FFFF"/>
<path opacity="0.5" d="M247.657 94.7961L254.831 98.2014V95.6244L247.657 92.2191V94.7961Z" fill="#42FFFF"/>
<path d="M219.76 81.7272L216.686 80.3466V77.7697L219.76 79.1502V81.7272Z" fill="#42FFFF"/>
<path opacity="0.5" d="M228.87 86.0527L221.924 82.8315V80.2545L228.87 83.4757V86.0527Z" fill="#42FFFF"/>
<path opacity="0.5" d="M165.333 62.3998L150.872 55.5892V53.0122L165.333 59.8228V62.3998Z" fill="#42FFFF"/>
<path opacity="0.5" d="M172.848 65.8971L167.61 63.4122V60.8352L172.848 63.3202V65.8971Z" fill="#42FFFF"/>
<path opacity="0.5" d="M178.541 68.5661L175.011 66.9095V64.3325L178.541 65.9891V68.5661Z" fill="#42FFFF"/>
<path opacity="0.5" d="M158.728 65.2529L150.872 61.4794V58.9025L158.728 62.6759V65.2529Z" fill="#42FFFF"/>
<path opacity="0.5" d="M170.684 70.7749L161.006 66.2652V63.6882L170.684 68.198V70.7749Z" fill="#42FFFF"/>
<path opacity="0.5" d="M176.491 73.4439L172.848 71.7873V69.2103L176.491 70.867V73.4439Z" fill="#42FFFF"/>
<path opacity="0.5" d="M181.957 76.021L178.427 74.3643V71.7874L181.957 73.444V76.021Z" fill="#42FFFF"/>
<path opacity="0.5" d="M156.565 70.1308L150.872 67.3697V64.7927L156.565 67.4617V70.1308Z" fill="#42FFFF"/>
<path opacity="0.5" d="M160.778 72.0635L158.729 71.1431V68.5662L160.778 69.4865V72.0635Z" fill="#42FFFF"/>
<path opacity="0.5" d="M166.471 74.7324L162.941 73.0758V70.4988L166.471 72.1554V74.7324Z" fill="#42FFFF"/>
<path opacity="0.5" d="M171.937 83.1997L150.872 73.26V70.683L171.937 80.6228V83.1997Z" fill="#42FFFF"/>
<path opacity="0.5" d="M179.452 86.6049L174.214 84.212V81.635L179.452 84.0279V86.6049Z" fill="#42FFFF"/>
<path opacity="0.5" d="M156.565 81.9112L150.872 79.1501V76.5731L156.565 79.3342V81.9112Z" fill="#42FFFF"/>
<path opacity="0.5" d="M170.001 88.1695L158.729 82.9235V80.3466L170.001 85.5925V88.1695Z" fill="#42FFFF"/>
<path opacity="0.5" d="M175.808 90.8386L172.165 89.182V86.605L175.808 88.2616V90.8386Z" fill="#42FFFF"/>
<path opacity="0.5" d="M162.6 90.5625L150.872 85.0404V82.4634L162.6 87.9855V90.5625Z" fill="#42FFFF"/>
<path opacity="0.5" d="M173.189 95.5324L164.763 91.5749V88.9979L173.189 92.9554V95.5324Z" fill="#42FFFF"/>
<path opacity="0.5" d="M181.16 99.2138L175.467 96.5448V93.9678L181.16 96.6368V99.2138Z" fill="#42FFFF"/>
<path opacity="0.5" d="M154.743 92.8633L150.872 91.0227V88.3536L154.743 90.2864V92.8633Z" fill="#42FFFF"/>
<path opacity="0.5" d="M162.258 96.2686L157.021 93.8757V91.2987L162.258 93.6916V96.2686Z" fill="#42FFFF"/>
<path opacity="0.5" d="M172.847 101.239L164.421 97.3731V94.7961L172.847 98.6616V101.239Z" fill="#42FFFF"/>
<path opacity="0.5" d="M162.941 102.527L150.872 96.9129V94.2439L162.941 99.9501V102.527Z" fill="#42FFFF"/>
<path opacity="0.5" d="M176.491 108.877L165.219 103.539V100.962L176.491 106.3V108.877Z" fill="#42FFFF"/>
<path opacity="0.5" d="M182.298 111.546L178.769 109.89V107.313L182.298 108.969V111.546Z" fill="#42FFFF"/>
<path opacity="0.5" d="M187.878 114.124L184.348 112.467V109.89L187.878 111.547V114.124Z" fill="#42FFFF"/>
<path opacity="0.5" d="M158.045 106.116L150.872 102.803V100.226L158.045 103.539V106.116Z" fill="#42FFFF"/>
<path opacity="0.5" d="M188.447 73.1678L198.581 77.8616V75.2846L188.447 70.5908V73.1678Z" fill="#42FFFF"/>
<path opacity="0.5" d="M190.611 80.0705L198.581 83.7519V81.1749L190.611 77.4935V80.0705Z" fill="#42FFFF"/>
<path opacity="0.5" d="M192.774 86.9731L198.581 89.6421V87.0651L192.774 84.3961V86.9731Z" fill="#42FFFF"/>
<path opacity="0.5" d="M190.269 91.6669L198.581 95.5324V92.9554L190.269 89.09V91.6669Z" fill="#42FFFF"/>
<path opacity="0.5" d="M192.774 98.7536L198.581 101.423V98.8457L192.774 96.1766V98.7536Z" fill="#42FFFF"/>
<path opacity="0.5" d="M191.294 104L198.581 107.313V104.736L191.294 101.423V104Z" fill="#42FFFF"/>
<path opacity="0.5" d="M194.596 111.362L198.581 113.203V110.626L194.596 108.785V111.362Z" fill="#42FFFF"/>
<path opacity="0.5" d="M190.838 115.596L198.581 119.093V116.516L190.838 113.019V115.596Z" fill="#42FFFF"/>
<path opacity="0.5" d="M191.294 121.67L198.581 124.984V122.407L191.294 119.093V121.67Z" fill="#42FFFF"/>
<path opacity="0.5" d="M163.397 108.601L160.322 107.221V104.644L163.397 106.024V108.601Z" fill="#42FFFF"/>
<path opacity="0.5" d="M172.62 112.927L165.674 109.706V107.129L172.62 110.35V112.927Z" fill="#42FFFF"/>
<path opacity="0.5" d="M178.313 132.715L166.585 127.284V124.708L178.313 130.138V132.715Z" fill="#42FFFF"/>
<path opacity="0.5" d="M186.397 136.488L181.729 134.279V131.702L186.397 133.911V136.488Z" fill="#42FFFF"/>
<path opacity="0.5" d="M221.696 88.6298L207.121 81.8192V79.2422L221.696 86.0528V88.6298Z" fill="#42FFFF"/>
<path opacity="0.5" d="M229.097 92.0351L223.859 89.6422V87.0652L229.097 89.4581V92.0351Z" fill="#42FFFF"/>
<path opacity="0.5" d="M234.904 94.7961L231.375 93.1395V90.5625L234.904 92.2191V94.7961Z" fill="#42FFFF"/>
<path opacity="0.5" d="M215.092 91.3908L207.121 87.7094V85.1324L215.092 88.8138V91.3908Z" fill="#42FFFF"/>
<path opacity="0.5" d="M227.048 97.0049L217.255 92.4032V89.8262L227.048 94.4279V97.0049Z" fill="#42FFFF"/>
<path opacity="0.5" d="M232.741 99.6739L229.211 98.0173V95.4403L232.741 97.0969V99.6739Z" fill="#42FFFF"/>
<path opacity="0.5" d="M238.32 102.251L234.677 100.594V98.0173L238.32 99.674V102.251Z" fill="#42FFFF"/>
<path opacity="0.5" d="M212.928 96.2687L207.121 93.5997V91.0227L212.928 93.6917V96.2687Z" fill="#42FFFF"/>
<path opacity="0.5" d="M217.028 98.2014L215.092 97.2811V94.7041L217.028 95.6245V98.2014Z" fill="#42FFFF"/>
<path opacity="0.5" d="M222.835 100.962L219.305 99.3059V96.6368L222.835 98.3855V100.962Z" fill="#42FFFF"/>
<path opacity="0.5" d="M228.3 109.338L207.121 99.4898V96.9128L228.3 106.761V109.338Z" fill="#42FFFF"/>
<path opacity="0.5" d="M235.702 112.835L230.578 110.35V107.773L235.702 110.258V112.835Z" fill="#42FFFF"/>
<path opacity="0.5" d="M212.928 108.049L207.121 105.38V102.803L212.928 105.472V108.049Z" fill="#42FFFF"/>
<path opacity="0.5" d="M226.364 114.307L215.092 109.061V106.484L226.364 111.731V114.307Z" fill="#42FFFF"/>
<path opacity="0.5" d="M232.058 117.069L228.528 115.412V112.743L232.058 114.492V117.069Z" fill="#42FFFF"/>
<path opacity="0.5" d="M218.849 116.7L207.121 111.27V108.693L218.849 114.123V116.7Z" fill="#42FFFF"/>
<path opacity="0.5" d="M229.553 121.762L221.127 117.805V115.228L229.553 119.185V121.762Z" fill="#42FFFF"/>
<path opacity="0.5" d="M237.523 125.444L231.83 122.775V120.198L237.523 122.867V125.444Z" fill="#42FFFF"/>
<path opacity="0.5" d="M211.106 119.001L207.121 117.161V114.584L211.106 116.424V119.001Z" fill="#42FFFF"/>
<path opacity="0.5" d="M218.622 122.499L213.384 120.014V117.437L218.622 119.922V122.499Z" fill="#42FFFF"/>
<path opacity="0.5" d="M229.211 127.469L220.785 123.511V120.934L229.211 124.892V127.469Z" fill="#42FFFF"/>
<path opacity="0.5" d="M219.305 128.757L207.121 123.051V120.474L219.305 126.18V128.757Z" fill="#42FFFF"/>
<path opacity="0.5" d="M232.855 135.015L221.468 129.769V127.192L232.855 132.438V135.015Z" fill="#42FFFF"/>
<path opacity="0.5" d="M238.662 137.776L235.132 136.12V133.543L238.662 135.199V137.776Z" fill="#42FFFF"/>
<path opacity="0.5" d="M244.241 140.354L240.598 138.697V136.12L244.241 137.777V140.354Z" fill="#42FFFF"/>
<path opacity="0.5" d="M214.408 132.346L207.121 128.941V126.364L214.408 129.769V132.346Z" fill="#42FFFF"/>
<path opacity="0.5" d="M244.811 99.3978L254.831 104.092V101.515L244.811 96.8208V99.3978Z" fill="#42FFFF"/>
<path opacity="0.5" d="M246.974 106.301L254.831 109.982V107.405L246.974 103.724V106.301Z" fill="#42FFFF"/>
<path opacity="0.5" d="M249.138 113.203L254.831 115.872V113.295L249.138 110.626V113.203Z" fill="#42FFFF"/>
<path opacity="0.5" d="M246.519 117.897L254.831 121.762V119.185L246.519 115.32V117.897Z" fill="#42FFFF"/>
<path opacity="0.5" d="M249.138 124.984L254.831 127.653V125.076L249.138 122.407V124.984Z" fill="#42FFFF"/>
<path opacity="0.5" d="M247.657 130.138L254.831 133.543V130.966L247.657 127.561V130.138Z" fill="#42FFFF"/>
<path opacity="0.5" d="M250.959 137.592L254.831 139.433V136.856L250.959 135.015V137.592Z" fill="#42FFFF"/>
<path opacity="0.5" d="M247.202 141.734L254.831 145.323V142.746L247.202 139.157V141.734Z" fill="#42FFFF"/>
<path opacity="0.5" d="M247.657 147.808L254.831 151.214V148.637L247.657 145.231V147.808Z" fill="#42FFFF"/>
<path opacity="0.5" d="M219.76 134.831L216.686 133.359V130.782L219.76 132.254V134.831Z" fill="#42FFFF"/>
<path opacity="0.5" d="M228.87 139.065L221.924 135.844V133.267L228.87 136.488V139.065Z" fill="#42FFFF"/>
<path opacity="0.5" d="M234.677 158.945L222.949 153.422V150.845L234.677 156.368V158.945Z" fill="#42FFFF"/>
<path opacity="0.5" d="M242.647 162.626L238.093 160.509V157.932L242.647 160.049V162.626Z" fill="#42FFFF"/>
</g>
<defs>
<linearGradient id="paint0_linear" x1="277.332" y1="215.373" x2="10.5223" y2="215.373" gradientUnits="userSpaceOnUse">
<stop stop-color="#42FFFF"/>
<stop offset="0.1507" stop-color="#43FAFF"/>
<stop offset="0.3285" stop-color="#45ECFF"/>
<stop offset="0.5199" stop-color="#49D4FF"/>
<stop offset="0.7209" stop-color="#4EB3FF"/>
<stop offset="0.9274" stop-color="#5489FF"/>
<stop offset="1" stop-color="#5778FF"/>
</linearGradient>
<linearGradient id="paint1_linear" x1="312.822" y1="111.858" x2="110.578" y2="111.858" gradientUnits="userSpaceOnUse">
<stop stop-color="#C0D6FF"/>
<stop offset="0.2978" stop-color="#C5DBFF"/>
<stop offset="0.6488" stop-color="#D3E9FF"/>
<stop offset="1" stop-color="#E9FFFF"/>
</linearGradient>
<linearGradient id="paint2_linear" x1="312.821" y1="153.78" x2="278.094" y2="153.78" gradientUnits="userSpaceOnUse">
<stop stop-color="#5778FF"/>
<stop offset="0.1779" stop-color="#5C7DFF"/>
<stop offset="0.3876" stop-color="#6A8AFF"/>
<stop offset="0.6134" stop-color="#82A0FF"/>
<stop offset="0.849" stop-color="#A3BEFF"/>
<stop offset="1" stop-color="#BCD5FF"/>
</linearGradient>
<linearGradient id="paint3_linear" x1="285.726" y1="200.906" x2="0.0920284" y2="200.906" gradientUnits="userSpaceOnUse">
<stop stop-color="#5778FF"/>
<stop offset="0.1779" stop-color="#5C7DFF"/>
<stop offset="0.3876" stop-color="#6A8AFF"/>
<stop offset="0.6134" stop-color="#82A0FF"/>
<stop offset="0.849" stop-color="#A3BEFF"/>
<stop offset="1" stop-color="#BCD5FF"/>
</linearGradient>
<linearGradient id="paint4_linear" x1="189.752" y1="193.208" x2="-96.0344" y2="193.208" gradientUnits="userSpaceOnUse">
<stop stop-color="#C0D6FF"/>
<stop offset="0.2978" stop-color="#C5DBFF"/>
<stop offset="0.6488" stop-color="#D3E9FF"/>
<stop offset="1" stop-color="#E9FFFF"/>
</linearGradient>
<linearGradient id="paint5_linear" x1="141.355" y1="206.321" x2="68.2013" y2="206.321" gradientUnits="userSpaceOnUse">
<stop stop-color="#C0D6FF"/>
<stop offset="0.2978" stop-color="#C5DBFF"/>
<stop offset="0.6488" stop-color="#D3E9FF"/>
<stop offset="1" stop-color="#E9FFFF"/>
</linearGradient>
<linearGradient id="paint6_linear" x1="298.939" y1="142.009" x2="13.1526" y2="142.009" gradientUnits="userSpaceOnUse">
<stop stop-color="#C0D6FF"/>
<stop offset="0.2978" stop-color="#C5DBFF"/>
<stop offset="0.6488" stop-color="#D3E9FF"/>
<stop offset="1" stop-color="#E9FFFF"/>
</linearGradient>
<linearGradient id="paint7_linear" x1="317.749" y1="125.052" x2="244.595" y2="125.052" gradientUnits="userSpaceOnUse">
<stop stop-color="#C0D6FF"/>
<stop offset="0.2978" stop-color="#C5DBFF"/>
<stop offset="0.6488" stop-color="#D3E9FF"/>
<stop offset="1" stop-color="#E9FFFF"/>
</linearGradient>
<clipPath id="clip0">
<rect width="395" height="278.406" fill="white"/>
</clipPath>
</defs>
</svg>
