<?xml version="1.0" encoding="UTF-8"?><!DOCTYPE svg PUBLIC "-//W3C//DTD SVG 1.1//EN" "http://www.w3.org/Graphics/SVG/1.1/DTD/svg11.dtd"><svg xmlns="http://www.w3.org/2000/svg"><defs>
<clipPath id="clip0">
<rect width="78" height="78" fill="white"/>
</clipPath>

<clipPath id="clip0">
<rect width="8.25" height="16" fill="white"/>
</clipPath>

<clipPath id="clip0">
<rect width="14" height="16" fill="white" transform="translate(0.253174)"/>
</clipPath>

<clipPath id="clip0">
<rect width="14.0031" height="16" fill="white" transform="translate(0.25)"/>
</clipPath>

<clipPath id="clip0">
<rect width="144" height="17.2408" fill="white"/>
</clipPath>

<clipPath id="clip0">
<rect width="144" height="17.240800857543945" fill="white" id="svg_1"/>
</clipPath>

<clipPath id="clip0">
<rect width="82" height="82" fill="white" transform="matrix(-1 0 0 1 82 0)"/>
</clipPath>

<clipPath id="clip0">
<rect width="75" height="75" fill="white"/>
</clipPath>

<clipPath id="clip0">
<rect width="108" height="108" fill="white"/>
</clipPath>
<clipPath id="clip1">
<rect width="75" height="45" fill="white" transform="translate(17 59)"/>
</clipPath>
</defs><symbol id="advantage-one" viewBox="0 0 120 120">
<path d="M18.352 3.35196H91.5363V59.4972H94.8883V0H15V107.263H70.0279V103.911H18.352V3.35196Z" fill="#DEDEDE"/>
<path d="M82.8775 17.5978H28.4082V20.9497H82.8775V17.5978Z" fill="#DEDEDE"/>
<path d="M82.8775 29.8883H28.4082V33.2402H82.8775V29.8883Z" fill="#DEDEDE"/>
<path d="M82.8775 42.1788H28.4082V45.5307H82.8775V42.1788Z" fill="#DEDEDE"/>
<path d="M82.8775 54.7486H28.4082V58.1005H82.8775V54.7486Z" fill="#DEDEDE"/>
<path d="M68.911 67.8771H28.4082V71.229H68.911V67.8771Z" fill="#DEDEDE"/>
<path d="M104.973 79.9162C104.973 70.5028 97.291 62.8212 87.8776 62.8212C78.4642 62.8212 70.8105 70.4749 70.8105 79.9162C70.8105 83.8827 72.2631 87.5698 74.4977 90.4748V120L87.9055 105.642L101.313 120V90.4748C103.548 87.5698 104.973 83.9106 104.973 79.9162ZM87.8776 66.2011C95.4474 66.2011 101.621 72.3743 101.621 79.9441C101.621 87.514 95.4474 93.6871 87.8776 93.6871C80.3077 93.6871 74.1346 87.514 74.1346 79.9441C74.1346 72.3464 80.3077 66.2011 87.8776 66.2011ZM87.9055 100.726L77.8497 111.508V93.7151C80.6429 95.7821 84.1346 97.0112 87.9055 97.0112C91.6765 97.0112 95.1681 95.7821 97.9614 93.7151V111.508L87.9055 100.726Z" fill="#DA0917"/>
</symbol><symbol id="advantage-two" viewBox="0 0 120 120">
<path fill-rule="evenodd" clip-rule="evenodd" d="M41.5279 60.5415C45.525 55.7556 48.268 48.3009 48.268 37.8519C48.268 28.3807 45.9738 21.3591 42.3061 16.7699C38.6999 12.2576 33.5524 9.81845 27.1146 9.81845C21.1403 9.81845 15.7067 12.3316 11.7119 17.167C7.6933 22.0313 5.0021 29.4197 5 39.2798C5.07852 49.2369 7.77227 56.3301 11.6444 60.8817C15.4919 65.4043 20.6826 67.642 26.3144 67.642C32.1772 67.642 37.5601 65.2924 41.5279 60.5415ZM2 39.2913C2.16099 60.2486 13.3593 70.642 26.3144 70.642C39.7524 70.642 51.268 59.7656 51.268 37.8519C51.268 18.0168 41.6701 6.81845 27.1146 6.81845C13.3594 6.81845 2 18.495 2 39.2913ZM13.1984 38.8131C13.1984 25.6923 17.8387 15.2989 26.6364 15.2989C36.3953 15.2989 40.0744 25.8533 40.0744 38.4911C40.0744 52.2464 35.9123 62.1663 26.6364 62.1663C17.8387 62.1663 12.8764 52.0901 13.1984 38.8131ZM13.8693 56.9152C11.2377 52.1342 10.0343 45.7357 10.1984 38.7768C10.2026 31.9379 11.4054 25.5363 13.971 20.7243C16.5804 15.8302 20.8067 12.2989 26.6364 12.2989C32.8885 12.2989 37.1595 15.8089 39.6905 20.7987C42.1366 25.6212 43.0744 31.962 43.0744 38.4911C43.0744 45.5939 42.012 52.0675 39.4913 56.8791C36.8865 61.8511 32.6145 65.1663 26.6364 65.1663C20.8689 65.1663 16.5494 61.7843 13.8693 56.9152ZM109.208 103.574C113.189 98.7857 115.932 91.3278 115.932 80.8791C115.932 71.397 113.673 64.3745 110.042 59.7874C106.476 55.2829 101.373 52.8452 94.9373 52.841C88.9621 52.8415 83.5313 55.3538 79.5383 60.2054C75.5197 65.088 72.8267 72.5173 72.8246 82.4634C72.9032 92.3346 75.594 99.3883 79.4656 103.923C83.3139 108.43 88.5067 110.669 94.139 110.669C99.9109 110.669 105.255 108.328 109.208 103.574ZM69.8246 82.4748C69.9856 103.271 81.184 113.669 94.139 113.669C107.416 113.669 118.932 102.793 118.932 80.8791C118.932 61.0441 109.495 49.8504 94.9393 49.841C81.1793 49.841 69.8246 61.5176 69.8246 82.4748ZM80.862 81.8403C80.862 68.7243 85.6586 58.3262 94.461 58.3262C104.22 58.3262 107.899 68.8806 107.899 81.5184C107.899 95.2736 103.737 105.194 94.461 105.194C85.8196 105.194 80.701 95.1174 80.862 81.8403ZM81.743 99.9615C79.0714 95.19 77.7799 88.7938 77.862 81.8222C77.8642 74.9646 79.1105 68.5515 81.7236 63.7343C84.3753 58.8459 88.6398 55.3262 94.461 55.3262C100.713 55.3262 104.984 58.8361 107.515 63.826C109.961 68.6484 110.899 74.9892 110.899 81.5184C110.899 88.6211 109.837 95.0948 107.316 99.9064C104.711 104.878 100.439 108.194 94.461 108.194C88.7598 108.194 84.4517 104.799 81.743 99.9615Z" fill="#DEDEDE"/>
<path fill-rule="evenodd" clip-rule="evenodd" d="M39.6781 99.8804L69.158 45.6303L35.5617 97.4327L28.2758 93.1014L27.9939 114.843L46.9644 104.216L39.6781 99.8804ZM52.9629 104.294L24.9268 120L25.3434 87.868L34.6146 93.3796L95.1757 0L96.833 0.984887L43.6917 98.7776L52.9629 104.294Z" fill="#DA0917"/>
</symbol><symbol id="customer-service" viewBox="0 0 78 78">
<g clip-path="url(#clip0)">
<path d="M63.3002 67.9354L60.3878 59.1969C59.3701 56.1461 56.7734 53.8941 53.6081 53.318L45.2005 51.7881V51.1365C46.6636 50.2873 47.9368 49.1512 48.9508 47.8064H51.4908C53.5716 47.8064 55.265 46.113 55.265 44.0322V28.9354C55.265 19.9176 47.928 12.5806 38.9101 12.5806C29.8923 12.5806 22.5553 19.9176 22.5553 28.9354V37.7419C22.5553 40.1674 24.2801 42.1967 26.5673 42.6697C27.2731 46.2854 29.5325 49.345 32.6198 51.1365V51.7881L24.2109 53.318C21.0469 53.8941 18.449 56.1461 17.4325 59.1969L16.9292 60.7078L12.6443 56.4229C12.1536 55.9322 12.1536 55.1333 12.6443 54.6427L17.6136 49.6746L8.28634 40.3473L2.67034 45.9633C1.00718 47.6265 0.0913086 49.8381 0.0913086 52.1907C0.0913086 54.5433 1.00718 56.7537 2.67034 58.4169L19.6731 75.4196C21.3362 77.0828 23.5479 77.9999 25.9005 77.9999C28.2531 77.9999 30.4635 77.0828 32.0877 75.4574L38.2157 69.8426L36.3047 67.9354H63.3002ZM52.7489 44.0322C52.7489 44.7266 52.184 45.2902 51.4908 45.2902H50.4328C50.7976 44.4587 51.0744 43.5818 51.253 42.6697C51.7915 42.5577 52.2872 42.3439 52.7489 42.0746V44.0322ZM51.4908 39.9082V35.5755C52.2393 36.012 52.7489 36.8147 52.7489 37.7419C52.7489 38.6691 52.2393 39.4717 51.4908 39.9082ZM26.3295 39.9082C25.581 39.4717 25.0714 38.6691 25.0714 37.7419C25.0714 36.8147 25.581 36.012 26.3295 35.5755V39.9082ZM26.3295 31.4515V32.8882C25.8816 33.0052 25.4614 33.1814 25.0714 33.4091V28.9354C25.0714 21.3052 31.28 15.0967 38.9101 15.0967C46.5403 15.0967 52.7489 21.3052 52.7489 28.9354V33.4091C52.3589 33.1814 51.9387 33.004 51.4908 32.8882V31.4515H50.2327C46.5126 31.4515 43.0152 30.0022 40.3833 27.3716L38.9101 25.8984L37.437 27.3716C34.8051 30.0022 31.3077 31.4515 27.5876 31.4515H26.3295ZM28.8456 40.258V33.9199C32.6236 33.6355 36.1462 32.0768 38.9101 29.4487C41.6741 32.0768 45.1967 33.6368 48.9747 33.9199V40.258C48.9747 42.0922 48.474 43.8082 47.6134 45.2902H38.9101V47.8064H45.5452C43.7713 49.3676 41.4527 50.3225 38.9101 50.3225C33.3608 50.3225 28.8456 45.8073 28.8456 40.258ZM42.6843 52.2587V52.3178L38.9101 56.092L35.136 52.3178V52.2587C36.3286 52.6336 37.5955 52.8386 38.9101 52.8386C40.2248 52.8386 41.4917 52.6336 42.6843 52.2587ZM19.8178 59.992C20.5437 57.813 22.3993 56.204 24.66 55.7913L33.4539 54.1936L38.9101 59.6498L44.3651 54.1948L53.1577 55.7926C55.4185 56.2052 57.2741 57.813 58 59.9932L59.8104 65.4193H33.7886L28.8884 60.5191L23.4435 65.4444C22.9692 65.9212 22.1401 65.9212 21.6646 65.4444L18.917 62.6968L19.8178 59.992ZM8.28508 43.9051L14.0546 49.6746L12.6883 51.0409L6.91882 45.2714L8.28508 43.9051ZM30.3452 73.6432C29.1576 74.8283 27.5775 75.4838 25.898 75.4838C24.2185 75.4838 22.6383 74.8283 21.4495 73.6407L4.44673 56.6392C3.25911 55.4516 2.60492 53.8715 2.60492 52.192C2.60492 50.5112 3.25911 48.9311 4.44673 47.7435L5.13866 47.0515L10.9081 52.821L10.8629 52.8663C9.39218 54.3382 9.39218 56.7323 10.8629 58.2043L19.8844 67.2259C20.5978 67.9379 21.5451 68.3317 22.5541 68.3317C23.563 68.3317 24.5103 67.9392 25.1771 67.2699L25.2715 67.1856L31.0674 72.9815L30.3452 73.6432ZM32.9243 71.2781L27.141 65.4948L28.8029 63.9926L34.5761 69.7659L32.9243 71.2781Z" fill="#C90000"/>
<path d="M74.1361 0H56.5232C54.4424 0 52.749 1.69335 52.749 3.77419V13.8387C52.749 15.9195 54.4424 17.6129 56.5232 17.6129H59.8835L58.5827 25.2003L70.723 17.6129H74.1361C76.217 17.6129 77.9103 15.9195 77.9103 13.8387V3.77419C77.9103 1.69335 76.217 0 74.1361 0ZM75.3942 13.8387C75.3942 14.5319 74.8293 15.0968 74.1361 15.0968H70.0009L62.0109 20.09L62.8676 15.0968H56.5232C55.83 15.0968 55.2652 14.5319 55.2652 13.8387V3.77419C55.2652 3.081 55.83 2.51613 56.5232 2.51613H74.1361C74.8293 2.51613 75.3942 3.081 75.3942 3.77419V13.8387Z" fill="#C90000"/>
<path d="M72.8776 5.03223H57.7808V7.54835H72.8776V5.03223Z" fill="#C90000"/>
<path d="M67.8453 10.0645H57.7808V12.5806H67.8453V10.0645Z" fill="#C90000"/>
<path d="M72.8779 10.0645H70.3618V12.5806H72.8779V10.0645Z" fill="#C90000"/>
<path d="M38.9104 3.77417C22.4726 3.77417 8.31304 15.1446 4.63194 31.005L2.24791 27.0307L0.090332 28.3253L4.51243 35.6938L11.8809 31.2717L10.5864 29.1141L7.17701 31.1597C10.7424 16.6505 23.7897 6.2903 38.9104 6.2903C42.2154 6.2903 45.4763 6.78094 48.6026 7.74965L49.3473 5.34675C45.9795 4.30256 42.4682 3.77417 38.9104 3.77417Z" fill="#C90000"/>
<path d="M77.2986 27.8562L69.9302 23.4341L65.5093 30.8038L67.6669 32.0984L69.8685 28.4286C71.0272 31.8191 71.6197 35.3656 71.6197 39.0001C71.6197 46.4818 69.0281 53.7962 64.3242 59.5946L66.278 61.1798C71.3455 54.9348 74.1359 47.0568 74.1359 39.0001C74.1359 35.1517 73.5156 31.3939 72.3066 27.7958L76.0041 30.0138L77.2986 27.8562Z" fill="#C90000"/>
</g>

</symbol><symbol id="facebook-f" viewBox="0 0 9 16">
<g clip-path="url(#clip0)">
<path d="M2.39687 16V8.84375H0V6H2.39687V3.75938C2.39687 1.325 3.88438 0 6.05625 0C7.09688 0 7.99062 0.078125 8.25 0.1125V2.65625H6.74375C5.5625 2.65625 5.33437 3.21875 5.33437 4.04063V6H8L7.63438 8.84375H5.33437V16" fill="#A3A3A3"/>
</g>

</symbol><symbol id="facebook-messenger" viewBox="0 0 14 16">
<path d="M7.00001 1C0.496886 1 -2.42186 8.6875 2.64376 12.5188V15L5.00939 13.6875C9.45314 14.9312 13.9281 11.8156 13.9281 7.47813C13.9313 3.9 10.8281 1 7.00001 1ZM7.73126 9.69063L5.93751 7.82812L2.48751 9.7375L6.27189 5.72188L8.06564 7.58437L11.5156 5.675L7.73126 9.69063Z" fill="#A3A3A3"/>
</symbol><symbol id="instagram" viewBox="0 0 15 16">
<g clip-path="url(#clip0)">
<path d="M7.25619 4.40623C5.26869 4.40623 3.66557 6.00935 3.66557 7.99685C3.66557 9.98435 5.26869 11.5875 7.25619 11.5875C9.24368 11.5875 10.8468 9.98435 10.8468 7.99685C10.8468 6.00935 9.24368 4.40623 7.25619 4.40623ZM7.25619 10.3312C5.97181 10.3312 4.92182 9.28435 4.92182 7.99685C4.92182 6.70935 5.96869 5.66248 7.25619 5.66248C8.54368 5.66248 9.59056 6.70935 9.59056 7.99685C9.59056 9.28435 8.54056 10.3312 7.25619 10.3312ZM11.8312 4.25935C11.8312 4.72498 11.4562 5.09685 10.9937 5.09685C10.5281 5.09685 10.1562 4.72185 10.1562 4.25935C10.1562 3.79685 10.5312 3.42185 10.9937 3.42185C11.4562 3.42185 11.8312 3.79685 11.8312 4.25935ZM14.2093 5.10935C14.1562 3.98748 13.8999 2.99373 13.078 2.17498C12.2593 1.35623 11.2656 1.09998 10.1437 1.04373C8.98743 0.978101 5.52182 0.978101 4.36557 1.04373C3.24682 1.09685 2.25307 1.3531 1.4312 2.17185C0.609325 2.9906 0.356201 3.98435 0.299951 5.10623C0.234326 6.26248 0.234326 9.7281 0.299951 10.8843C0.353076 12.0062 0.609325 13 1.4312 13.8187C2.25307 14.6375 3.2437 14.8937 4.36557 14.95C5.52182 15.0156 8.98743 15.0156 10.1437 14.95C11.2656 14.8968 12.2593 14.6406 13.078 13.8187C13.8968 13 14.153 12.0062 14.2093 10.8843C14.2749 9.7281 14.2749 6.2656 14.2093 5.10935ZM12.7156 12.125C12.4718 12.7375 11.9999 13.2094 11.3843 13.4562C10.4624 13.8219 8.27493 13.7375 7.25619 13.7375C6.23744 13.7375 4.04682 13.8187 3.12807 13.4562C2.51557 13.2125 2.0437 12.7406 1.79682 12.125C1.4312 11.2031 1.51557 9.0156 1.51557 7.99685C1.51557 6.9781 1.43432 4.78748 1.79682 3.86873C2.04057 3.25623 2.51245 2.78435 3.12807 2.53748C4.04994 2.17185 6.23744 2.25623 7.25619 2.25623C8.27493 2.25623 10.4656 2.17498 11.3843 2.53748C11.9968 2.78123 12.4687 3.2531 12.7156 3.86873C13.0812 4.7906 12.9968 6.9781 12.9968 7.99685C12.9968 9.0156 13.0812 11.2062 12.7156 12.125Z" fill="#A3A3A3"/>
</g>

</symbol><symbol id="linkedin-in" viewBox="0 0 15 16">
<g clip-path="url(#clip0)">
<path d="M3.38438 14H0.48125V4.65312H3.38438V14ZM1.93125 3.37812C1.00312 3.37812 0.25 2.60938 0.25 1.68125C0.25 0.753125 1.00312 0 1.93125 0C2.85938 0 3.6125 0.753125 3.6125 1.68125C3.6125 2.60938 2.85938 3.37812 1.93125 3.37812ZM14.25 14H11.3531V9.45C11.3531 8.36562 11.3313 6.975 9.84375 6.975C8.33438 6.975 8.10313 8.15312 8.10313 9.37187V14H5.20312V4.65312H7.9875V5.92812H8.02812C8.41562 5.19375 9.3625 4.41875 10.775 4.41875C13.7125 4.41875 14.2531 6.35313 14.2531 8.86563V14H14.25Z" fill="#A3A3A3"/>
</g>

</symbol><symbol id="logo-black" viewBox="0 0 144 18">
<g clip-path="url(#clip0)">
<path d="M0.470215 3.28209V13.1679L8.4245 17.5967V7.43412L0.470215 3.28209Z" fill="#3E4042"/>
<path d="M16.1437 3.28209V13.1679L8.42456 17.5967V7.43412L16.1437 3.28209Z" fill="#ACADB0"/>
<path d="M0.470215 3.28208L8.30695 -0.276802L16.1437 3.28208L8.4245 7.43411L0.470215 3.28208Z" fill="#C90000"/>
<path d="M26.9192 2.53076L29.7796 11.5861L32.64 2.53076H36.7151V15.5009H33.6196V12.4561L33.9331 6.24782L30.8376 15.5009H28.8L25.6653 6.24782L25.9788 12.4561V15.5009H22.8833V2.53076H26.9192Z" fill="#0C0404"/>
<path d="M49.6064 9.29264C49.6064 10.558 49.3713 11.6652 48.9011 12.6538C48.4309 13.6424 47.7648 14.3937 46.9028 14.9078C46.0407 15.4218 45.0611 15.6986 43.964 15.6986C42.8668 15.6986 41.8872 15.4614 41.0644 14.9473C40.2023 14.4333 39.5362 13.7215 39.066 12.7724C38.5958 11.8234 38.3607 10.7557 38.3215 9.5299V8.77858C38.3215 7.5132 38.5566 6.36645 39.0268 5.41741C39.497 4.42883 40.1632 3.67751 41.0252 3.16345C41.8872 2.64939 42.8668 2.37259 43.964 2.37259C45.0611 2.37259 46.0407 2.64939 46.8636 3.16345C47.7256 3.67751 48.3917 4.42883 48.8619 5.41741C49.3321 6.36645 49.5672 7.47366 49.5672 8.73904V9.29264H49.6064ZM46.4717 8.73904C46.4717 7.43411 46.2758 6.48508 45.8448 5.81284C45.4138 5.14061 44.7868 4.82427 44.0032 4.82427C42.4358 4.82427 41.613 6.01056 41.5346 8.34361V9.29264C41.5346 10.558 41.7305 11.5466 42.1615 12.2188C42.5926 12.8911 43.2195 13.247 44.0423 13.247C44.826 13.247 45.4138 12.9306 45.8448 12.2584C46.2758 11.5861 46.4717 10.6371 46.4717 9.37173V8.73904Z" fill="#0C0404"/>
<path d="M51.2131 15.5405V2.53076H55.3666C56.5029 2.53076 57.5217 2.80756 58.4229 3.32162C59.3242 3.83569 60.0295 4.58701 60.5389 5.53604C61.0482 6.48508 61.3225 7.55274 61.3225 8.73904V9.33219C61.3225 10.5185 61.0874 11.5861 60.578 12.5352C60.0687 13.4842 59.3633 14.196 58.4621 14.7496C57.5609 15.2637 56.5421 15.5405 55.445 15.5405H51.2131ZM54.3086 4.94289V13.0888H55.4058C56.307 13.0888 56.9731 12.7724 57.4433 12.1398C57.9135 11.5071 58.1486 10.558 58.1486 9.29264V8.73904C58.1486 7.47366 57.9135 6.52462 57.4433 5.89193C56.9731 5.25924 56.2678 4.94289 55.3666 4.94289H54.3086Z" fill="#0C0404"/>
<path d="M72.9993 2.53076V11.0325C72.9993 11.9816 72.8034 12.812 72.3723 13.5238C71.9805 14.2355 71.3928 14.7496 70.6091 15.145C69.8646 15.5009 68.9634 15.6986 67.9054 15.6986C66.3381 15.6986 65.0842 15.3032 64.183 14.4728C63.2817 13.6424 62.8115 12.5352 62.8115 11.1116V2.53076H65.9462V11.1512C65.9854 12.5747 66.6515 13.2865 67.9054 13.2865C68.5323 13.2865 69.0417 13.0888 69.3552 12.7329C69.6687 12.377 69.8646 11.7839 69.8646 10.993V2.53076H72.9993Z" fill="#0C0404"/>
<path d="M78.0538 13.1283H83.4611V15.5405H74.9583V2.53076H78.0538V13.1283Z" fill="#0C0404"/>
<path d="M93.3355 2.53076L96.1959 11.5861L99.0563 2.53076H103.131V15.5009H100.036V12.4561L100.349 6.24782L97.2538 15.5009H95.2163L92.0816 6.24782L92.3951 12.4561V15.5009H89.2996V2.53076H93.3355Z" fill="#0C0404"/>
<path d="M113.123 10.0044H108.225V13.1283H114.024V15.5405H105.169V2.53076H114.024V4.94289H108.225V7.67137H113.123V10.0044Z" fill="#0C0404"/>
<path d="M115.278 15.5405V2.53076H119.432C120.568 2.53076 121.587 2.80756 122.488 3.32162C123.389 3.83569 124.095 4.58701 124.604 5.53604C125.113 6.48508 125.388 7.55274 125.388 8.73904V9.33219C125.388 10.5185 125.153 11.5861 124.643 12.5352C124.134 13.4842 123.429 14.196 122.527 14.7496C121.626 15.2637 120.607 15.5405 119.51 15.5405H115.278ZM118.374 4.94289V13.0888H119.471C120.372 13.0888 121.038 12.7724 121.509 12.1398C121.979 11.5071 122.214 10.558 122.214 9.29264V8.73904C122.214 7.47366 121.979 6.52462 121.509 5.89193C121.038 5.25924 120.333 4.94289 119.432 4.94289H118.374Z" fill="#0C0404"/>
<path d="M130.286 15.5405H127.19V2.53076H130.286V15.5405Z" fill="#0C0404"/>
<path d="M139.886 13.0888H135.615L134.87 15.5009H131.54L136.242 2.53076H139.141L143.882 15.5009H140.669L139.886 13.0888ZM136.398 10.6767H139.18L137.809 6.16873L136.398 10.6767Z" fill="#0C0404"/>
</g>

</symbol><symbol id="logo-white"><rect id="backgroundrect" width="100%" height="100%" x="0" y="0" fill="none" stroke="none"/>


<g class="currentLayer" style=""><title>Layer 1</title><g clip-path="url(#clip0)" id="svg_2">
<path d="M0.470215 3.28209V13.1679L8.4245 17.5967V7.43412L0.470215 3.28209Z" fill="#3E4042" id="svg_3"/>
<path d="M16.1436 3.28209V13.1679L8.42444 17.5967V7.43412L16.1436 3.28209Z" fill="#ACADB0" id="svg_4"/>
<path d="M0.470215 3.28208L8.30695 -0.276802L16.1437 3.28208L8.4245 7.43411L0.470215 3.28208Z" fill="#C90000" id="svg_5"/>
<path d="M26.9192 2.53076L29.7796 11.5861L32.64 2.53076H36.7151V15.5009H33.6196V12.4561L33.9331 6.24782L30.8376 15.5009H28.8L25.6653 6.24782L25.9788 12.4561V15.5009H22.8833V2.53076H26.9192Z" fill="white" id="svg_6"/>
<path d="M49.6066 9.29264C49.6066 10.558 49.3715 11.6652 48.9012 12.6538C48.431 13.6424 47.7649 14.3937 46.9029 14.9078C46.0408 15.4218 45.0612 15.6986 43.9641 15.6986C42.867 15.6986 41.8874 15.4614 41.0645 14.9473C40.2025 14.4333 39.5363 13.7215 39.0661 12.7724C38.5959 11.8234 38.3608 10.7557 38.3217 9.5299V8.77858C38.3217 7.5132 38.5568 6.36645 39.027 5.41741C39.4972 4.42883 40.1633 3.67751 41.0253 3.16345C41.8874 2.64939 42.867 2.37259 43.9641 2.37259C45.0612 2.37259 46.0408 2.64939 46.8637 3.16345C47.7257 3.67751 48.3919 4.42883 48.8621 5.41741C49.3323 6.36645 49.5674 7.47366 49.5674 8.73904V9.29264H49.6066ZM46.4719 8.73904C46.4719 7.43411 46.2759 6.48508 45.8449 5.81284C45.4139 5.14061 44.787 4.82427 44.0033 4.82427C42.4359 4.82427 41.6131 6.01056 41.5347 8.34361V9.29264C41.5347 10.558 41.7306 11.5466 42.1617 12.2188C42.5927 12.8911 43.2196 13.247 44.0425 13.247C44.8261 13.247 45.4139 12.9306 45.8449 12.2584C46.2759 11.5861 46.4719 10.6371 46.4719 9.37173V8.73904Z" fill="white" id="svg_7"/>
<path d="M51.213 15.5405V2.53076H55.3665C56.5028 2.53076 57.5216 2.80756 58.4228 3.32162C59.324 3.83569 60.0293 4.58701 60.5387 5.53604C61.0481 6.48508 61.3224 7.55274 61.3224 8.73904V9.33219C61.3224 10.5185 61.0873 11.5861 60.5779 12.5352C60.0685 13.4842 59.3632 14.196 58.462 14.7496C57.5608 15.2637 56.542 15.5405 55.4449 15.5405H51.213ZM54.3085 4.94289V13.0888H55.4057C56.3069 13.0888 56.973 12.7724 57.4432 12.1398C57.9134 11.5071 58.1485 10.558 58.1485 9.29264V8.73904C58.1485 7.47366 57.9134 6.52462 57.4432 5.89193C56.973 5.25924 56.2677 4.94289 55.3665 4.94289H54.3085Z" fill="white" id="svg_8"/>
<path d="M72.9992 2.53076V11.0325C72.9992 11.9816 72.8032 12.812 72.3722 13.5238C71.9804 14.2355 71.3926 14.7496 70.609 15.145C69.8645 15.5009 68.9632 15.6986 67.9053 15.6986C66.3379 15.6986 65.0841 15.3032 64.1828 14.4728C63.2816 13.6424 62.8114 12.5352 62.8114 11.1116V2.53076H65.9461V11.1512C65.9853 12.5747 66.6514 13.2865 67.9053 13.2865C68.5322 13.2865 69.0416 13.0888 69.3551 12.7329C69.6686 12.377 69.8645 11.7839 69.8645 10.993V2.53076H72.9992Z" fill="white" id="svg_9"/>
<path d="M78.0539 13.1283H83.4612V15.5405H74.9584V2.53076H78.0539V13.1283Z" fill="white" id="svg_10"/>
<path d="M93.3355 2.53076L96.1959 11.5861L99.0563 2.53076H103.131V15.5009H100.036V12.4561L100.349 6.24782L97.2538 15.5009H95.2163L92.0816 6.24782L92.3951 12.4561V15.5009H89.2996V2.53076H93.3355Z" fill="white" id="svg_11"/>
<path d="M113.123 10.0044H108.225V13.1283H114.024V15.5405H105.169V2.53076H114.024V4.94289H108.225V7.67137H113.123V10.0044Z" fill="white" id="svg_12"/>
<path d="M115.278 15.5405V2.53076H119.432C120.568 2.53076 121.587 2.80756 122.488 3.32162C123.389 3.83569 124.095 4.58701 124.604 5.53604C125.113 6.48508 125.388 7.55274 125.388 8.73904V9.33219C125.388 10.5185 125.153 11.5861 124.643 12.5352C124.134 13.4842 123.429 14.196 122.527 14.7496C121.626 15.2637 120.607 15.5405 119.51 15.5405H115.278ZM118.374 4.94289V13.0888H119.471C120.372 13.0888 121.038 12.7724 121.509 12.1398C121.979 11.5071 122.214 10.558 122.214 9.29264V8.73904C122.214 7.47366 121.979 6.52462 121.509 5.89193C121.038 5.25924 120.333 4.94289 119.432 4.94289H118.374Z" fill="white" id="svg_13"/>
<path d="M130.286 15.5405H127.19V2.53076H130.286V15.5405Z" fill="white" id="svg_14"/>
<path d="M139.886 13.0888H135.615L134.87 15.5009H131.54L136.242 2.53076H139.141L143.882 15.5009H140.669L139.886 13.0888ZM136.398 10.6767H139.18L137.809 6.16873L136.398 10.6767Z" fill="white" id="svg_15"/>
</g></g></symbol><symbol id="medal" viewBox="0 0 82 82">
<g clip-path="url(#clip0)">
<path d="M41.0673 9.60449C29.3632 9.60449 19.8413 19.1266 19.8413 30.8305C19.8413 42.5344 29.3634 52.0565 41.0673 52.0565C52.7712 52.0565 62.2933 42.5345 62.2933 30.8305C62.2933 19.1264 52.7714 9.60449 41.0673 9.60449ZM41.0671 49.5425C30.7494 49.5425 22.3554 41.1484 22.3554 30.8308C22.3554 20.5132 30.7496 12.1188 41.0671 12.1188C51.3847 12.1188 59.779 20.5129 59.779 30.8305C59.779 41.1481 51.3849 49.5425 41.0671 49.5425Z" fill="#C90000"/>
<path d="M53.1048 27.8566L44.7871 26.6481L41.0673 19.1108L37.3475 26.6481L29.0298 27.8566L35.0485 33.7233L33.6277 42.0076L41.0673 38.0964L48.5069 42.0076L47.0861 33.7233L53.1048 27.8566ZM41.0673 35.2559L36.9671 37.4114L37.7501 32.8455L34.433 29.6121L39.0173 28.946L41.0674 24.7921L43.1176 28.946L47.7019 29.6121L44.3848 32.8455L45.1678 37.4114L41.0673 35.2559Z" fill="#C90000"/>
<path d="M12.1523 4.05894V2.12842H9.63805V4.05894H7.70752V6.57323H9.63805V8.50376H12.1523V6.57323H14.0829V4.05894H12.1523Z" fill="#C90000"/>
<path d="M4.44482 55.8126V53.8821H1.93053V55.8126H0V58.3271H1.93053V60.2574H4.44482V58.3271H6.37534V55.8126H4.44482Z" fill="#C90000"/>
<path d="M48.4728 76.1319V74.2014H45.9585V76.1319H44.0278V78.6462H45.9585V80.5768H48.4728V78.6462H50.4033V76.1319H48.4728Z" fill="#C90000"/>
<path d="M79.4543 26.003V23.4575H76.9401V26.003H74.3945V28.5173H76.9401V31.0629H79.4543V28.5173H81.9999V26.003H79.4543Z" fill="#C90000"/>
<path d="M41.067 14.2427C31.9205 14.2427 24.479 21.684 24.479 30.8307C24.479 39.9774 31.9205 47.4186 41.067 47.4186C50.2135 47.4186 57.655 39.9772 57.655 30.8305C57.655 21.6839 50.2139 14.2427 41.067 14.2427ZM41.067 44.9043C33.3068 44.9043 26.9933 38.5907 26.9933 30.8307C26.9933 23.0705 33.3068 16.757 41.067 16.757C48.8272 16.757 55.1407 23.0705 55.1407 30.8307C55.1407 38.5909 48.8274 44.9043 41.067 44.9043Z" fill="#C90000"/>
<path d="M61.3253 50.8746L66.81 49.5368L66.0209 38.9393L72.8862 30.8307L66.0209 22.722L66.81 12.1246L56.4847 9.60616L50.9017 0.560059L41.0668 4.5992L31.2319 0.560059L25.6492 9.60616L15.3239 12.1246L16.113 22.722L9.24776 30.8307L16.113 38.9393L15.3239 49.5368L20.8086 50.8746L3.32422 68.359L14.3889 70.3752L16.4051 81.4399L40.5846 57.2605L41.067 57.0624L41.5493 57.2605L65.7288 81.4399L67.745 70.3752L78.8097 68.359L61.3253 50.8746ZM15.0469 67.9394L8.4939 66.7454L23.6673 51.5719L25.6492 52.0553L27.6649 55.3213L19.3091 63.677L15.0469 67.9394ZM18.0187 76.2702L16.8247 69.7173L29.0219 57.5201L31.2322 61.1015L34.5505 59.7386L18.0187 76.2702ZM41.0668 54.3439L32.251 57.9649L30.849 55.6929L30.7758 55.574L29.4921 53.4941L27.2474 49.8569L22.8894 48.7938L17.9896 47.5987L18.6968 38.0997L12.5423 30.8307L18.6968 23.5615L17.9896 14.0627L27.2471 11.8046L32.2508 3.69656L41.067 7.31737L49.8831 3.69656L54.8868 11.8046L64.1444 14.0627L63.4371 23.5615L69.5916 30.8307L63.4371 38.0997L64.1444 47.5987L59.2447 48.7938L54.8867 49.8569L52.6419 53.4941L51.5969 55.1873L51.2848 55.693L49.8828 57.9649L41.0668 54.3439ZM64.115 76.2702L47.5831 59.7384L49.0724 60.3501L50.9018 61.1014L53.112 57.5201L65.3092 69.7173L64.115 76.2702ZM67.0869 67.9392L62.8247 63.677L54.4688 55.3213L56.4846 52.0553L58.4665 51.5721L73.6399 66.7454L67.0869 67.9392Z" fill="#C90000"/>
</g>

</symbol><symbol id="network" viewBox="0 0 75 75">
<g clip-path="url(#clip0)">
<path d="M70 15C67.2424 15 65 17.2425 65 20C65 22.7574 67.2425 24.9999 70 24.9999C72.7574 24.9999 74.9999 22.7575 74.9999 20C74.9999 17.2425 72.7574 15 70 15ZM70 22.5C68.6212 22.5 67.4999 21.3788 67.4999 20C67.4999 18.6212 68.6211 17.4999 70 17.4999C71.3788 17.4999 72.5 18.6211 72.5 20C72.4999 21.3788 71.3787 22.5 70 22.5Z" fill="#C90000"/>
<path d="M4.99995 56.25C2.24253 56.25 0 58.4925 0 61.25C0 64.0074 2.24253 66.2499 4.99995 66.2499C7.75752 66.2499 9.9999 64.0074 9.9999 61.25C9.9999 58.4925 7.75752 56.25 4.99995 56.25ZM4.99995 63.75C3.62124 63.75 2.4999 62.6288 2.4999 61.25C2.4999 59.8711 3.62109 58.7499 4.99995 58.7499C6.37866 58.7499 7.5 59.8711 7.5 61.25C7.5 62.6288 6.37881 63.75 4.99995 63.75Z" fill="#C90000"/>
<path d="M67.5764 16.58L56.7927 11.3738C56.1701 11.0725 55.4239 11.335 55.1239 11.9563C54.8239 12.5776 55.0851 13.3251 55.7065 13.6251L66.4902 18.8313C66.6653 18.9163 66.8503 18.9563 67.0327 18.9563C67.4976 18.9563 67.944 18.6962 68.1588 18.2487C68.4588 17.6275 68.1977 16.88 67.5764 16.58Z" fill="#C90000"/>
<path d="M56.25 65C53.4924 65 51.25 67.2425 51.25 69.9999C51.25 72.7574 53.4924 75 56.25 75C59.0075 75 61.2499 72.7575 61.2499 70.0001C61.2499 67.2427 59.0075 65 56.25 65ZM56.25 72.5C54.8712 72.5 53.7499 71.3788 53.7499 69.9999C53.7499 68.6211 54.8712 67.5 56.25 67.5C57.6287 67.5 58.75 68.6212 58.75 70.0001C58.75 71.379 57.6287 72.5 56.25 72.5Z" fill="#C90000"/>
<path d="M53.8264 66.5802L43.0427 61.374C42.4201 61.0727 41.6739 61.334 41.3739 61.9565C41.0739 62.5778 41.3351 63.3253 41.9565 63.6253L52.7402 68.8315C52.9153 68.9165 53.1003 68.9564 53.2827 68.9564C53.7476 68.9564 54.194 68.6964 54.409 68.2489C54.7089 67.6275 54.4477 66.8802 53.8264 66.5802Z" fill="#C90000"/>
<path d="M37.5 33.75C34.7424 33.75 32.5 35.9925 32.5 38.7499C32.5 41.5075 34.7425 43.7499 37.5 43.7499C40.2575 43.7499 42.4999 41.5074 42.4999 38.7499C42.4999 35.9925 40.2575 33.75 37.5 33.75ZM37.5 41.25C36.1212 41.25 34.9999 40.1288 34.9999 38.7499C34.9999 37.3712 36.1211 36.2499 37.5 36.2499C38.8787 36.2499 40 37.3711 40 38.7499C40 40.1288 38.8787 41.25 37.5 41.25Z" fill="#C90000"/>
<path d="M35.3023 35.47L27.0186 29.0137C26.4735 28.5924 25.6887 28.6862 25.2636 29.2312C24.8398 29.7763 24.936 30.5612 25.4811 30.9863L33.7648 37.4426C33.9936 37.6201 34.2636 37.7064 34.5324 37.7064C34.9049 37.7064 35.2724 37.5414 35.5198 37.2252C35.9436 36.68 35.8474 35.895 35.3023 35.47Z" fill="#C90000"/>
<path d="M60 32.5C52.4187 32.5 46.25 38.6687 46.25 46.25C46.25 53.8313 52.4187 60.0001 60 60.0001C67.5813 60.0001 73.7501 53.8313 73.7501 46.25C73.7501 38.6687 67.5813 32.5 60 32.5ZM60 57.4999C53.7963 57.4999 48.75 52.4537 48.75 46.2499C48.75 40.0461 53.7963 34.9999 60 34.9999C66.2038 34.9999 71.25 40.0461 71.25 46.2499C71.25 52.4537 66.2038 57.4999 60 57.4999Z" fill="#C90000"/>
<path d="M60 37.5C57.2424 37.5 55 39.7425 55 42.5C55 45.2575 57.2425 47.4999 60 47.4999C62.7575 47.4999 64.9999 45.2574 64.9999 42.5C64.9999 39.7425 62.7575 37.5 60 37.5ZM60 45C58.6212 45 57.4999 43.8788 57.4999 42.5C57.4999 41.1212 58.6211 39.9999 60 39.9999C61.3787 39.9999 62.5 41.1211 62.5 42.5C62.5 43.8788 61.3787 45 60 45Z" fill="#C90000"/>
<path d="M63.6262 50H56.3738C54.2376 50 52.5 51.6913 52.5 53.7687V57.0638C52.5 57.51 52.7375 57.9225 53.1237 58.1463C55.2187 59.3587 57.5962 60 60 60C62.4038 60 64.7812 59.3587 66.8763 58.1463C67.2625 57.9238 67.5 57.51 67.5 57.0651V53.7701C67.5 51.6913 65.7625 50 63.6262 50ZM64.9999 56.3187C61.8888 57.8687 58.1112 57.8687 54.9999 56.3187V53.7701C54.9999 53.07 55.6162 52.5 56.3736 52.5H63.6261C64.3835 52.5 64.9998 53.07 64.9998 53.7701V56.3187H64.9999Z" fill="#C90000"/>
<path d="M30 47.5C22.4187 47.5 16.25 53.6687 16.25 61.25C16.25 68.8313 22.4187 74.9999 30 74.9999C37.5813 74.9999 43.7501 68.8312 43.7501 61.2499C43.7501 53.6686 37.5813 47.5 30 47.5ZM30 72.4999C23.7963 72.4999 18.75 67.4537 18.75 61.2499C18.75 55.0461 23.7963 49.9999 30 49.9999C36.2038 49.9999 41.25 55.0461 41.25 61.2499C41.25 67.4537 36.2038 72.4999 30 72.4999Z" fill="#C90000"/>
<path d="M30 52.5C27.2424 52.5 25 54.7425 25 57.5C25 60.2575 27.2425 62.4999 30 62.4999C32.7574 62.4999 34.9999 60.2574 34.9999 57.5C34.9999 54.7425 32.7575 52.5 30 52.5ZM30 60C28.6212 60 27.4999 58.8788 27.4999 57.5C27.4999 56.1212 28.6211 54.9999 30 54.9999C31.3787 54.9999 32.5 56.1211 32.5 57.5C32.5 58.8788 31.3787 60 30 60Z" fill="#C90000"/>
<path d="M33.6262 65H26.3738C24.2376 65 22.5 66.6913 22.5 68.7687V72.0638C22.5 72.51 22.7375 72.9225 23.1237 73.1463C25.2187 74.3587 27.5962 75 30 75C32.4038 75 34.7812 74.3587 36.8763 73.1463C37.2625 72.9238 37.5 72.5101 37.5 72.0651V68.7701C37.5 66.6913 35.7625 65 33.6262 65ZM34.9999 71.3187C31.8886 72.8687 28.1112 72.8687 24.9999 71.3187V68.7701C24.9999 68.07 25.6162 67.5 26.3736 67.5H33.6261C34.3835 67.5 34.9998 68.07 34.9998 68.7701V71.3187H34.9999Z" fill="#C90000"/>
<path d="M13.75 16.25C6.16875 16.25 0 22.4188 0 30.0001C0 37.5814 6.16875 43.7501 13.75 43.7501C21.3314 43.7501 27.5001 37.5814 27.5001 30.0001C27.5 22.4188 21.3312 16.25 13.75 16.25ZM13.75 41.2501C7.54629 41.2501 2.50005 36.2038 2.50005 30.0001C2.50005 23.7963 7.54629 18.75 13.75 18.75C19.9538 18.75 25.0001 23.7963 25.0001 30.0001C25.0001 36.2038 19.9538 41.2501 13.75 41.2501Z" fill="#C90000"/>
<path d="M13.7499 21.25C10.9924 21.25 8.75 23.4925 8.75 26.2499C8.75 29.0074 10.9925 31.2499 13.7499 31.2499C16.5075 31.2499 18.7499 29.0074 18.7499 26.2499C18.7499 23.4925 16.5074 21.25 13.7499 21.25ZM13.7499 28.75C12.3712 28.75 11.2499 27.6288 11.2499 26.2499C11.2499 24.8711 12.3711 23.7499 13.7499 23.7499C15.1287 23.7499 16.25 24.8711 16.25 26.2499C16.25 27.6288 15.1287 28.75 13.7499 28.75Z" fill="#C90000"/>
<path d="M17.3762 33.75H10.1238C7.9876 33.75 6.25 35.4413 6.25 37.5187V40.8138C6.25 41.26 6.48745 41.6725 6.87373 41.8963C8.96875 43.1087 11.3462 43.75 13.75 43.75C16.1538 43.75 18.5312 43.1087 20.6263 41.8963C21.0125 41.6738 21.25 41.26 21.25 40.8151V37.5201C21.25 35.4413 19.5124 33.75 17.3762 33.75ZM18.7499 40.0688C15.6388 41.6187 11.8612 41.6187 8.7499 40.0688V37.5201C8.7499 36.82 9.36616 36.25 10.1236 36.25H17.3761C18.1335 36.25 18.7498 36.82 18.7498 37.5201V40.0688H18.7499Z" fill="#C90000"/>
<path d="M43.75 0C36.1687 0 30 6.16875 30 13.75C30 21.3313 36.1687 27.5001 43.75 27.5001C51.3313 27.5001 57.5001 21.3313 57.5001 13.75C57.4999 6.16875 51.3312 0 43.75 0ZM43.75 25C37.5463 25 32.5 19.9538 32.5 13.75C32.5 7.54629 37.5463 2.50005 43.75 2.50005C49.9538 2.50005 55 7.54629 55 13.75C55 19.9538 49.9538 25 43.75 25Z" fill="#C90000"/>
<path d="M43.75 5C40.9924 5 38.75 7.24253 38.75 9.99995C38.75 12.7574 40.9925 14.9999 43.75 14.9999C46.5074 14.9999 48.7499 12.7575 48.7499 10.0001C48.7499 7.24268 46.5074 5 43.75 5ZM43.75 12.5C42.3712 12.5 41.2499 11.3788 41.2499 9.99995C41.2499 8.62124 42.3711 7.4999 43.75 7.4999C45.1288 7.4999 46.25 8.62109 46.25 9.99995C46.2499 11.3788 45.1287 12.5 43.75 12.5Z" fill="#C90000"/>
<path d="M47.3762 17.5H40.1238C37.9876 17.5 36.25 19.1913 36.25 21.2687V24.5638C36.25 25.01 36.4875 25.4225 36.8737 25.6463C38.9688 26.8587 41.3462 27.5 43.75 27.5C46.1538 27.5 48.5312 26.8587 50.6263 25.6463C51.0125 25.4238 51.25 25.01 51.25 24.5651V21.2701C51.25 19.1912 49.5124 17.5 47.3762 17.5ZM48.7499 23.8187C45.6388 25.3687 41.8612 25.3687 38.7499 23.8187V21.2701C38.7499 20.57 39.3662 20 40.1236 20H47.3761C48.1335 20 48.7498 20.57 48.7498 21.2701V23.8187H48.7499Z" fill="#C90000"/>
<path d="M32.2011 12.9362C31.7524 12.4137 30.9636 12.3511 30.4386 12.7999L21.7761 20.2125C21.2511 20.6612 21.1899 21.45 21.6385 21.975C21.8861 22.2637 22.236 22.4125 22.5885 22.4125C22.876 22.4125 23.1648 22.3138 23.401 22.1112L32.0635 14.6987C32.5887 14.25 32.6499 13.4612 32.2011 12.9362Z" fill="#C90000"/>
<path d="M59.75 33.0013L52.25 23.0013C51.8362 22.4475 51.0525 22.3387 50.4999 22.7512C49.9474 23.165 49.8362 23.9487 50.2499 24.4999L57.7499 34.5C57.9961 34.8275 58.3711 34.9999 58.7511 34.9999C59.0111 34.9999 59.275 34.9186 59.5 34.7499C60.0525 34.3362 60.1638 33.5525 59.75 33.0013Z" fill="#C90000"/>
<path d="M49.4913 50.3837C49.0774 49.8312 48.2938 49.72 47.7412 50.1337L40.7587 55.3699C40.2062 55.7837 40.095 56.5674 40.5087 57.1186C40.7549 57.4462 41.1299 57.6186 41.5099 57.6186C41.7711 57.6186 42.0336 57.5361 42.2587 57.3685L49.2412 52.1323C49.7938 51.7188 49.9051 50.935 49.4913 50.3837Z" fill="#C90000"/>
<path d="M17.5 60H8.74995C8.06001 60 7.5 60.5587 7.5 61.2499C7.5 61.9412 8.06001 62.4999 8.74995 62.4999H17.4999C18.1898 62.4999 18.7499 61.9412 18.7499 61.2499C18.7499 60.5587 18.19 60 17.5 60Z" fill="#C90000"/>
<path d="M13.7501 0C10.9925 0 8.75 2.24253 8.75 4.99995C8.75 7.75752 10.9925 9.9999 13.7499 9.9999C16.5075 9.9999 18.7499 7.75737 18.7499 4.99995C18.75 2.24253 16.5075 0 13.7501 0ZM13.7501 7.5C12.3714 7.5 11.25 6.37881 11.25 4.99995C11.25 3.62124 12.3712 2.4999 13.7501 2.4999C15.1288 2.4999 16.2501 3.62109 16.2501 4.99995C16.25 6.37881 15.1288 7.5 13.7501 7.5Z" fill="#C90000"/>
<path d="M13.75 7.5C13.06 7.5 12.5 8.05869 12.5 8.74995V17.4999C12.5 18.1912 13.06 18.7499 13.75 18.7499C14.4399 18.7499 14.9999 18.1912 14.9999 17.4999V8.74995C14.9999 8.05869 14.4399 7.5 13.75 7.5Z" fill="#C90000"/>
</g>

</symbol><symbol id="profits" viewBox="0 0 96 96">
<path d="M78.0387 15.7048L77.0309 8.50633C76.9801 8.14389 76.7864 7.81689 76.4928 7.59827C76.1994 7.37983 75.8307 7.28795 75.4687 7.34345L67.5382 8.55808C66.791 8.67245 66.2782 9.37089 66.3926 10.1179C66.5069 10.8651 67.2057 11.3783 67.9524 11.2635L72.5737 10.5557C66.3937 18.1961 59.747 24.7043 52.7853 29.9188C46.7276 34.4563 40.4195 38.0327 34.0364 40.549C23.1729 44.8313 15.7546 44.55 15.6817 44.5474C14.9253 44.5091 14.2872 45.0938 14.2507 45.8479C14.2139 46.6028 14.7961 47.2444 15.551 47.2811C15.5956 47.2832 15.7824 47.2913 16.1026 47.2913C18.0744 47.2913 25.0891 46.9886 34.8686 43.1623C41.5001 40.5677 48.0444 36.8756 54.32 32.1885C61.5316 26.8022 68.4054 20.0764 74.7815 12.1783L75.3282 16.0843C75.4241 16.7685 76.0102 17.2631 76.6818 17.2631C76.7448 17.2631 76.8089 17.2588 76.8732 17.2498C77.6217 17.145 78.1436 16.4533 78.0387 15.7048Z" fill="white"/>
<path d="M93.4749 81.1395H82.4164C83.3267 80.5343 84.1839 79.8349 84.9744 79.0442C88.0905 75.9281 89.8065 71.7851 89.8065 67.3785C89.8065 62.9717 88.0905 58.8287 84.9744 55.7128C83.8644 54.6028 82.6322 53.6889 81.3234 52.962V47.4375C81.3234 46.6817 80.7107 46.0691 79.9551 46.0691C79.1992 46.0691 78.5867 46.6819 78.5867 47.4375V51.7466C74.841 50.4786 70.7738 50.5993 67.1162 52.084V35.2749C67.1162 35.0979 67.2602 34.954 67.4372 34.954H78.2657C78.4427 34.954 78.5867 35.0979 78.5867 35.2749V38.6715C78.5867 39.4273 79.1994 40.0399 79.9551 40.0399C80.7109 40.0399 81.3234 39.4271 81.3234 38.6715V35.2749C81.3234 33.5888 79.9517 32.217 78.2655 32.217H67.437C65.7508 32.217 64.3791 33.5888 64.3791 35.2749V53.5078C63.4097 54.132 62.4906 54.8648 61.6431 55.7124C58.527 58.8285 56.811 62.9715 56.811 67.3781C56.811 71.7849 58.527 75.9279 61.6431 79.0438C62.4336 79.8343 63.2908 80.5339 64.2011 81.1391H55.5598V47.6918C55.5598 46.0056 54.1881 44.6338 52.5019 44.6338H41.6736C39.9874 44.6338 38.6156 46.0056 38.6156 47.6918V81.1395H29.7962V58.9487C29.7962 57.2625 28.4244 55.8908 26.7383 55.8908H15.9097C14.2236 55.8908 12.8518 57.2625 12.8518 58.9487V81.1395H7.215V10.764C7.215 9.37164 6.08231 8.23895 4.68994 8.23895H2.52506C1.13269 8.23895 0 9.37164 0 10.764V20.4791C0 21.235 0.61275 21.8475 1.36837 21.8475C2.124 21.8475 2.73675 21.2348 2.73675 20.4791V10.9759H4.47787V81.3514C4.47787 82.7438 5.61075 83.8764 7.00294 83.8764H93.2629V85.9358H2.73694V29.1266C2.73694 28.3708 2.12419 27.7583 1.36856 27.7583C0.612937 27.7583 0 28.3708 0 29.1266V86.1474C0 87.5398 1.13269 88.6725 2.52506 88.6725H93.4749C94.8673 88.6725 96 87.5398 96 86.1474V83.6644C96 82.2722 94.8673 81.1395 93.4749 81.1395ZM27.0592 81.1395H15.5887V58.9487C15.5887 58.7717 15.7327 58.6277 15.9097 58.6277H26.7383C26.9153 58.6277 27.0592 58.7717 27.0592 58.9487V81.1395ZM41.3524 81.1395V47.6918C41.3524 47.5148 41.4964 47.3708 41.6734 47.3708H52.5017C52.6787 47.3708 52.8227 47.5148 52.8227 47.6918V81.1395H41.3524ZM79.3539 79.7404C77.9679 80.4182 76.4619 80.8586 74.928 81.042C74.9021 81.045 74.8764 81.0486 74.8506 81.0516C74.7458 81.0636 74.6409 81.0737 74.5359 81.0833C74.3758 81.0973 74.2155 81.1101 74.0544 81.1185C74.0036 81.1213 73.9528 81.1228 73.902 81.1251C73.7049 81.1333 73.5073 81.1395 73.3088 81.1395C73.1096 81.1395 72.9116 81.1333 72.714 81.1251C72.6516 81.1224 72.5889 81.1194 72.5267 81.1159C72.3776 81.1076 72.2291 81.0962 72.0808 81.0833C71.9578 81.0722 71.835 81.0593 71.7124 81.0448C71.6246 81.0347 71.5371 81.0244 71.4499 81.0126C71.3252 80.9955 71.2009 80.9775 71.0768 80.9571C71.0606 80.9544 71.0445 80.9514 71.0284 80.9486C69.4138 80.6775 67.8546 80.1208 66.432 79.299C66.4245 79.2947 66.4166 79.2919 66.4091 79.2878C65.388 78.6939 64.4357 77.9665 63.5783 77.1088C60.9791 74.5097 59.5478 71.0541 59.5478 67.3783C59.5478 63.7026 60.9791 60.2469 63.5783 57.6478C64.5735 56.6526 65.685 55.8429 66.8689 55.2169C66.9023 55.1991 66.936 55.1822 66.9696 55.1648C68.9501 54.1384 71.1291 53.6239 73.3088 53.6239C75.0512 53.6239 76.7934 53.9531 78.4341 54.609C78.4626 54.6204 78.4912 54.6313 78.5196 54.6429C78.69 54.7123 78.8589 54.7864 79.0269 54.8629C79.0939 54.8934 79.1606 54.9253 79.2272 54.957C80.6064 55.6125 81.8992 56.5078 83.0391 57.6476C88.4044 63.0131 88.4044 71.7431 83.0391 77.1086C81.9604 78.1879 80.7322 79.062 79.4038 79.7198C79.3873 79.7271 79.3703 79.7323 79.3539 79.7404Z" fill="white"/>
<path d="M73.9448 66.0536V61.1796C75.6256 61.2996 76.2499 62.068 76.8261 62.068C77.5465 62.068 77.8827 61.1556 77.8827 60.6994C77.8827 59.5228 75.5777 59.0186 73.945 58.9706V58.3223C73.945 58.0341 73.585 57.7701 73.2248 57.7701C72.8166 57.7701 72.5284 58.0341 72.5284 58.3223V59.0186C70.2473 59.2588 67.9664 60.4594 67.9664 63.4847C67.9664 66.558 70.3675 67.4224 72.5284 68.1908V73.8332C70.0793 73.6412 69.4311 71.9605 68.6387 71.9605C68.0384 71.9605 67.5342 72.7526 67.5342 73.329C67.5342 74.5056 69.5511 76.1143 72.5284 76.1623H72.5282V76.9065C72.5282 77.1947 72.8164 77.4587 73.2246 77.4587C73.5846 77.4587 73.9448 77.1947 73.9448 76.9065V76.0901C76.5379 75.73 78.3147 74.0972 78.3147 71.1439C78.3147 67.8784 76.0337 66.822 73.9448 66.0536ZM72.6726 65.5975C71.3999 65.1173 70.3675 64.6131 70.3677 63.2445C70.3677 61.9958 71.3281 61.3956 72.6726 61.2276V65.5975ZM73.801 73.7852V68.719C74.9776 69.2231 75.9139 69.8953 75.9139 71.4081C75.9139 72.7768 75.0976 73.5452 73.801 73.7852Z" fill="#C90000"/>
</symbol><symbol id="progress" viewBox="0 0 108 108">
<g clip-path="url(#clip0)">
<path d="M92.5031 55.7944H81.0488C79.3315 54.2805 77.7381 53.6114 77.6649 53.5811C77.6544 53.5766 77.644 53.5726 77.6335 53.5684L60.1364 46.7923V42.8097C62.9027 40.64 64.8275 37.4475 65.3354 33.805C68.7507 33.5167 71.2533 30.7237 71.2533 27.4402C71.2533 25.9158 70.7091 24.459 69.7371 23.3185V17.9187C69.7371 13.7346 68.2898 9.64279 65.6624 6.39667C63.0742 3.19949 59.4507 0.942035 55.4583 0.039645C54.6029 -0.154418 53.7524 0.38284 53.559 1.23861C53.3656 2.09418 53.9024 2.94447 54.758 3.13789C61.7071 4.70854 66.5603 10.7865 66.5603 17.9187V21.2948C66.2068 21.1967 65.8431 21.1283 65.4717 21.0893V21.0556C65.4719 19.749 65.2515 19.7556 60.8125 14.985C59.8951 13.9997 58.4253 13.8381 57.3223 14.5591C52.2225 17.89 46.0026 19.5644 40.2646 19.1521C38.9665 19.0519 37.7889 19.8948 37.437 21.1311C37.0959 21.1745 36.6405 21.2682 36.244 21.3922V17.9189C36.244 10.7867 41.0972 4.70854 48.0461 3.13811C48.9017 2.94468 49.4385 2.09439 49.2451 1.23882C49.0517 0.383262 48.202 -0.154207 47.3458 0.0398559C43.3538 0.942246 39.7299 3.1997 37.1419 6.39688C34.5145 9.643 33.0672 13.7348 33.0672 17.9189V23.4611C32.0849 24.5894 31.5517 25.9731 31.5517 27.4404C31.5517 29.2956 32.3566 31.0519 33.7602 32.2591C34.8106 33.1625 36.0917 33.6897 37.4733 33.8055C37.9867 37.3467 39.9008 40.7628 42.9644 43.0325V46.7931L25.4866 53.5688C25.4767 53.5728 25.4667 53.5766 25.4566 53.5809C25.1366 53.7123 17.6258 56.9012 17.6258 65.6699V94.5354L14.4442 97.7048C12.0851 100.055 12.0773 103.866 14.4282 106.226C16.7774 108.584 20.5884 108.594 22.9492 106.242L43.5542 85.7153L56.664 96.9827C59.1294 99.1007 62.7936 98.8947 65.0066 96.513L88.1091 71.6344L90.5041 74.0294C92.2816 75.8059 95.3303 74.5457 95.3303 72.0301V58.6216C95.3303 57.0628 94.0619 55.7944 92.5031 55.7944ZM65.4721 24.3061C67.0539 24.6278 68.077 25.9626 68.077 27.4404C68.077 28.9393 67.0371 30.2611 65.4721 30.579V24.3061ZM37.3339 30.5792C34.0477 29.9118 33.7115 25.3728 37.3339 24.3846V30.5792ZM76.9566 56.7702C76.7762 56.9784 76.6022 57.2516 76.4828 57.5397C76.0437 58.6001 76.2841 59.8094 77.0958 60.6209L79.5821 63.1072L73.8425 69.2883V68.3524C73.8425 67.4751 73.1317 66.7642 72.2544 66.7642C71.3771 66.7642 70.6662 67.4751 70.6662 68.3524V72.7089L60.1219 84.0643L59.1073 83.1923L57.8052 75.4985C57.6588 74.6339 56.8416 74.0507 55.9742 74.1977C55.1094 74.3441 54.527 75.164 54.6734 76.0286L55.3374 79.9518L48.7348 74.2774L50.277 65.1662H52.8346L53.4189 68.6171C53.5651 69.4817 54.3835 70.066 55.2499 69.918C56.1147 69.7716 56.6971 68.9517 56.5507 68.087L55.8474 63.933L56.938 62.2917L57.4537 62.6581C58.8016 63.6149 60.6838 63.142 61.421 61.6655L66.0077 52.4726C77.4034 56.8856 76.4632 56.4998 76.9566 56.7702ZM54.3466 60.4519L53.3246 61.9901H49.7864L48.7644 60.4517L51.5555 58.4695L54.3466 60.4519ZM46.1414 47.3059V44.7826C47.8822 45.4583 49.7613 45.7692 51.5808 45.7692C53.4497 45.7692 55.3172 45.3775 56.9599 44.6848V47.3179L51.5557 53.989L46.1414 47.3059ZM63.0326 51.3204L58.8314 59.7409C58.2334 59.316 57.7474 58.9705 53.8503 56.2028L57.9235 51.1749L59.0539 49.7795L63.0326 51.3204ZM40.5104 31.8785C40.5104 29.6215 40.5104 27.1706 40.5104 22.3507C46.8035 22.6861 53.3837 20.8318 58.743 17.4234C60.7912 19.6218 61.9058 20.7828 62.2958 21.2522C62.2958 33.2043 62.2985 31.6746 62.2888 32.1511C62.1437 37.923 57.3989 42.5931 51.581 42.5931C44.9409 42.5927 40.5104 37.4412 40.5104 31.8785ZM44.0501 49.7823L49.255 56.2068C47.2644 57.6205 44.4534 59.6175 44.2798 59.7406L40.0786 51.3202L44.0501 49.7823ZM26.6558 56.5224L37.1033 52.472L41.6904 61.665C42.042 62.3696 42.682 62.8834 43.4458 63.0745C44.2069 63.265 45.0145 63.1148 45.6577 62.6577L46.1732 62.2915L47.2638 63.933L45.8825 72.094C43.631 71.0093 40.8403 71.4093 39.0001 73.2423L32.4555 79.762V68.352C32.4555 67.4747 31.7447 66.7638 30.8674 66.7638C29.9901 66.7638 29.2792 67.4747 29.2792 68.352V82.9263L20.8027 91.3703V65.6697C20.8027 59.1365 26.3132 56.669 26.6558 56.5224ZM92.1536 71.1867L89.1895 68.2224C88.5269 67.5607 87.4931 67.6289 86.9025 68.2648L62.6793 94.3515C61.6335 95.4772 59.9002 95.5749 58.7343 94.5738L44.5098 82.3485C43.8805 81.8077 42.9414 81.842 42.3536 82.4276L20.7078 103.992C19.5928 105.102 17.7907 105.1 16.6789 103.984C15.5679 102.869 15.5706 101.067 16.6863 99.9552C17.8593 98.7869 40.4551 76.2769 41.2419 75.4932C42.2983 74.4407 44.0069 74.4033 45.1097 75.3506L59.2104 87.4694C59.8574 88.0255 60.8285 87.9713 61.4094 87.3458L82.9514 64.1469C83.5328 63.5211 83.5146 62.5472 82.9105 61.943L79.938 58.9707H80.4303H92.1536V71.1867Z" fill="white"/>
<g clip-path="url(#clip1)">
<path d="M91.999 70.9848L89.0753 68.0662C88.4325 67.4246 87.4164 67.4867 86.8358 68.1076L63.0316 93.7125C61.9948 94.8096 60.2945 94.9131 59.1541 93.9402L45.1784 81.9347C44.5563 81.3965 43.644 81.4379 43.0634 82.0175L21.7681 103.172C20.6691 104.269 18.9066 104.269 17.8076 103.172C16.7087 102.075 16.7087 100.316 17.8076 99.2185C18.9688 98.08 41.1765 75.9733 41.9437 75.2075C42.9804 74.1725 44.66 74.1311 45.7382 75.0626L59.5895 86.9646C60.2323 87.5028 61.1861 87.4614 61.746 86.8404L82.9169 64.0713C83.4974 63.4503 83.4767 62.4982 82.8754 61.9186L79.9932 59H80.4701H91.999V70.9848Z" fill="#C90000"/>
</g>
</g>

</symbol><symbol id="rating" viewBox="0 0 71 71">
<path d="M64.9194 21.8904H61.9299V19.968L63.7951 17.9137C64.7635 16.8474 65.2967 15.4669 65.2967 14.0263V9.15465C65.2967 5.74817 62.5252 2.97681 59.1187 2.97681H56.277C52.8706 2.97681 50.0992 5.74831 50.0992 9.15465V14.0263C50.0992 15.4669 50.6325 16.8475 51.6006 17.9137L53.4662 19.9683V21.8904H50.4767C47.5723 21.8904 45.1382 23.9378 44.5386 26.6649C44.2334 26.6222 43.9222 26.5986 43.6055 26.5986H40.1037V24.247L42.2398 21.8947C43.3077 20.7185 43.896 19.1958 43.896 17.607V12.1199C43.896 8.35742 40.8351 5.29679 37.0728 5.29679C36.4831 5.29679 36.0054 5.77452 36.0054 6.36415C36.0054 6.95379 36.4831 7.43151 37.0728 7.43151C39.658 7.43151 41.7613 9.53461 41.7613 12.1199V17.6069C41.7613 18.664 41.3699 19.677 40.6595 20.4595L38.4599 22.8819C38.1648 23.0718 37.9693 23.4031 37.9693 23.7803V27.6661C37.9693 28.2558 38.447 28.7335 39.0366 28.7335H43.6057C46.1305 28.7335 48.1848 30.7876 48.1848 33.3126V40.0102H22.7603V33.3126C22.7603 31.344 24.0091 29.6619 25.7559 29.016C25.8379 28.9988 25.9162 28.9715 25.9901 28.9365C26.4168 28.8048 26.8699 28.7334 27.3392 28.7334H31.9083C32.4978 28.7334 32.9757 28.2556 32.9757 27.666V23.7801C32.9757 23.4031 32.7802 23.0716 32.4851 22.8818L30.2854 20.4593C29.5749 19.6768 29.1834 18.6637 29.1834 17.6067V12.1199C29.1834 9.53475 31.2865 7.43151 33.8719 7.43151C34.4614 7.43151 34.9393 6.95379 34.9393 6.36415C34.9393 5.77452 34.4614 5.29679 33.8719 5.29679C30.1095 5.29679 27.0487 8.35756 27.0487 12.1199V17.6069C27.0487 19.1955 27.6369 20.7182 28.7049 21.8946L30.8407 24.2468V26.5985H27.3389C27.0407 26.5985 26.7475 26.62 26.4595 26.658C25.8574 23.9343 23.4252 21.8904 20.5232 21.8904H17.5337V19.968L19.399 17.9137C20.3673 16.8474 20.9005 15.4669 20.9005 14.0263V9.15465C20.9005 5.74817 18.129 2.97681 14.7225 2.97681H11.8812C8.47467 2.97681 5.70331 5.74831 5.70331 9.15465V14.0263C5.70331 15.4669 6.2365 16.8475 7.20485 17.9137L9.07027 19.9682V21.8904H6.08077C2.72782 21.8904 0 24.6183 0 27.9712V34.8654C0 35.4551 0.477864 35.9328 1.06736 35.9328H17.6745C18.264 35.9328 18.7418 35.4551 18.7418 34.8654C18.7418 34.2758 18.264 33.7981 17.6745 33.7981H2.13472V27.9712C2.13472 25.7954 3.90487 24.0252 6.08077 24.0252H10.1376C10.7271 24.0252 11.205 23.5474 11.205 22.9578V19.5076C11.205 19.1364 11.0154 18.8094 10.7278 18.6182L8.78516 16.4788C8.17431 15.8061 7.83789 14.9352 7.83789 14.0265V9.15465C7.83789 6.92522 9.65158 5.11153 11.881 5.11153H14.7227C16.9521 5.11153 18.7659 6.92522 18.7659 9.15465V14.0263C18.7659 14.9351 18.4295 15.8061 17.8187 16.4786L15.8759 18.6182C15.5884 18.8094 15.399 19.1364 15.399 19.5075V22.9577C15.399 23.5473 15.8769 24.025 16.4663 24.025H20.5232C22.4611 24.025 24.0761 25.4296 24.4063 27.2741C22.1699 28.3646 20.6254 30.661 20.6254 33.3122V41.0771C20.6254 41.6667 21.1033 42.1445 21.6928 42.1445H49.2519C49.8415 42.1445 50.3193 41.6667 50.3193 41.0771V33.3122C50.3193 30.6814 48.7976 28.4005 46.5888 27.3C46.9085 25.4429 48.5296 24.025 50.4767 24.025H54.5335C55.1231 24.025 55.6009 23.5473 55.6009 22.9577V19.5075C55.6009 19.1361 55.4113 18.8091 55.1236 18.6179L53.181 16.4786C52.5702 15.8061 52.2339 14.9351 52.2339 14.0263V9.15465C52.2339 6.92522 54.0476 5.11153 56.277 5.11153H59.1187C61.3481 5.11153 63.162 6.92522 63.162 9.15465V14.0263C63.162 14.9351 62.8256 15.8061 62.2147 16.4786L60.272 18.6182C59.9844 18.8094 59.795 19.1364 59.795 19.5075V22.9577C59.795 23.5473 60.2727 24.025 60.8624 24.025H64.9192C67.095 24.025 68.8653 25.7952 68.8653 27.9711V33.7979H53.5091C52.9195 33.7979 52.4418 34.2757 52.4418 34.8653C52.4418 35.4549 52.9195 35.9327 53.5091 35.9327H69.9326C70.5223 35.9327 71 35.4549 71 34.8653V27.9711C71.0001 24.6183 68.2723 21.8904 64.9194 21.8904Z" fill="#C90000"/>
<path d="M45.4318 55.6722C45.3087 55.2925 44.9838 55.0133 44.5897 54.9486L38.7591 53.9914L36.0471 48.7419C35.8639 48.3873 35.4981 48.1643 35.0988 48.1643C34.6996 48.1643 34.3338 48.387 34.1506 48.7419L31.4386 53.9914L25.608 54.9486C25.214 55.0133 24.8891 55.2923 24.7657 55.6722C24.6423 56.0518 24.7411 56.4685 25.0218 56.7525L29.1761 60.9539L28.2846 66.7948C28.2244 67.1894 28.3893 67.5848 28.7124 67.8193C28.8982 67.9543 29.1185 68.0233 29.3399 68.0233C29.5033 68.0233 29.6675 67.9857 29.8189 67.9096L35.0986 65.2568L40.3782 67.9096C40.735 68.0889 41.162 68.0542 41.4847 67.8193C41.8078 67.5848 41.9727 67.1894 41.9125 66.7948L41.0208 60.9539L45.1752 56.7525C45.4565 56.4685 45.5553 56.0518 45.4318 55.6722ZM39.1264 59.8341C38.8892 60.0742 38.7795 60.4122 38.8302 60.7456L39.491 65.0741L35.5782 63.1083C35.2766 62.9569 34.9213 62.9569 34.6199 63.1083L30.7071 65.0741L31.3677 60.7456C31.4186 60.412 31.3088 60.0739 31.0715 59.8341L27.9924 56.7204L32.3135 56.0112C32.6464 55.9564 32.934 55.7475 33.0888 55.4478L35.0987 51.5573L37.1085 55.4478C37.2634 55.7475 37.5508 55.9564 37.8838 56.0112L42.2048 56.7204L39.1264 59.8341Z" fill="#C90000"/>
<path d="M22.0676 47.8238C21.9442 47.4441 21.6196 47.1649 21.2257 47.1002L15.3951 46.1431L12.683 40.8935C12.4998 40.5389 12.134 40.3159 11.7347 40.3159C11.3354 40.3159 10.9697 40.5386 10.7865 40.8935L8.07448 46.1431L2.24373 47.1002C1.84977 47.1649 1.52486 47.4439 1.40144 47.8238C1.27802 48.2035 1.37676 48.6203 1.65757 48.9042L5.81205 53.1055L4.92038 58.9465C4.8602 59.3412 5.02508 59.7365 5.34819 59.971C5.67129 60.2057 6.09813 60.2408 6.45465 60.0613L11.7343 57.4085L17.014 60.0613C17.1654 60.1374 17.3296 60.175 17.493 60.175C17.7146 60.175 17.9348 60.1062 18.1205 59.971C18.4436 59.7365 18.6084 59.3412 18.5483 58.9465L17.6566 53.1055L21.8111 48.9042C22.0923 48.6203 22.191 48.2035 22.0676 47.8238ZM15.7622 51.9859C15.5249 52.2258 15.4152 52.564 15.466 52.8974L16.1268 57.226L12.214 55.2602C12.0631 55.1845 11.8991 55.1465 11.7347 55.1465C11.5704 55.1465 11.4062 55.1845 11.2555 55.2602L7.34271 57.226L8.00348 52.8974C8.05424 52.5637 7.94455 52.2256 7.70728 51.9859L4.62834 48.8723L8.94937 48.1631C9.28246 48.1083 9.56992 47.8993 9.72468 47.5997L11.7345 43.7092L13.7444 47.5997C13.8993 47.8993 14.1867 48.1083 14.5197 48.1631L18.8406 48.8723L15.7622 51.9859Z" fill="#C90000"/>
<path d="M68.7967 47.8239C68.6734 47.4441 68.3484 47.1649 67.9544 47.1002L62.1238 46.1431L59.4118 40.8935C59.2285 40.5389 58.8628 40.3159 58.4634 40.3159C58.0641 40.3159 57.6984 40.5386 57.5151 40.8935L54.8033 46.1432L48.9727 47.1003C48.5787 47.1651 48.2538 47.4441 48.1304 47.8239C48.007 48.2036 48.1059 48.6204 48.3865 48.9043L52.541 53.1056L51.6495 58.9467C51.5893 59.3413 51.7542 59.7367 52.0773 59.9712C52.4003 60.2058 52.8271 60.2409 53.1838 60.0614L58.4634 57.4086L63.743 60.0614C63.8944 60.1376 64.0586 60.1751 64.2219 60.1751C64.4434 60.1751 64.6637 60.1064 64.8494 59.9712C65.1725 59.7367 65.3374 59.3413 65.2772 58.9467L64.3857 53.1056L68.54 48.9043C68.8211 48.6203 68.9201 48.2036 68.7967 47.8239ZM62.491 51.9859C62.2538 52.2258 62.1439 52.564 62.1948 52.8974L62.8555 57.226L58.9428 55.2602C58.7921 55.1843 58.6279 55.1465 58.4636 55.1465C58.2992 55.1465 58.1351 55.1845 57.9843 55.2602L54.0715 57.226L54.7323 52.8974C54.7832 52.5637 54.6734 52.2256 54.4361 51.9859L51.3576 48.8723L55.6786 48.1631C56.0116 48.1083 56.2992 47.8993 56.4541 47.5997L58.4639 43.7092L60.4736 47.5997C60.6285 47.8993 60.9161 48.1083 61.2491 48.1631L65.5701 48.8723L62.491 51.9859Z" fill="#C90000"/>
</symbol><symbol id="skype" viewBox="0 0 14 16">
<path d="M13.2719 9.36875C13.3625 8.93125 13.4187 8.46562 13.4187 8C13.4187 4.45312 10.5469 1.58438 7.00313 1.58438C6.5375 1.58438 6.075 1.6375 5.63438 1.73125C5.04063 1.27188 4.30313 1 3.5 1C1.56875 1 0 2.56875 0 4.5C0 5.30313 0.271875 6.04062 0.728125 6.63125C0.6375 7.06875 0.58125 7.53438 0.58125 8C0.58125 11.5469 3.45312 14.4156 6.99687 14.4156C7.4625 14.4156 7.925 14.3625 8.36563 14.2688C8.95938 14.725 9.69687 14.9969 10.4969 14.9969C12.4281 14.9969 13.9969 13.4281 13.9969 11.4969C14 10.6969 13.7281 9.95937 13.2719 9.36875V9.36875ZM7.19063 12.2281C5.14063 12.2281 3.425 11.3156 3.425 10.1969C3.425 9.69687 3.70625 9.24063 4.34688 9.24063C5.32188 9.24063 5.4125 10.6438 7.1 10.6438C7.90312 10.6438 8.42188 10.2875 8.42188 9.82187C8.42188 9.2375 7.92188 9.14687 7.10938 8.94687C5.15625 8.46562 3.42812 8.25938 3.42812 6.22188C3.42812 4.37188 5.25938 3.6875 6.8375 3.6875C8.55938 3.6875 10.3 4.37187 10.3 5.41875C10.3 5.94687 9.94375 6.4125 9.35312 6.4125C8.46875 6.4125 8.44063 5.36562 7.00938 5.36562C6.20625 5.36562 5.69688 5.58437 5.69688 6.06875C5.69688 6.6875 6.34687 6.75 7.85625 7.1C9.15 7.39062 10.6906 7.9375 10.6906 9.525C10.6906 11.3719 8.90625 12.2281 7.19063 12.2281V12.2281Z" fill="#A3A3A3"/>
</symbol><symbol id="telegram-plane" viewBox="0 0 14 16">
<path d="M13.9594 3.08122L11.8469 13.0437C11.6875 13.7468 11.2719 13.9218 10.6812 13.5906L7.46248 11.2187L5.90935 12.7125C5.73748 12.8843 5.59373 13.0281 5.26248 13.0281L5.49373 9.74997L11.4594 4.35934C11.7187 4.12809 11.4031 3.99997 11.0562 4.23122L3.68123 8.87497L0.506228 7.88122C-0.184397 7.6656 -0.196897 7.1906 0.649978 6.85934L13.0687 2.07497C13.6437 1.85934 14.1469 2.20309 13.9594 3.08122Z" fill="#A3A3A3"/>
</symbol><symbol id="twitter" viewBox="0 0 16 16">
<path d="M14.3553 4.74113C14.3655 4.88325 14.3655 5.02541 14.3655 5.16753C14.3655 9.50253 11.066 14.4975 5.03553 14.4975C3.17766 14.4975 1.45178 13.9594 0 13.0254C0.263969 13.0558 0.51775 13.066 0.791875 13.066C2.32484 13.066 3.73603 12.5483 4.86294 11.665C3.42131 11.6345 2.21319 10.6904 1.79694 9.39088C2 9.42131 2.20303 9.44163 2.41625 9.44163C2.71066 9.44163 3.00509 9.401 3.27919 9.32997C1.77666 9.02538 0.649719 7.7056 0.649719 6.11169V6.07109C1.08625 6.31475 1.59391 6.46703 2.13194 6.48731C1.24869 5.89847 0.670031 4.89341 0.670031 3.75634C0.670031 3.14722 0.832438 2.58884 1.11672 2.10153C2.73094 4.09138 5.15734 5.39084 7.87813 5.533C7.82738 5.28934 7.79691 5.03556 7.79691 4.78175C7.79691 2.97463 9.25884 1.50256 11.0761 1.50256C12.0203 1.50256 12.873 1.8985 13.472 2.53809C14.2131 2.39597 14.9238 2.12184 15.5533 1.74622C15.3096 2.50766 14.7918 3.14725 14.1116 3.55331C14.7715 3.48228 15.4111 3.2995 15.9999 3.04572C15.5533 3.69544 14.9949 4.27409 14.3553 4.74113Z" fill="#A3A3A3"/>
</symbol><symbol id="web-development" viewBox="0 0 89 89">
<path d="M60.9184 24.6701C60.9184 24.1283 60.416 23.7053 60.0196 23.7053C59.9271 23.7053 59.8345 23.7185 59.7684 23.7714L56.4112 25.9522C56.1072 26.1506 56.0015 26.4677 56.0015 26.6924C56.0015 26.9172 56.1072 27.2344 56.4112 27.4328L59.7684 29.6136C59.8345 29.6664 59.927 29.6797 60.0196 29.6797C60.416 29.6797 60.9184 29.2567 60.9184 28.7147C60.9184 28.4901 60.8259 28.2917 60.6805 28.1992L58.3541 26.6924L60.6805 25.1856C60.8257 25.0931 60.9184 24.8949 60.9184 24.6701Z" fill="#C90000"/>
<path d="M67.5668 20.1497C67.3289 20.1497 67.1174 20.2553 67.0117 20.48L62.3724 30.0097C62.3327 30.089 62.3062 30.1815 62.3062 30.2609C62.3062 30.5912 62.597 30.9614 63.0465 30.9614C63.2977 30.9614 63.5488 30.8291 63.6413 30.631L68.2939 21.1012C68.3334 21.0219 68.3467 20.9294 68.3467 20.8501C68.3466 20.4272 67.9369 20.1497 67.5668 20.1497Z" fill="#C90000"/>
<path d="M74.2421 25.9522L70.8849 23.7714C70.8189 23.7185 70.7264 23.7053 70.6338 23.7053C70.2372 23.7053 69.7349 24.1283 69.7349 24.6701C69.7349 24.8949 69.8273 25.0931 69.9729 25.1856L72.2991 26.6924L69.9729 28.1992C69.8273 28.2917 69.7349 28.4901 69.7349 28.7147C69.7349 29.2567 70.2372 29.6797 70.6338 29.6797C70.7262 29.6797 70.8189 29.6664 70.8849 29.6136L74.2421 27.4328C74.5462 27.2344 74.6518 26.9173 74.6518 26.6924C74.6518 26.4678 74.5462 26.1506 74.2421 25.9522Z" fill="#C90000"/>
<path d="M75.8897 13.289H52.8448C51.6542 10.1804 48.6392 7.96753 45.1168 7.96753H29.6601C25.0993 7.96753 21.3887 11.6781 21.3887 16.239V25.6309C20.4668 26.4254 20.0377 27.6682 20.2649 28.9189L20.8724 32.2627C21.0907 33.4106 21.7005 34.0009 22.1736 34.2937C22.7024 34.621 23.2894 34.7292 23.8282 34.7316L23.8284 35.3259C23.8284 38.3408 25.5872 41.6634 28.6539 44.4418C29.2313 44.9648 29.8317 45.447 30.4436 45.8832V47.6755C30.4436 48.2218 30.0537 48.6906 29.5166 48.7905C29.4918 48.795 29.4669 48.8006 29.4425 48.8069C29.4238 48.8117 27.5865 49.2907 25.1849 49.9718H17.3365C16.454 49.9718 15.603 50.3422 15.0015 50.988C14.4002 51.6337 14.0912 52.5091 14.154 53.3893L14.1756 53.6918C10.6649 55.4519 8.45653 58.608 8.24604 62.1953C8.24518 62.2103 8.24461 62.2253 8.24432 62.2402L8.0003 76.9732C7.98731 78.0535 8.3983 79.0718 9.15749 79.8403C9.91696 80.609 10.9302 81.0323 12.0107 81.0323H62.7663C63.8468 81.0323 64.86 80.609 65.6193 79.8404C66.3786 79.0718 66.7896 78.0536 66.7765 76.9685L66.5326 62.2402C66.5323 62.2253 66.5317 62.2103 66.5309 62.1953C66.3144 58.5045 63.983 55.27 60.2943 53.543C60.2263 53.5111 60.1557 53.4787 60.0826 53.4458L60.0866 53.3894C60.1493 52.5092 59.8403 51.6339 59.2391 50.9881C58.6376 50.3424 57.7865 49.9719 56.9042 49.9719H49.5921C47.1907 49.2908 45.3531 48.8119 45.3345 48.807C45.31 48.8008 45.2853 48.7952 45.2605 48.7906C44.7232 48.6909 44.3335 48.2221 44.3335 47.6757V45.8833C44.9454 45.4472 45.5457 44.965 46.1231 44.442C48.0722 42.6762 49.493 40.6906 50.2697 38.7038H57.2234L56.0089 43.6063C55.8064 44.4239 56.1309 45.2504 56.8358 45.7115C57.1668 45.9281 57.5379 46.0356 57.9077 46.0356C58.3257 46.0356 58.7418 45.8983 59.0961 45.6261L68.1076 38.7038H75.8896C78.7094 38.7038 81.0036 36.4097 81.0036 33.5899V18.4029C81.0037 15.5831 78.7096 13.289 75.8897 13.289ZM50.9508 27.4801C51.3598 27.3405 51.7473 27.2836 52 27.2605C52.3358 27.5586 52.4945 28.0501 52.4063 28.5361L51.8021 31.8627C51.7139 32.3271 51.5355 32.4374 51.4768 32.4736C51.3525 32.5505 51.1693 32.5902 50.9497 32.5925L50.9508 27.4801ZM23.5293 16.239C23.5293 12.8584 26.2796 10.1081 29.6601 10.1081H45.1169C48.4974 10.1081 51.2479 12.8583 51.2479 16.239V25.2062C50.7181 25.2999 50.0586 25.4794 49.4149 25.8227V19.3014C49.4149 16.9561 47.5069 15.0481 45.1616 15.0481H42.2692C41.2666 15.0481 40.2869 15.3976 39.5105 16.0322L39.2271 16.2641C38.7098 16.6871 38.0567 16.92 37.3883 16.92C36.72 16.92 36.067 16.6871 35.5499 16.2642L35.266 16.0321C34.4898 15.3976 33.5102 15.048 32.5075 15.048H29.6153C27.27 15.048 25.362 16.9559 25.362 19.3013V25.8226C24.7183 25.4792 24.0589 25.2996 23.529 25.2061V16.239H23.5293ZM23.3002 32.4738C23.2416 32.4375 23.0633 32.3272 22.9766 31.8714L22.3708 28.5364C22.2826 28.0506 22.4409 27.5597 22.7762 27.2613C23.0288 27.2842 23.4165 27.3404 23.8261 27.4798L23.8275 32.5926C23.608 32.5904 23.4247 32.5507 23.3002 32.4738ZM13.8304 78.1166C13.8304 78.3848 13.8669 78.6447 13.935 78.8917H12.0107C11.5068 78.8917 11.0345 78.6944 10.6804 78.3359C10.3264 77.9776 10.1347 77.5028 10.1407 77.0039L10.3843 62.2989C10.5423 59.7289 11.9666 57.5012 14.3432 56.0442L15.65 74.3777C15.674 74.7142 15.7504 75.0359 15.8709 75.3351C14.6894 75.7077 13.8304 76.8137 13.8304 78.1166ZM58.5907 74.3778L59.9185 55.7485C62.6038 57.1894 64.2236 59.5483 64.3927 62.2988L64.6362 76.9992C64.6422 77.5028 64.4505 77.9776 64.0966 78.3359C63.7426 78.6944 63.2701 78.8917 62.7663 78.8917H60.8421C60.9103 78.6449 60.9467 78.3848 60.9467 78.1166C60.9467 76.6377 59.84 75.4127 58.4114 75.2258C58.508 74.9581 58.5697 74.6737 58.5907 74.3778ZM58.8061 78.1166C58.8061 78.544 58.4584 78.8917 58.0311 78.8917H16.746C16.3186 78.8917 15.9709 78.544 15.9709 78.1166C15.9709 77.6893 16.3187 77.3415 16.746 77.3415H58.0313C58.4585 77.3417 58.8061 77.6893 58.8061 78.1166ZM57.6726 52.4468C57.8734 52.6626 57.9726 52.9432 57.9515 53.2372L56.4555 74.2257C56.4167 74.7726 55.9566 75.201 55.4082 75.201H18.8324C18.284 75.201 17.8241 74.7726 17.785 74.2256L16.289 53.2373C16.268 52.9432 16.3671 52.6626 16.568 52.447C16.7689 52.2312 17.0418 52.1125 17.3365 52.1125H56.9043C57.1987 52.1125 57.4719 52.2312 57.6726 52.4468ZM43.1332 49.9719H31.6437C32.2293 49.3763 32.584 48.5611 32.584 47.6757V47.1968C34.2718 48.0702 35.9486 48.5604 37.3885 48.5604C38.8284 48.5604 40.5051 48.0704 42.1929 47.1968V47.6757C42.1929 48.5611 42.5477 49.3763 43.1332 49.9719ZM44.686 42.8557C42.2961 45.0208 39.4317 46.4199 37.3885 46.4199C35.3454 46.4199 32.4809 45.0208 30.0911 42.8557C27.4713 40.4822 25.9688 37.7379 25.9688 35.3257L25.967 28.5825C25.9808 28.5829 25.9946 28.5831 26.0085 28.5831C26.202 28.5831 26.3974 28.5453 26.5839 28.4673C27.1421 28.2344 27.5027 27.6933 27.5027 27.089V19.3014C27.5027 18.1365 28.4504 17.1887 29.6155 17.1887H32.5077C33.0178 17.1887 33.5163 17.3665 33.911 17.6893L34.195 17.9215C35.0936 18.656 36.2277 19.0605 37.3883 19.0605C38.5489 19.0605 39.6832 18.656 40.5821 17.9213L40.8655 17.6894C41.2605 17.3665 41.7589 17.1887 42.2691 17.1887H45.1614C46.3263 17.1887 47.2742 18.1365 47.2742 19.3014V27.0891C47.2742 27.6934 47.6348 28.2346 48.1931 28.4675C48.3928 28.551 48.6029 28.5885 48.8098 28.5828L48.8081 35.326C48.8083 37.7377 47.3056 40.4822 44.686 42.8557ZM78.8631 33.5899C78.8631 35.2294 77.5293 36.5633 75.8897 36.5633H67.7442C67.5084 36.5633 67.2791 36.6412 67.0923 36.7847L58.2149 43.6039L59.6303 37.891C59.7095 37.5715 59.6371 37.2333 59.4342 36.974C59.2314 36.7148 58.9205 36.5633 58.5914 36.5633H50.8535C50.9166 36.1467 50.9488 35.7337 50.9488 35.3263L50.949 34.7318C51.4878 34.7294 52.0748 34.6212 52.6038 34.2938C53.0767 34.0009 53.6866 33.4108 53.9065 32.2541L54.5123 28.9189C54.7395 27.668 54.3101 26.4249 53.3885 25.6311V16.239C53.3885 15.966 53.3752 15.696 53.3491 15.4296H75.8897C77.5293 15.4296 78.8631 16.7634 78.8631 18.4029V33.5899Z" fill="#C90000"/>
<path d="M37.3868 68.5268C39.6055 68.5268 41.4104 66.7219 41.4104 64.5033C41.4104 62.2847 39.6055 60.4797 37.3868 60.4797C35.1682 60.4797 33.3633 62.2847 33.3633 64.5033C33.3633 66.7219 35.1682 68.5268 37.3868 68.5268ZM37.3868 62.6203C38.4252 62.6203 39.2698 63.465 39.2698 64.5033C39.2698 65.5416 38.4252 66.3863 37.3868 66.3863C36.3485 66.3863 35.5039 65.5416 35.5039 64.5033C35.5039 63.465 36.3485 62.6203 37.3868 62.6203Z" fill="#C90000"/>
</symbol><symbol id="workspace" viewBox="0 0 70 70">
<path d="M1.05857 57.1609C0.492697 57.1609 0.0341797 57.6195 0.0341797 58.1853V68.9072C0.0341797 70.2284 2.08296 70.2284 2.08296 68.9072V58.1853C2.08296 57.6195 1.62444 57.1609 1.05857 57.1609Z" fill="#C90000"/>
<path d="M68.9415 34.0582H60.8974V30.3646H63.3575C64.855 30.3646 66.0732 29.1464 66.0732 27.6488V2.71586C66.0732 1.21834 64.855 0 63.3575 0H25.1398C23.6423 0 22.4241 1.21834 22.4241 2.71586V6.39397C22.4241 7.71516 24.4729 7.71516 24.4729 6.39397V2.71586C24.4729 2.34804 24.772 2.04878 25.1398 2.04878H63.3576C63.7253 2.04878 64.0246 2.34804 64.0246 2.71586V22.5793H60.8976V11.6652C60.8976 11.3272 60.7308 11.011 60.4519 10.82C60.1731 10.6291 59.818 10.588 59.5028 10.7101C59.2348 10.814 53.5832 13.122 52.3804 22.5792H24.4729V11.7207C24.4729 10.3995 22.4241 10.3995 22.4241 11.7207V27.6488C22.4241 29.1464 23.6423 30.3646 25.1398 30.3646H38.9002V34.0582H15.6412C17.9102 31.7917 18.1317 28.2027 18.1317 25.1872C18.1317 24.6214 17.6732 24.1628 17.1074 24.1628H11.5756V22.2289C14.8619 22.9274 18.4442 20.2325 18.4004 16.8139C18.3945 16.3561 18.3377 15.8909 17.9147 15.6116C15.9689 14.3273 13.2891 14.8624 11.5756 16.2649V14.417C14.5031 12.3965 14.7205 7.6384 11.9074 5.41752C11.624 5.1938 11.3104 4.98086 10.974 4.84373C9.53014 4.25422 7.94302 6.82599 7.59896 7.81869C6.78614 10.1644 7.52138 12.8622 9.52673 14.3508V16.2535C8.21182 15.1836 6.49453 14.656 4.81685 14.992C4.12355 15.1309 2.90862 15.4447 2.75742 16.2851C2.10755 19.9013 6.20415 22.929 9.52686 22.2319V24.1628H3.5854C3.01953 24.1628 2.56101 24.6214 2.56101 25.1872C2.56101 28.1985 2.72436 31.792 4.99305 34.0582H1.05857C0.492697 34.0582 0.0341797 34.5169 0.0341797 35.0826V68.9073C0.0341797 70.2285 2.08296 70.2285 2.08296 68.9073V64.1268H20.5903V68.9073C20.5903 70.2285 22.6391 70.2285 22.6391 68.9073V42.8195H58.8635C58.8689 43.1764 58.903 45.0989 58.9073 45.675H41.5706C37.5207 45.675 34.5201 46.7291 32.6519 48.8081C30.4089 51.3041 30.7042 54.3297 30.7179 54.4571C30.7737 54.9777 31.2129 55.3724 31.7365 55.3724H44.9708V57.2163H40.9415C39.6203 57.2163 39.6203 59.2651 40.9415 59.2651H44.9708V67.8829H31.8586C30.5374 67.8829 30.5374 69.9317 31.8586 69.9317H45.6298C45.7434 69.9751 45.8662 70 45.9952 70C46.1241 70 46.2469 69.9751 46.3605 69.9317H60.1317C61.4529 69.9317 61.4529 67.8829 60.1317 67.8829H47.0195V55.3725H53.8633C56.215 55.3725 57.915 54.8056 59.0606 53.6393C61.0683 51.5953 61.0071 48.1728 60.9297 43.8397C60.9237 43.5045 60.9178 43.1636 60.9126 42.8194H67.9171V52.4488C67.9171 53.77 69.9659 53.77 69.9659 52.4488V35.0826C69.9659 34.5169 69.5074 34.0582 68.9415 34.0582ZM13.2865 17.5507C14.6048 16.7142 15.7517 16.9113 16.3489 17.1222C16.1686 19.2457 13.587 20.7909 11.6138 20.122C11.6965 19.4649 12.0301 18.3478 13.2865 17.5507ZM6.47746 19.6815C5.60714 19.1293 4.86684 18.1784 4.7711 17.1217C6.82261 16.4005 9.23512 17.9983 9.50241 20.122C8.50739 20.4594 7.34969 20.2348 6.47746 19.6815ZM10.6041 6.98894C12.3196 8.29387 12.2427 11.2721 10.5981 12.5963C10.0907 12.179 9.32526 11.3013 9.32526 9.80437C9.32513 8.2432 10.1061 7.38039 10.6041 6.98894ZM4.62427 26.2116H16.0675C15.8941 31.7453 14.2425 33.9286 10.3462 33.9286C6.3966 33.9288 4.79036 31.8157 4.62427 26.2116ZM57.599 52.2036C56.8586 52.9574 55.6367 53.3237 53.8633 53.3237H32.7823C32.8771 52.5059 33.1929 51.2714 34.1759 50.1775C35.639 48.5493 38.1269 47.7237 41.5707 47.7237H58.881C58.7963 49.7314 58.4929 51.2937 57.599 52.2036ZM64.0244 24.6281V27.649C64.0244 28.0168 63.7253 28.3159 63.3575 28.3159H60.8974V24.6281H64.0244ZM57.2465 15.2099C57.8043 14.473 58.3651 13.9246 58.8487 13.5269V39.1862C58.3668 38.7733 57.8101 38.2102 57.2562 37.4622C55.26 34.7662 54.2048 30.8994 54.2048 26.2797C54.2048 21.6668 55.2567 17.8389 57.2465 15.2099ZM52.4315 30.3647C52.6271 31.7435 52.9168 32.9703 53.2698 34.0584H49.597V30.3647H52.4315ZM24.4729 27.6488V24.628H52.1987C52.1347 25.8562 52.142 27.0886 52.2218 28.3158H25.1398C24.772 28.3159 24.4729 28.0167 24.4729 27.6488ZM40.949 30.3647H47.5483V34.0584H40.949V30.3647ZM54.0743 36.107C55.1417 38.388 56.4667 39.8615 57.5388 40.7707H2.08296V36.107H54.0743ZM2.08296 62.078V53.4732H20.5903V62.078H2.08296ZM20.5903 51.4244H2.08296V42.8195H20.5903V51.4244ZM60.8974 40.7707V36.107H67.9171V40.7707H60.8974Z" fill="#C90000"/>
<path d="M54.7365 48.1464H62.5219C63.8431 48.1464 63.8431 46.0977 62.5219 46.0977H54.7365C53.4153 46.0977 53.4153 48.1464 54.7365 48.1464Z" fill="#C90000"/>
<path d="M62.5219 56.7512H54.7365C53.4153 56.7512 53.4153 58.8 54.7365 58.8H62.5219C63.8431 58.8 63.8431 56.7512 62.5219 56.7512Z" fill="#C90000"/>
</symbol></svg>