<?xml version="1.0" encoding="UTF-8"?><!DOCTYPE svg PUBLIC "-//W3C//DTD SVG 1.1//EN" "http://www.w3.org/Graphics/SVG/1.1/DTD/svg11.dtd"><svg xmlns="http://www.w3.org/2000/svg"><defs>
<clipPath id="clip0">
<rect width="8.25" height="16" fill="white"/>
</clipPath>

<clipPath id="clip0">
<rect width="14" height="16" fill="white" transform="translate(0.253174)"/>
</clipPath>

<clipPath id="clip0">
<rect width="14.0031" height="16" fill="white" transform="translate(0.25)"/>
</clipPath>

<clipPath id="clip0">
<rect width="144" height="17.2408" fill="white"/>
</clipPath>

<clipPath id="clip0">
<rect width="144" height="17.2408" fill="white"/>
</clipPath>
</defs><symbol id="advantage-one" viewBox="0 0 120 120">
<path d="M18.352 3.35196H91.5363V59.4972H94.8883V0H15V107.263H70.0279V103.911H18.352V3.35196Z" fill="#DEDEDE"/>
<path d="M82.8775 17.5978H28.4082V20.9497H82.8775V17.5978Z" fill="#DEDEDE"/>
<path d="M82.8775 29.8883H28.4082V33.2402H82.8775V29.8883Z" fill="#DEDEDE"/>
<path d="M82.8775 42.1788H28.4082V45.5307H82.8775V42.1788Z" fill="#DEDEDE"/>
<path d="M82.8775 54.7486H28.4082V58.1005H82.8775V54.7486Z" fill="#DEDEDE"/>
<path d="M68.911 67.8771H28.4082V71.229H68.911V67.8771Z" fill="#DEDEDE"/>
<path d="M104.973 79.9162C104.973 70.5028 97.291 62.8212 87.8776 62.8212C78.4642 62.8212 70.8105 70.4749 70.8105 79.9162C70.8105 83.8827 72.2631 87.5698 74.4977 90.4748V120L87.9055 105.642L101.313 120V90.4748C103.548 87.5698 104.973 83.9106 104.973 79.9162ZM87.8776 66.2011C95.4474 66.2011 101.621 72.3743 101.621 79.9441C101.621 87.514 95.4474 93.6871 87.8776 93.6871C80.3077 93.6871 74.1346 87.514 74.1346 79.9441C74.1346 72.3464 80.3077 66.2011 87.8776 66.2011ZM87.9055 100.726L77.8497 111.508V93.7151C80.6429 95.7821 84.1346 97.0112 87.9055 97.0112C91.6765 97.0112 95.1681 95.7821 97.9614 93.7151V111.508L87.9055 100.726Z" fill="#DA0917"/>
</symbol><symbol id="advantage-two" viewBox="0 0 120 120">
<path fill-rule="evenodd" clip-rule="evenodd" d="M41.5279 60.5415C45.525 55.7556 48.268 48.3009 48.268 37.8519C48.268 28.3807 45.9738 21.3591 42.3061 16.7699C38.6999 12.2576 33.5524 9.81845 27.1146 9.81845C21.1403 9.81845 15.7067 12.3316 11.7119 17.167C7.6933 22.0313 5.0021 29.4197 5 39.2798C5.07852 49.2369 7.77227 56.3301 11.6444 60.8817C15.4919 65.4043 20.6826 67.642 26.3144 67.642C32.1772 67.642 37.5601 65.2924 41.5279 60.5415ZM2 39.2913C2.16099 60.2486 13.3593 70.642 26.3144 70.642C39.7524 70.642 51.268 59.7656 51.268 37.8519C51.268 18.0168 41.6701 6.81845 27.1146 6.81845C13.3594 6.81845 2 18.495 2 39.2913ZM13.1984 38.8131C13.1984 25.6923 17.8387 15.2989 26.6364 15.2989C36.3953 15.2989 40.0744 25.8533 40.0744 38.4911C40.0744 52.2464 35.9123 62.1663 26.6364 62.1663C17.8387 62.1663 12.8764 52.0901 13.1984 38.8131ZM13.8693 56.9152C11.2377 52.1342 10.0343 45.7357 10.1984 38.7768C10.2026 31.9379 11.4054 25.5363 13.971 20.7243C16.5804 15.8302 20.8067 12.2989 26.6364 12.2989C32.8885 12.2989 37.1595 15.8089 39.6905 20.7987C42.1366 25.6212 43.0744 31.962 43.0744 38.4911C43.0744 45.5939 42.012 52.0675 39.4913 56.8791C36.8865 61.8511 32.6145 65.1663 26.6364 65.1663C20.8689 65.1663 16.5494 61.7843 13.8693 56.9152ZM109.208 103.574C113.189 98.7857 115.932 91.3278 115.932 80.8791C115.932 71.397 113.673 64.3745 110.042 59.7874C106.476 55.2829 101.373 52.8452 94.9373 52.841C88.9621 52.8415 83.5313 55.3538 79.5383 60.2054C75.5197 65.088 72.8267 72.5173 72.8246 82.4634C72.9032 92.3346 75.594 99.3883 79.4656 103.923C83.3139 108.43 88.5067 110.669 94.139 110.669C99.9109 110.669 105.255 108.328 109.208 103.574ZM69.8246 82.4748C69.9856 103.271 81.184 113.669 94.139 113.669C107.416 113.669 118.932 102.793 118.932 80.8791C118.932 61.0441 109.495 49.8504 94.9393 49.841C81.1793 49.841 69.8246 61.5176 69.8246 82.4748ZM80.862 81.8403C80.862 68.7243 85.6586 58.3262 94.461 58.3262C104.22 58.3262 107.899 68.8806 107.899 81.5184C107.899 95.2736 103.737 105.194 94.461 105.194C85.8196 105.194 80.701 95.1174 80.862 81.8403ZM81.743 99.9615C79.0714 95.19 77.7799 88.7938 77.862 81.8222C77.8642 74.9646 79.1105 68.5515 81.7236 63.7343C84.3753 58.8459 88.6398 55.3262 94.461 55.3262C100.713 55.3262 104.984 58.8361 107.515 63.826C109.961 68.6484 110.899 74.9892 110.899 81.5184C110.899 88.6211 109.837 95.0948 107.316 99.9064C104.711 104.878 100.439 108.194 94.461 108.194C88.7598 108.194 84.4517 104.799 81.743 99.9615Z" fill="#DEDEDE"/>
<path fill-rule="evenodd" clip-rule="evenodd" d="M39.6781 99.8804L69.158 45.6303L35.5617 97.4327L28.2758 93.1014L27.9939 114.843L46.9644 104.216L39.6781 99.8804ZM52.9629 104.294L24.9268 120L25.3434 87.868L34.6146 93.3796L95.1757 0L96.833 0.984887L43.6917 98.7776L52.9629 104.294Z" fill="#DA0917"/>
</symbol><symbol id="facebook-f" viewBox="0 0 9 16">
<g clip-path="url(#clip0)">
<path d="M2.39687 16V8.84375H0V6H2.39687V3.75938C2.39687 1.325 3.88438 0 6.05625 0C7.09688 0 7.99062 0.078125 8.25 0.1125V2.65625H6.74375C5.5625 2.65625 5.33437 3.21875 5.33437 4.04063V6H8L7.63438 8.84375H5.33437V16" fill="#A3A3A3"/>
</g>

</symbol><symbol id="facebook-messenger" viewBox="0 0 14 16">
<path d="M7.00001 1C0.496886 1 -2.42186 8.6875 2.64376 12.5188V15L5.00939 13.6875C9.45314 14.9312 13.9281 11.8156 13.9281 7.47813C13.9313 3.9 10.8281 1 7.00001 1ZM7.73126 9.69063L5.93751 7.82812L2.48751 9.7375L6.27189 5.72188L8.06564 7.58437L11.5156 5.675L7.73126 9.69063Z" fill="#A3A3A3"/>
</symbol><symbol id="instagram" viewBox="0 0 15 16">
<g clip-path="url(#clip0)">
<path d="M7.25619 4.40623C5.26869 4.40623 3.66557 6.00935 3.66557 7.99685C3.66557 9.98435 5.26869 11.5875 7.25619 11.5875C9.24368 11.5875 10.8468 9.98435 10.8468 7.99685C10.8468 6.00935 9.24368 4.40623 7.25619 4.40623ZM7.25619 10.3312C5.97181 10.3312 4.92182 9.28435 4.92182 7.99685C4.92182 6.70935 5.96869 5.66248 7.25619 5.66248C8.54368 5.66248 9.59056 6.70935 9.59056 7.99685C9.59056 9.28435 8.54056 10.3312 7.25619 10.3312ZM11.8312 4.25935C11.8312 4.72498 11.4562 5.09685 10.9937 5.09685C10.5281 5.09685 10.1562 4.72185 10.1562 4.25935C10.1562 3.79685 10.5312 3.42185 10.9937 3.42185C11.4562 3.42185 11.8312 3.79685 11.8312 4.25935ZM14.2093 5.10935C14.1562 3.98748 13.8999 2.99373 13.078 2.17498C12.2593 1.35623 11.2656 1.09998 10.1437 1.04373C8.98743 0.978101 5.52182 0.978101 4.36557 1.04373C3.24682 1.09685 2.25307 1.3531 1.4312 2.17185C0.609325 2.9906 0.356201 3.98435 0.299951 5.10623C0.234326 6.26248 0.234326 9.7281 0.299951 10.8843C0.353076 12.0062 0.609325 13 1.4312 13.8187C2.25307 14.6375 3.2437 14.8937 4.36557 14.95C5.52182 15.0156 8.98743 15.0156 10.1437 14.95C11.2656 14.8968 12.2593 14.6406 13.078 13.8187C13.8968 13 14.153 12.0062 14.2093 10.8843C14.2749 9.7281 14.2749 6.2656 14.2093 5.10935ZM12.7156 12.125C12.4718 12.7375 11.9999 13.2094 11.3843 13.4562C10.4624 13.8219 8.27493 13.7375 7.25619 13.7375C6.23744 13.7375 4.04682 13.8187 3.12807 13.4562C2.51557 13.2125 2.0437 12.7406 1.79682 12.125C1.4312 11.2031 1.51557 9.0156 1.51557 7.99685C1.51557 6.9781 1.43432 4.78748 1.79682 3.86873C2.04057 3.25623 2.51245 2.78435 3.12807 2.53748C4.04994 2.17185 6.23744 2.25623 7.25619 2.25623C8.27493 2.25623 10.4656 2.17498 11.3843 2.53748C11.9968 2.78123 12.4687 3.2531 12.7156 3.86873C13.0812 4.7906 12.9968 6.9781 12.9968 7.99685C12.9968 9.0156 13.0812 11.2062 12.7156 12.125Z" fill="#A3A3A3"/>
</g>

</symbol><symbol id="linkedin-in" viewBox="0 0 15 16">
<g clip-path="url(#clip0)">
<path d="M3.38438 14H0.48125V4.65312H3.38438V14ZM1.93125 3.37812C1.00312 3.37812 0.25 2.60938 0.25 1.68125C0.25 0.753125 1.00312 0 1.93125 0C2.85938 0 3.6125 0.753125 3.6125 1.68125C3.6125 2.60938 2.85938 3.37812 1.93125 3.37812ZM14.25 14H11.3531V9.45C11.3531 8.36562 11.3313 6.975 9.84375 6.975C8.33438 6.975 8.10313 8.15312 8.10313 9.37187V14H5.20312V4.65312H7.9875V5.92812H8.02812C8.41562 5.19375 9.3625 4.41875 10.775 4.41875C13.7125 4.41875 14.2531 6.35313 14.2531 8.86563V14H14.25Z" fill="#A3A3A3"/>
</g>

</symbol><symbol id="logo-black" viewBox="0 0 144 18">
<g clip-path="url(#clip0)">
<path d="M0.470215 3.28209V13.1679L8.4245 17.5967V7.43412L0.470215 3.28209Z" fill="#3E4042"/>
<path d="M16.1437 3.28209V13.1679L8.42456 17.5967V7.43412L16.1437 3.28209Z" fill="#ACADB0"/>
<path d="M0.470215 3.28208L8.30695 -0.276802L16.1437 3.28208L8.4245 7.43411L0.470215 3.28208Z" fill="#C90000"/>
<path d="M26.9192 2.53076L29.7796 11.5861L32.64 2.53076H36.7151V15.5009H33.6196V12.4561L33.9331 6.24782L30.8376 15.5009H28.8L25.6653 6.24782L25.9788 12.4561V15.5009H22.8833V2.53076H26.9192Z" fill="#0C0404"/>
<path d="M49.6064 9.29264C49.6064 10.558 49.3713 11.6652 48.9011 12.6538C48.4309 13.6424 47.7648 14.3937 46.9028 14.9078C46.0407 15.4218 45.0611 15.6986 43.964 15.6986C42.8668 15.6986 41.8872 15.4614 41.0644 14.9473C40.2023 14.4333 39.5362 13.7215 39.066 12.7724C38.5958 11.8234 38.3607 10.7557 38.3215 9.5299V8.77858C38.3215 7.5132 38.5566 6.36645 39.0268 5.41741C39.497 4.42883 40.1632 3.67751 41.0252 3.16345C41.8872 2.64939 42.8668 2.37259 43.964 2.37259C45.0611 2.37259 46.0407 2.64939 46.8636 3.16345C47.7256 3.67751 48.3917 4.42883 48.8619 5.41741C49.3321 6.36645 49.5672 7.47366 49.5672 8.73904V9.29264H49.6064ZM46.4717 8.73904C46.4717 7.43411 46.2758 6.48508 45.8448 5.81284C45.4138 5.14061 44.7868 4.82427 44.0032 4.82427C42.4358 4.82427 41.613 6.01056 41.5346 8.34361V9.29264C41.5346 10.558 41.7305 11.5466 42.1615 12.2188C42.5926 12.8911 43.2195 13.247 44.0423 13.247C44.826 13.247 45.4138 12.9306 45.8448 12.2584C46.2758 11.5861 46.4717 10.6371 46.4717 9.37173V8.73904Z" fill="#0C0404"/>
<path d="M51.2131 15.5405V2.53076H55.3666C56.5029 2.53076 57.5217 2.80756 58.4229 3.32162C59.3242 3.83569 60.0295 4.58701 60.5389 5.53604C61.0482 6.48508 61.3225 7.55274 61.3225 8.73904V9.33219C61.3225 10.5185 61.0874 11.5861 60.578 12.5352C60.0687 13.4842 59.3633 14.196 58.4621 14.7496C57.5609 15.2637 56.5421 15.5405 55.445 15.5405H51.2131ZM54.3086 4.94289V13.0888H55.4058C56.307 13.0888 56.9731 12.7724 57.4433 12.1398C57.9135 11.5071 58.1486 10.558 58.1486 9.29264V8.73904C58.1486 7.47366 57.9135 6.52462 57.4433 5.89193C56.9731 5.25924 56.2678 4.94289 55.3666 4.94289H54.3086Z" fill="#0C0404"/>
<path d="M72.9993 2.53076V11.0325C72.9993 11.9816 72.8034 12.812 72.3723 13.5238C71.9805 14.2355 71.3928 14.7496 70.6091 15.145C69.8646 15.5009 68.9634 15.6986 67.9054 15.6986C66.3381 15.6986 65.0842 15.3032 64.183 14.4728C63.2817 13.6424 62.8115 12.5352 62.8115 11.1116V2.53076H65.9462V11.1512C65.9854 12.5747 66.6515 13.2865 67.9054 13.2865C68.5323 13.2865 69.0417 13.0888 69.3552 12.7329C69.6687 12.377 69.8646 11.7839 69.8646 10.993V2.53076H72.9993Z" fill="#0C0404"/>
<path d="M78.0538 13.1283H83.4611V15.5405H74.9583V2.53076H78.0538V13.1283Z" fill="#0C0404"/>
<path d="M93.3355 2.53076L96.1959 11.5861L99.0563 2.53076H103.131V15.5009H100.036V12.4561L100.349 6.24782L97.2538 15.5009H95.2163L92.0816 6.24782L92.3951 12.4561V15.5009H89.2996V2.53076H93.3355Z" fill="#0C0404"/>
<path d="M113.123 10.0044H108.225V13.1283H114.024V15.5405H105.169V2.53076H114.024V4.94289H108.225V7.67137H113.123V10.0044Z" fill="#0C0404"/>
<path d="M115.278 15.5405V2.53076H119.432C120.568 2.53076 121.587 2.80756 122.488 3.32162C123.389 3.83569 124.095 4.58701 124.604 5.53604C125.113 6.48508 125.388 7.55274 125.388 8.73904V9.33219C125.388 10.5185 125.153 11.5861 124.643 12.5352C124.134 13.4842 123.429 14.196 122.527 14.7496C121.626 15.2637 120.607 15.5405 119.51 15.5405H115.278ZM118.374 4.94289V13.0888H119.471C120.372 13.0888 121.038 12.7724 121.509 12.1398C121.979 11.5071 122.214 10.558 122.214 9.29264V8.73904C122.214 7.47366 121.979 6.52462 121.509 5.89193C121.038 5.25924 120.333 4.94289 119.432 4.94289H118.374Z" fill="#0C0404"/>
<path d="M130.286 15.5405H127.19V2.53076H130.286V15.5405Z" fill="#0C0404"/>
<path d="M139.886 13.0888H135.615L134.87 15.5009H131.54L136.242 2.53076H139.141L143.882 15.5009H140.669L139.886 13.0888ZM136.398 10.6767H139.18L137.809 6.16873L136.398 10.6767Z" fill="#0C0404"/>
</g>

</symbol><symbol id="logo-white" viewBox="0 0 144 18">
<g clip-path="url(#clip0)">
<path d="M0.470215 3.28209V13.1679L8.4245 17.5967V7.43412L0.470215 3.28209Z" fill="#3E4042"/>
<path d="M16.1436 3.28209V13.1679L8.42444 17.5967V7.43412L16.1436 3.28209Z" fill="#ACADB0"/>
<path d="M0.470215 3.28208L8.30695 -0.276802L16.1437 3.28208L8.4245 7.43411L0.470215 3.28208Z" fill="#C90000"/>
<path d="M26.9192 2.53076L29.7796 11.5861L32.64 2.53076H36.7151V15.5009H33.6196V12.4561L33.9331 6.24782L30.8376 15.5009H28.8L25.6653 6.24782L25.9788 12.4561V15.5009H22.8833V2.53076H26.9192Z" fill="white"/>
<path d="M49.6066 9.29264C49.6066 10.558 49.3715 11.6652 48.9012 12.6538C48.431 13.6424 47.7649 14.3937 46.9029 14.9078C46.0408 15.4218 45.0612 15.6986 43.9641 15.6986C42.867 15.6986 41.8874 15.4614 41.0645 14.9473C40.2025 14.4333 39.5363 13.7215 39.0661 12.7724C38.5959 11.8234 38.3608 10.7557 38.3217 9.5299V8.77858C38.3217 7.5132 38.5568 6.36645 39.027 5.41741C39.4972 4.42883 40.1633 3.67751 41.0253 3.16345C41.8874 2.64939 42.867 2.37259 43.9641 2.37259C45.0612 2.37259 46.0408 2.64939 46.8637 3.16345C47.7257 3.67751 48.3919 4.42883 48.8621 5.41741C49.3323 6.36645 49.5674 7.47366 49.5674 8.73904V9.29264H49.6066ZM46.4719 8.73904C46.4719 7.43411 46.2759 6.48508 45.8449 5.81284C45.4139 5.14061 44.787 4.82427 44.0033 4.82427C42.4359 4.82427 41.6131 6.01056 41.5347 8.34361V9.29264C41.5347 10.558 41.7306 11.5466 42.1617 12.2188C42.5927 12.8911 43.2196 13.247 44.0425 13.247C44.8261 13.247 45.4139 12.9306 45.8449 12.2584C46.2759 11.5861 46.4719 10.6371 46.4719 9.37173V8.73904Z" fill="white"/>
<path d="M51.213 15.5405V2.53076H55.3665C56.5028 2.53076 57.5216 2.80756 58.4228 3.32162C59.324 3.83569 60.0293 4.58701 60.5387 5.53604C61.0481 6.48508 61.3224 7.55274 61.3224 8.73904V9.33219C61.3224 10.5185 61.0873 11.5861 60.5779 12.5352C60.0685 13.4842 59.3632 14.196 58.462 14.7496C57.5608 15.2637 56.542 15.5405 55.4449 15.5405H51.213ZM54.3085 4.94289V13.0888H55.4057C56.3069 13.0888 56.973 12.7724 57.4432 12.1398C57.9134 11.5071 58.1485 10.558 58.1485 9.29264V8.73904C58.1485 7.47366 57.9134 6.52462 57.4432 5.89193C56.973 5.25924 56.2677 4.94289 55.3665 4.94289H54.3085Z" fill="white"/>
<path d="M72.9992 2.53076V11.0325C72.9992 11.9816 72.8032 12.812 72.3722 13.5238C71.9804 14.2355 71.3926 14.7496 70.609 15.145C69.8645 15.5009 68.9632 15.6986 67.9053 15.6986C66.3379 15.6986 65.0841 15.3032 64.1828 14.4728C63.2816 13.6424 62.8114 12.5352 62.8114 11.1116V2.53076H65.9461V11.1512C65.9853 12.5747 66.6514 13.2865 67.9053 13.2865C68.5322 13.2865 69.0416 13.0888 69.3551 12.7329C69.6686 12.377 69.8645 11.7839 69.8645 10.993V2.53076H72.9992Z" fill="white"/>
<path d="M78.0539 13.1283H83.4612V15.5405H74.9584V2.53076H78.0539V13.1283Z" fill="white"/>
<path d="M93.3355 2.53076L96.1959 11.5861L99.0563 2.53076H103.131V15.5009H100.036V12.4561L100.349 6.24782L97.2538 15.5009H95.2163L92.0816 6.24782L92.3951 12.4561V15.5009H89.2996V2.53076H93.3355Z" fill="white"/>
<path d="M113.123 10.0044H108.225V13.1283H114.024V15.5405H105.169V2.53076H114.024V4.94289H108.225V7.67137H113.123V10.0044Z" fill="white"/>
<path d="M115.278 15.5405V2.53076H119.432C120.568 2.53076 121.587 2.80756 122.488 3.32162C123.389 3.83569 124.095 4.58701 124.604 5.53604C125.113 6.48508 125.388 7.55274 125.388 8.73904V9.33219C125.388 10.5185 125.153 11.5861 124.643 12.5352C124.134 13.4842 123.429 14.196 122.527 14.7496C121.626 15.2637 120.607 15.5405 119.51 15.5405H115.278ZM118.374 4.94289V13.0888H119.471C120.372 13.0888 121.038 12.7724 121.509 12.1398C121.979 11.5071 122.214 10.558 122.214 9.29264V8.73904C122.214 7.47366 121.979 6.52462 121.509 5.89193C121.038 5.25924 120.333 4.94289 119.432 4.94289H118.374Z" fill="white"/>
<path d="M130.286 15.5405H127.19V2.53076H130.286V15.5405Z" fill="white"/>
<path d="M139.886 13.0888H135.615L134.87 15.5009H131.54L136.242 2.53076H139.141L143.882 15.5009H140.669L139.886 13.0888ZM136.398 10.6767H139.18L137.809 6.16873L136.398 10.6767Z" fill="white"/>
</g>

</symbol><symbol id="skype" viewBox="0 0 14 16">
<path d="M13.2719 9.36875C13.3625 8.93125 13.4187 8.46562 13.4187 8C13.4187 4.45312 10.5469 1.58438 7.00313 1.58438C6.5375 1.58438 6.075 1.6375 5.63438 1.73125C5.04063 1.27188 4.30313 1 3.5 1C1.56875 1 0 2.56875 0 4.5C0 5.30313 0.271875 6.04062 0.728125 6.63125C0.6375 7.06875 0.58125 7.53438 0.58125 8C0.58125 11.5469 3.45312 14.4156 6.99687 14.4156C7.4625 14.4156 7.925 14.3625 8.36563 14.2688C8.95938 14.725 9.69687 14.9969 10.4969 14.9969C12.4281 14.9969 13.9969 13.4281 13.9969 11.4969C14 10.6969 13.7281 9.95937 13.2719 9.36875V9.36875ZM7.19063 12.2281C5.14063 12.2281 3.425 11.3156 3.425 10.1969C3.425 9.69687 3.70625 9.24063 4.34688 9.24063C5.32188 9.24063 5.4125 10.6438 7.1 10.6438C7.90312 10.6438 8.42188 10.2875 8.42188 9.82187C8.42188 9.2375 7.92188 9.14687 7.10938 8.94687C5.15625 8.46562 3.42812 8.25938 3.42812 6.22188C3.42812 4.37188 5.25938 3.6875 6.8375 3.6875C8.55938 3.6875 10.3 4.37187 10.3 5.41875C10.3 5.94687 9.94375 6.4125 9.35312 6.4125C8.46875 6.4125 8.44063 5.36562 7.00938 5.36562C6.20625 5.36562 5.69688 5.58437 5.69688 6.06875C5.69688 6.6875 6.34687 6.75 7.85625 7.1C9.15 7.39062 10.6906 7.9375 10.6906 9.525C10.6906 11.3719 8.90625 12.2281 7.19063 12.2281V12.2281Z" fill="#A3A3A3"/>
</symbol><symbol id="telegram-plane" viewBox="0 0 14 16">
<path d="M13.9594 3.08122L11.8469 13.0437C11.6875 13.7468 11.2719 13.9218 10.6812 13.5906L7.46248 11.2187L5.90935 12.7125C5.73748 12.8843 5.59373 13.0281 5.26248 13.0281L5.49373 9.74997L11.4594 4.35934C11.7187 4.12809 11.4031 3.99997 11.0562 4.23122L3.68123 8.87497L0.506228 7.88122C-0.184397 7.6656 -0.196897 7.1906 0.649978 6.85934L13.0687 2.07497C13.6437 1.85934 14.1469 2.20309 13.9594 3.08122Z" fill="#A3A3A3"/>
</symbol><symbol id="twitter" viewBox="0 0 16 16">
<path d="M14.3553 4.74113C14.3655 4.88325 14.3655 5.02541 14.3655 5.16753C14.3655 9.50253 11.066 14.4975 5.03553 14.4975C3.17766 14.4975 1.45178 13.9594 0 13.0254C0.263969 13.0558 0.51775 13.066 0.791875 13.066C2.32484 13.066 3.73603 12.5483 4.86294 11.665C3.42131 11.6345 2.21319 10.6904 1.79694 9.39088C2 9.42131 2.20303 9.44163 2.41625 9.44163C2.71066 9.44163 3.00509 9.401 3.27919 9.32997C1.77666 9.02538 0.649719 7.7056 0.649719 6.11169V6.07109C1.08625 6.31475 1.59391 6.46703 2.13194 6.48731C1.24869 5.89847 0.670031 4.89341 0.670031 3.75634C0.670031 3.14722 0.832438 2.58884 1.11672 2.10153C2.73094 4.09138 5.15734 5.39084 7.87813 5.533C7.82738 5.28934 7.79691 5.03556 7.79691 4.78175C7.79691 2.97463 9.25884 1.50256 11.0761 1.50256C12.0203 1.50256 12.873 1.8985 13.472 2.53809C14.2131 2.39597 14.9238 2.12184 15.5533 1.74622C15.3096 2.50766 14.7918 3.14725 14.1116 3.55331C14.7715 3.48228 15.4111 3.2995 15.9999 3.04572C15.5533 3.69544 14.9949 4.27409 14.3553 4.74113Z" fill="#A3A3A3"/>
</symbol></svg>