<svg width="108" height="108" viewBox="0 0 108 108" fill="none" xmlns="http://www.w3.org/2000/svg">
<g clip-path="url(#clip0)">
<path d="M92.5031 55.7944H81.0488C79.3315 54.2805 77.7381 53.6114 77.6649 53.5811C77.6544 53.5766 77.644 53.5726 77.6335 53.5684L60.1364 46.7923V42.8097C62.9027 40.64 64.8275 37.4475 65.3354 33.805C68.7507 33.5167 71.2533 30.7237 71.2533 27.4402C71.2533 25.9158 70.7091 24.459 69.7371 23.3185V17.9187C69.7371 13.7346 68.2898 9.64279 65.6624 6.39667C63.0742 3.19949 59.4507 0.942035 55.4583 0.039645C54.6029 -0.154418 53.7524 0.38284 53.559 1.23861C53.3656 2.09418 53.9024 2.94447 54.758 3.13789C61.7071 4.70854 66.5603 10.7865 66.5603 17.9187V21.2948C66.2068 21.1967 65.8431 21.1283 65.4717 21.0893V21.0556C65.4719 19.749 65.2515 19.7556 60.8125 14.985C59.8951 13.9997 58.4253 13.8381 57.3223 14.5591C52.2225 17.89 46.0026 19.5644 40.2646 19.1521C38.9665 19.0519 37.7889 19.8948 37.437 21.1311C37.0959 21.1745 36.6405 21.2682 36.244 21.3922V17.9189C36.244 10.7867 41.0972 4.70854 48.0461 3.13811C48.9017 2.94468 49.4385 2.09439 49.2451 1.23882C49.0517 0.383262 48.202 -0.154207 47.3458 0.0398559C43.3538 0.942246 39.7299 3.1997 37.1419 6.39688C34.5145 9.643 33.0672 13.7348 33.0672 17.9189V23.4611C32.0849 24.5894 31.5517 25.9731 31.5517 27.4404C31.5517 29.2956 32.3566 31.0519 33.7602 32.2591C34.8106 33.1625 36.0917 33.6897 37.4733 33.8055C37.9867 37.3467 39.9008 40.7628 42.9644 43.0325V46.7931L25.4866 53.5688C25.4767 53.5728 25.4667 53.5766 25.4566 53.5809C25.1366 53.7123 17.6258 56.9012 17.6258 65.6699V94.5354L14.4442 97.7048C12.0851 100.055 12.0773 103.866 14.4282 106.226C16.7774 108.584 20.5884 108.594 22.9492 106.242L43.5542 85.7153L56.664 96.9827C59.1294 99.1007 62.7936 98.8947 65.0066 96.513L88.1091 71.6344L90.5041 74.0294C92.2816 75.8059 95.3303 74.5457 95.3303 72.0301V58.6216C95.3303 57.0628 94.0619 55.7944 92.5031 55.7944ZM65.4721 24.3061C67.0539 24.6278 68.077 25.9626 68.077 27.4404C68.077 28.9393 67.0371 30.2611 65.4721 30.579V24.3061ZM37.3339 30.5792C34.0477 29.9118 33.7115 25.3728 37.3339 24.3846V30.5792ZM76.9566 56.7702C76.7762 56.9784 76.6022 57.2516 76.4828 57.5397C76.0437 58.6001 76.2841 59.8094 77.0958 60.6209L79.5821 63.1072L73.8425 69.2883V68.3524C73.8425 67.4751 73.1317 66.7642 72.2544 66.7642C71.3771 66.7642 70.6662 67.4751 70.6662 68.3524V72.7089L60.1219 84.0643L59.1073 83.1923L57.8052 75.4985C57.6588 74.6339 56.8416 74.0507 55.9742 74.1977C55.1094 74.3441 54.527 75.164 54.6734 76.0286L55.3374 79.9518L48.7348 74.2774L50.277 65.1662H52.8346L53.4189 68.6171C53.5651 69.4817 54.3835 70.066 55.2499 69.918C56.1147 69.7716 56.6971 68.9517 56.5507 68.087L55.8474 63.933L56.938 62.2917L57.4537 62.6581C58.8016 63.6149 60.6838 63.142 61.421 61.6655L66.0077 52.4726C77.4034 56.8856 76.4632 56.4998 76.9566 56.7702ZM54.3466 60.4519L53.3246 61.9901H49.7864L48.7644 60.4517L51.5555 58.4695L54.3466 60.4519ZM46.1414 47.3059V44.7826C47.8822 45.4583 49.7613 45.7692 51.5808 45.7692C53.4497 45.7692 55.3172 45.3775 56.9599 44.6848V47.3179L51.5557 53.989L46.1414 47.3059ZM63.0326 51.3204L58.8314 59.7409C58.2334 59.316 57.7474 58.9705 53.8503 56.2028L57.9235 51.1749L59.0539 49.7795L63.0326 51.3204ZM40.5104 31.8785C40.5104 29.6215 40.5104 27.1706 40.5104 22.3507C46.8035 22.6861 53.3837 20.8318 58.743 17.4234C60.7912 19.6218 61.9058 20.7828 62.2958 21.2522C62.2958 33.2043 62.2985 31.6746 62.2888 32.1511C62.1437 37.923 57.3989 42.5931 51.581 42.5931C44.9409 42.5927 40.5104 37.4412 40.5104 31.8785ZM44.0501 49.7823L49.255 56.2068C47.2644 57.6205 44.4534 59.6175 44.2798 59.7406L40.0786 51.3202L44.0501 49.7823ZM26.6558 56.5224L37.1033 52.472L41.6904 61.665C42.042 62.3696 42.682 62.8834 43.4458 63.0745C44.2069 63.265 45.0145 63.1148 45.6577 62.6577L46.1732 62.2915L47.2638 63.933L45.8825 72.094C43.631 71.0093 40.8403 71.4093 39.0001 73.2423L32.4555 79.762V68.352C32.4555 67.4747 31.7447 66.7638 30.8674 66.7638C29.9901 66.7638 29.2792 67.4747 29.2792 68.352V82.9263L20.8027 91.3703V65.6697C20.8027 59.1365 26.3132 56.669 26.6558 56.5224ZM92.1536 71.1867L89.1895 68.2224C88.5269 67.5607 87.4931 67.6289 86.9025 68.2648L62.6793 94.3515C61.6335 95.4772 59.9002 95.5749 58.7343 94.5738L44.5098 82.3485C43.8805 81.8077 42.9414 81.842 42.3536 82.4276L20.7078 103.992C19.5928 105.102 17.7907 105.1 16.6789 103.984C15.5679 102.869 15.5706 101.067 16.6863 99.9552C17.8593 98.7869 40.4551 76.2769 41.2419 75.4932C42.2983 74.4407 44.0069 74.4033 45.1097 75.3506L59.2104 87.4694C59.8574 88.0255 60.8285 87.9713 61.4094 87.3458L82.9514 64.1469C83.5328 63.5211 83.5146 62.5472 82.9105 61.943L79.938 58.9707H80.4303H92.1536V71.1867Z" fill="white"/>
<g clip-path="url(#clip1)">
<path d="M91.999 70.9848L89.0753 68.0662C88.4325 67.4246 87.4164 67.4867 86.8358 68.1076L63.0316 93.7125C61.9948 94.8096 60.2945 94.9131 59.1541 93.9402L45.1784 81.9347C44.5563 81.3965 43.644 81.4379 43.0634 82.0175L21.7681 103.172C20.6691 104.269 18.9066 104.269 17.8076 103.172C16.7087 102.075 16.7087 100.316 17.8076 99.2185C18.9688 98.08 41.1765 75.9733 41.9437 75.2075C42.9804 74.1725 44.66 74.1311 45.7382 75.0626L59.5895 86.9646C60.2323 87.5028 61.1861 87.4614 61.746 86.8404L82.9169 64.0713C83.4974 63.4503 83.4767 62.4982 82.8754 61.9186L79.9932 59H80.4701H91.999V70.9848Z" fill="#C90000"/>
</g>
</g>
<defs>
<clipPath id="clip0">
<rect width="108" height="108" fill="white"/>
</clipPath>
<clipPath id="clip1">
<rect width="75" height="45" fill="white" transform="translate(17 59)"/>
</clipPath>
</defs>
</svg>
