<?xml version="1.0" encoding="utf-8"?>
<!-- Generator: Adobe Illustrator 22.0.0, SVG Export Plug-In . SVG Version: 6.00 Build 0)  -->
<svg version="1.1" xmlns="http://www.w3.org/2000/svg" xmlns:xlink="http://www.w3.org/1999/xlink" x="0px" y="0px"
	 viewBox="0 0 367.5 43.6" style="enable-background:new 0 0 367.5 43.6;" xml:space="preserve">
<style type="text/css">
	.st0{fill:#3E4042;}
	.st1{fill:#ACADB0;}
	.st2{fill:#C90000;}
	.st3{fill:#FFFFFF;}
</style>
<g id="Слой_1">
</g>
<g id="Слой_2">
	<polygon class="st0" points="1.2,8.3 1.2,33.3 21.5,44.5 21.5,18.8 	"/>
	<polygon class="st1" points="41.2,8.3 41.2,33.3 21.5,44.5 21.5,18.8 	"/>
	<polygon class="st2" points="1.2,8.3 21.2,-0.7 41.2,8.3 21.5,18.8 	"/>
	<g>
		<path class="st3" d="M68.7,6.4l7.3,22.9l7.3-22.9h10.4v32.8h-7.9v-7.7l0.8-15.7l-7.9,23.4h-5.2l-8-23.4l0.8,15.7v7.7h-7.9V6.4
			H68.7z"/>
		<path class="st3" d="M126.6,23.5c0,3.2-0.6,6-1.8,8.5c-1.2,2.5-2.9,4.4-5.1,5.7c-2.2,1.3-4.7,2-7.5,2s-5.3-0.6-7.4-1.9
			c-2.2-1.3-3.9-3.1-5.1-5.5c-1.2-2.4-1.8-5.1-1.9-8.2v-1.9c0-3.2,0.6-6.1,1.8-8.5c1.2-2.5,2.9-4.4,5.1-5.7c2.2-1.3,4.7-2,7.5-2
			c2.8,0,5.3,0.7,7.4,2c2.2,1.3,3.9,3.2,5.1,5.7c1.2,2.4,1.8,5.2,1.8,8.4V23.5z M118.6,22.1c0-3.3-0.5-5.7-1.6-7.4s-2.7-2.5-4.7-2.5
			c-4,0-6.1,3-6.3,8.9l0,2.4c0,3.2,0.5,5.7,1.6,7.4c1.1,1.7,2.7,2.6,4.8,2.6c2,0,3.5-0.8,4.6-2.5c1.1-1.7,1.6-4.1,1.6-7.3V22.1z"/>
		<path class="st3" d="M130.7,39.3V6.4h10.6c2.9,0,5.5,0.7,7.8,2c2.3,1.3,4.1,3.2,5.4,5.6c1.3,2.4,2,5.1,2,8.1v1.5
			c0,3-0.6,5.7-1.9,8.1c-1.3,2.4-3.1,4.2-5.4,5.6c-2.3,1.3-4.9,2-7.7,2H130.7z M138.6,12.5v20.6h2.8c2.3,0,4-0.8,5.2-2.4
			c1.2-1.6,1.8-4,1.8-7.2v-1.4c0-3.2-0.6-5.6-1.8-7.2c-1.2-1.6-3-2.4-5.3-2.4H138.6z"/>
		<path class="st3" d="M186.3,6.4v21.5c0,2.4-0.5,4.5-1.6,6.3c-1,1.8-2.5,3.1-4.5,4.1c-1.9,0.9-4.2,1.4-6.9,1.4c-4,0-7.2-1-9.5-3.1
			c-2.3-2.1-3.5-4.9-3.5-8.5V6.4h8v21.8c0.1,3.6,1.8,5.4,5,5.4c1.6,0,2.9-0.5,3.7-1.4c0.8-0.9,1.3-2.4,1.3-4.4V6.4H186.3z"/>
		<path class="st3" d="M199.2,33.2H213v6.1h-21.7V6.4h7.9V33.2z"/>
		<path class="st3" d="M238.2,6.4l7.3,22.9l7.3-22.9h10.4v32.8h-7.9v-7.7l0.8-15.7l-7.9,23.4h-5.2l-8-23.4l0.8,15.7v7.7h-7.9V6.4
			H238.2z"/>
		<path class="st3" d="M288.7,25.3h-12.5v7.9H291v6.1h-22.6V6.4H291v6.1h-14.8v6.9h12.5V25.3z"/>
		<path class="st3" d="M294.2,39.3V6.4h10.6c2.9,0,5.5,0.7,7.8,2c2.3,1.3,4.1,3.2,5.4,5.6c1.3,2.4,2,5.1,2,8.1v1.5
			c0,3-0.6,5.7-1.9,8.1c-1.3,2.4-3.1,4.2-5.4,5.6c-2.3,1.3-4.9,2-7.7,2H294.2z M302.1,12.5v20.6h2.8c2.3,0,4-0.8,5.2-2.4
			c1.2-1.6,1.8-4,1.8-7.2v-1.4c0-3.2-0.6-5.6-1.8-7.2c-1.2-1.6-3-2.4-5.3-2.4H302.1z"/>
		<path class="st3" d="M332.5,39.3h-7.9V6.4h7.9V39.3z"/>
		<path class="st3" d="M357,33.1h-10.9l-1.9,6.1h-8.5l12-32.8h7.4l12.1,32.8H359L357,33.1z M348.1,27h7.1l-3.5-11.4L348.1,27z"/>
	</g>
</g>
</svg>
